<?xml version="1.0" encoding="utf-8"?>
<!-- Generator: Adobe Illustrator 25.3.1, SVG Export Plug-In . SVG Version: 6.00 Build 0)  -->
<svg version="1.1" id="Layer_1" xmlns="http://www.w3.org/2000/svg" xmlns:xlink="http://www.w3.org/1999/xlink" x="0px" y="0px"
	 viewBox="0 0 240 240" style="enable-background:new 0 0 240 240;" xml:space="preserve">
<style type="text/css">
	.st0{fill:url(#SVGID_1_);}
	.st1{opacity:0.9;}
	.st2{fill:#FFFFFF;}
</style>
<linearGradient id="SVGID_1_" gradientUnits="userSpaceOnUse" x1="-31.6769" y1="122.16" x2="275.0961" y2="122.16" gradientTransform="matrix(0.6431 0.7658 0.7658 -0.6431 -50.7202 106.6698)">
	<stop  offset="0" style="stop-color:#402082"/>
	<stop  offset="1" style="stop-color:#C30016"/>
</linearGradient>
<circle class="st0" cx="120" cy="120" r="120"/>
<g class="st1">
	<path class="st2" d="M200.9,53.4h-11c0-0.9-0.3-1.8-1-2.5c-0.7-0.7-1.5-1-2.4-1V39c0-0.7-0.4-1.3-1.1-1.6c-0.6-0.3-1.4-0.1-1.9,0.4
		l-11.9,11.8c-0.3,0.3-0.5,0.8-0.5,1.2l0,13l-5.4,5.4c-12.1-10.9-28.2-17.5-45.7-17.5c-37.8,0-68.5,30.7-68.5,68.5
		c0,37.8,30.7,68.5,68.5,68.5c37.8,0,68.5-30.7,68.5-68.5c0-17.7-6.7-33.8-17.8-46l5.4-5.4l13,0c0.5,0,0.9-0.2,1.2-0.5l11.9-11.7
		c0.5-0.5,0.7-1.3,0.4-1.9C202.3,53.9,201.6,53.4,200.9,53.4z M176.2,120.1c0,31-25.2,56.2-56.2,56.2c-31,0-56.2-25.2-56.2-56.2
		c0-31,25.2-56.2,56.2-56.2c14.2,0,27.1,5.3,37,14l-10.6,10.6c-7.2-6-16.4-9.6-26.5-9.6c-22.8,0-41.3,18.5-41.3,41.3
		s18.5,41.3,41.3,41.3c22.8,0,41.3-18.5,41.3-41.3c0-10.2-3.7-19.5-9.9-26.8L162,82.8C170.8,92.8,176.2,105.8,176.2,120.1z M120,136
		c8.8,0,15.9-7.1,15.9-15.9c0-3.2-0.9-6.1-2.6-8.6l10.6-10.6c4.3,5.3,6.8,12,6.8,19.3c0,17-13.8,30.8-30.8,30.8
		c-17,0-30.8-13.8-30.8-30.8c0-17,13.8-30.8,30.8-30.8c7.2,0,13.8,2.5,19,6.6l-10.7,10.7c-2.4-1.5-5.3-2.4-8.3-2.4
		c-8.8,0-15.9,7.1-15.9,15.9C104.1,128.9,111.2,136,120,136z"/>
</g>
</svg>
