<svg xmlns="http://www.w3.org/2000/svg" viewBox="0 0 273.44 340.64"><defs><style>#Layer_2{transform:scaleX(-1) translateX(-100%)}.cls-1{fill:#ffdde0;}.cls-1,.cls-11,.cls-6,.cls-9{stroke:#776f8a;}.cls-1,.cls-11,.cls-12,.cls-6,.cls-9{stroke-miterlimit:10;}.cls-1,.cls-6,.cls-9{stroke-width:2px;}.cls-2{fill:#dee1f4;}.cls-11,.cls-3,.cls-9{fill:#f6f6fb;}.cls-4{opacity:0.25;}.cls-5{fill:#25144d;}.cls-6{fill:none;}.cls-7{fill:#776f8a;}.cls-8{opacity:0.4;}.cls-10{opacity:0.9;}.cls-12{fill:#fff;stroke:#25144d;}</style></defs><title>dragon-3_1</title><g id="Layer_2" data-name="Layer 2"><g id="behind_body" data-name="behind body"><path class="cls-1" d="M113.27,121.57a.73.73,0,0,0-.9-.52c-1.35.36-4,1.61-5.27.8s-2.28-3.48-2.9-4.75l-.61-1.26c-.1-.38-.2-.75-.29-1.11-.46-1.7-.83-3.69-2-5a.19.19,0,0,0-.25,0,.3.3,0,0,0-.37,0c-.1-.13-.2-.27-.31-.39a.21.21,0,0,0-.21-.07l-.05-.09a.35.35,0,0,0-.64.27l0,.15a.61.61,0,0,0-.18.09l0,0a.61.61,0,0,0-.22.82l.21.4a46.94,46.94,0,0,1-.75,13.36,14.37,14.37,0,0,0-.42,3.69c.16,1.62,1.2,3.06,1.86,4.51,1.68,3.69,1.4,7.5,2.42,11.31A15.05,15.05,0,0,0,104,148a.61.61,0,0,0,.31.67,11.62,11.62,0,0,0,2.43,1.12.73.73,0,0,0,.91-.69,88.15,88.15,0,0,1,2.29-16,32.8,32.8,0,0,1,2.4-7A6.75,6.75,0,0,0,113.27,121.57Z"/><path class="cls-1" d="M157,123.21a32.34,32.34,0,0,0,1.47-5.75.65.65,0,0,0-1.07-.63c-12.58,12.28-25.56,24-41,32.66a.41.41,0,0,0-.18.22.42.42,0,0,0-.2.38,3.21,3.21,0,0,0,2.52,3.06,19.26,19.26,0,0,0,3.58.79,15.73,15.73,0,0,0,6,1.48c3.66.12,7.39.14,11.08,0,2,.25,4.21.54,5.77-.39l.08-.08a.74.74,0,0,0,.75-.28c2-2.63,5.27-3.54,8.45-3.69,3.6-.18,5.94,1.72,8.93,3.29a.71.71,0,0,0,.38.28c.1-4.75,3.82-9.88,7.84-11.64a11.92,11.92,0,0,1,8.49-.3,10,10,0,0,1,.77-7.2c1.77-4,5-8.51,9.12-10.71A61.29,61.29,0,0,0,157,123.21Z"/><g id="Layer_14" data-name="Layer 14"><path class="cls-2" d="M153,127a21.51,21.51,0,0,0,4.38-8.2,2.37,2.37,0,0,1,0-.65c-.07-.33-.16-.66-.26-1-4,5.75-10.4,10.92-15.61,14.94l-1.38,1a48.09,48.09,0,0,1-4.49,4.19c-4.83,3.91-10.22,6.63-15.47,9.81-.28.21-.55.41-.83.58a11.77,11.77,0,0,0,2.44.27,15.09,15.09,0,0,1,1.68.25l1.36-.55C134,140.69,145.15,135.21,153,127Z"/><path class="cls-2" d="M112.78,121.39a5.19,5.19,0,0,0-.78,0,3,3,0,0,1-.78.13h-.14a12.32,12.32,0,0,0-1.47.55,2.92,2.92,0,0,1-3.48-.6,2.65,2.65,0,0,1-.94-1.13c-2.12-2.71-2.6-6.32-3.48-9.65a1.58,1.58,0,0,0-1.31.41,14.52,14.52,0,0,1,.21,3.73c.66,2.34,1.43,4.64,2.18,7,1.57,3.43,3.23,6.69,3.67,10.53a68,68,0,0,1,.18,7.95,52.54,52.54,0,0,0,1.14,5.9,25.15,25.15,0,0,1,.61-5.78,44.88,44.88,0,0,1,2.14-10.58c.86-2.68,1.48-5.39,2.57-7.92C113,121.73,112.89,121.56,112.78,121.39Z"/></g></g><g id="body"><path class="cls-2" d="M265.61,158.86a67.68,67.68,0,0,0-12.21-17.23c-2.15-2.17-4.62-4.56-7.2-6.81a8.57,8.57,0,0,0-1.1-.53,33.78,33.78,0,0,1,1.33,6.53,42.12,42.12,0,0,1-3.52,22.51c-7,15.88-19.83,25.92-36.46,30.17-1-1.08-2-2.12-3.08-3.12a38.89,38.89,0,0,0-2.8-3.22,114.51,114.51,0,0,0-9.15-8.88,133.85,133.85,0,0,0-17.79-13c-1-.65-2.17-1.32-3.33-2a23.58,23.58,0,0,0-3.81-2.2c-4.11-3.19-9.93-5.18-14.16-6.67-9.19-3.2-18.82-4.66-28.44-6s-18.65-1.57-26.06-8.62a50.09,50.09,0,0,1-10.28-13.51c-.48-1.45-1-2.93-1.35-4.43-.07-.37-.16-.72-.22-1.1-.75-4.43,0-9.45-.68-14a18.9,18.9,0,0,1,1.6-4.22c2.55-4.86-5-8.06-7.11-2.94a31.42,31.42,0,0,0-1.48,4.52,10.74,10.74,0,0,0-1.5,1.19c0-.54-.09-1.07-.12-1.61a5.7,5.7,0,0,0-6-5.39,6.17,6.17,0,0,0-2,.41,6.1,6.1,0,0,0-4.49.49,6.1,6.1,0,0,0-7.72-.87c-2.23-1.66-5.6-1.76-7.35.75a5.07,5.07,0,0,0-2.31-1.6A50.33,50.33,0,0,0,45.28,89c-1.23-4-6.74-3.78-8.12-.36a4.56,4.56,0,0,0-5.9,2.46h0c-.38,1-.7,2-1,3a2.79,2.79,0,0,0-3.17-.19l-.12.08a18.49,18.49,0,0,0-.56-5.88c-.49-1.63,6.86-8.84,5.26-7.68-10.51,7.65-11.54,3.14-10.86,40.76.27,15.72,4.42,32,9.94,45.77,4.61,11.52,9.4,23.18,15,34.32A25,25,0,0,0,34.87,206a38.58,38.58,0,0,0-13.19,17c-6.16,15.2-2.84,31.82,3.35,46.44,6,14.11,13.72,26.86,28.29,33.71a53.24,53.24,0,0,0,18.25,4.53,12.52,12.52,0,0,1,.31,3.66,18.89,18.89,0,0,1-1.79,6.36A9.16,9.16,0,0,0,68,318.93c-2.8-3.87-9.71-4-13.31-.56-3.44-2.9-9.84-2-13.14.9a17,17,0,0,0-4.74,8,21.77,21.77,0,0,0,0,3.23c.26,1.06.54,2.13.89,3.17v.05a7.45,7.45,0,0,0,5,3.63c14.57.14,29.16.63,43.7-.18,3.42-.19,6.84-.27,10.28-.32a15.39,15.39,0,0,0,7.77-6.23c.78-2.1,1.44-4.22,2.05-6.15,2.18-6.47,4-13.1,7.4-19,1.64-2.82,3.67-5.54,5.14-8.42,4.22,1,9.13.94,12.33,1,6.34.2,13,.69,19.53.4a46.54,46.54,0,0,0,19.17,9.07v.24c2,.6,1.84,2.77,1,4.69a12.15,12.15,0,0,1-.39,1.16c-.41.94-1.42,2.3-2.47,2.5v.13a10,10,0,0,0-3,.45,13.65,13.65,0,0,0-5.41,3.26,13.08,13.08,0,0,0-9.72-3.57c-6.61.43-10.18,6.13-11.31,12a21.46,21.46,0,0,0-.51,4.66,11,11,0,0,0,1.46,2.29h0a14,14,0,0,0,3,1.57c9.17,0,18.33.28,27.48.55a19.92,19.92,0,0,1,7.46-.21c.75.13,1.49.28,2.23.45,2.59.05,5.14.08,7.77.07a42.31,42.31,0,0,1,5.14-1.69l.22-.24.37.12a9.38,9.38,0,0,1,1.29-.12c4.21-.11,7.59,1.91,12,.56a13.33,13.33,0,0,0,2.89-1.28c.33-.58.67-1.15,1-1.72,1.61-4.49,1.87-10.08,2.28-14.43.2-2,.29-4.38.43-6.84a1.06,1.06,0,0,1-.09-.35c-.16-4.08,1.43-8.06,1-12.09a21.17,21.17,0,0,0-1.69-2.87,34.42,34.42,0,0,1-4.42-2.75,28.4,28.4,0,0,1-2.87-1.69c9-1.93,18.05-7.77,25-12a89.29,89.29,0,0,0,18.44-14.71,103.49,103.49,0,0,0,6.89-9.27c1.9-2.92,3.79-5.88,5.58-8.89,1-2.23,2.05-4.44,3.08-6.62a130.94,130.94,0,0,0,8.84-37.56C274.27,188.31,272.4,172.46,265.61,158.86ZM112.28,165.8c-.69,1.89-1.35,3.8-2,5.7a54.62,54.62,0,0,0-4.11,5.13l-3.26-5.71a5.25,5.25,0,0,0-3.32-2.62l-.76-1.2a4.48,4.48,0,0,0-.22-.71c-.42-1.06-.86-2.13-1.32-3.19a13.1,13.1,0,0,0,7.5,1.52,5.92,5.92,0,0,0,5.48-5c1.6.37,3.19.71,4.79,1A17.05,17.05,0,0,0,112.28,165.8Z"/><g id="new_belly" data-name="new belly"><path class="cls-3" d="M151.57,300.73a17.6,17.6,0,0,1-5.91-5.67c-9.56-13.31-16-26.08-16.44-42.29-.17-6.82.92-22.11,3.87-28.31s11.8-7.11,18.85-7.12l-.27.67c-6.08-3.71-12.28-7.52-16.82-12.92-2-2.43-4.64-1.68-6.27-4.37-5.33-8.74-9.6-21-14.74-29.84q-4.17-7.17-8.27-14.36l-2.84-4.93c-2-3.57-4.09-7.13-6-10.77-2-3.82-3.86-7.72-5.71-11.61l-2.57-5.38A12.35,12.35,0,0,1,87,119.44a4.27,4.27,0,0,1,1.84-4l.3.31a151.59,151.59,0,0,1-23,.51l.5.46c3.45,11.12.86,23.14-3,34.13S54.78,172.52,53.13,184A88.48,88.48,0,0,0,53,204.53c1.71,19.18,6.41,38.4,16.42,55S95,291.36,114,296.94c6,1.76,12.42,1.41,18.67,2.1,6.8.76,13.64,1.24,20.48,1.45"/><path class="cls-3" d="M266.46,166.29c2.61,9.21,5.24,18.6,5,28.17-.17,6.26,0,14.88-1.5,21-2.81,11.38-4.9,21.49-9.78,32.15S246,267,237.13,274.71c-8.69,7.57-19.22,12.65-29.61,17.64l.68.31c-5.08-.43-9.45-4.45-11.09-9.28s-.81-10.27,1.42-14.85a38.86,38.86,0,0,1,9.59-11.81c7.84-6.93,17-12.15,25.13-18.8a92,92,0,0,0,32.86-74.86"/></g><g id="belly_lines" data-name="belly lines"><g class="cls-4"><path class="cls-5" d="M67,119.89a22,22,0,0,0,21.71-1.44c.29-.19,0-.66-.28-.47a21.4,21.4,0,0,1-21.16,1.44c-.31-.15-.59.32-.27.47Z"/></g><g class="cls-4"><path class="cls-5" d="M68.12,126.26c5.79,1.16,14.44,3.47,19.58-.54.28-.22-.11-.6-.38-.39-4.86,3.79-13.66,1.48-19.06.4-.34-.07-.49.46-.14.53Z"/></g><g class="cls-4"><path class="cls-5" d="M67.1,135.35c8.05,2.82,16.87,2.16,22.7-4.6.23-.26-.15-.65-.38-.38-5.72,6.62-14.34,7.21-22.17,4.45-.34-.12-.48.41-.15.53Z"/></g><g class="cls-4"><path class="cls-5" d="M64.18,146.49c5.31-.39,10.67.93,15.89-.45,4.82-1.28,9.4-3.86,13.73-6.24a.27.27,0,0,0-.27-.47c-4.3,2.36-8.83,4.94-13.6,6.18-5.2,1.35-10.47.05-15.75.43-.34,0-.35.57,0,.55Z"/></g><g class="cls-4"><path class="cls-5" d="M97.44,145.86c-10.56,8.41-24.45,7.84-37,10.63-.34.07-.2.6.15.53,12.69-2.82,26.61-2.29,37.26-10.78.27-.22-.11-.6-.39-.38Z"/></g><g class="cls-4"><path class="cls-5" d="M100.59,150.36a88.29,88.29,0,0,1-42.15,14.3c-.35,0-.35.57,0,.54a88.81,88.81,0,0,0,42.43-14.37c.29-.19,0-.67-.28-.47Z"/></g><g class="cls-4"><path class="cls-5" d="M96.55,161.67c-5.89,4.76-11.86,9.47-19.17,11.83C70.56,175.71,63.12,176.09,56,177c-.34,0-.35.59,0,.55,7.69-1,15.94-1.36,23.26-4.11,6.63-2.49,12.19-7,17.64-11.38.27-.22-.11-.6-.38-.38Z"/></g><g class="cls-4"><path class="cls-5" d="M92.83,174.64c-12,7.37-25.65,10.55-38.9,14.77-.34.1-.19.63.14.52,13.3-4.23,27-7.43,39-14.82.29-.18,0-.66-.28-.47Z"/></g><g class="cls-4"><path class="cls-5" d="M88,185.2c-8.26,8.23-21.42,10-32.24,12.91a.28.28,0,0,0,.15.53c10.93-3,24.11-4.72,32.47-13,.25-.25-.13-.64-.38-.39Z"/></g><g class="cls-4"><path class="cls-5" d="M87.47,194.87c-3.83,4.62-9.72,6.27-15.16,8.25a137.06,137.06,0,0,1-16.68,5.09c-.34.07-.2.6.14.52a157.74,157.74,0,0,0,20.13-6.35c4.48-1.67,8.82-3.34,11.95-7.12.23-.27-.16-.66-.38-.39Z"/></g><g class="cls-4"><path class="cls-5" d="M122.76,198.84C103,207.79,81.5,211.58,60.91,218.13c-.34.11-.2.63.14.53,20.64-6.57,42.16-10.37,62-19.35.32-.14,0-.61-.28-.47Z"/></g><g class="cls-4"><path class="cls-5" d="M128.08,206.31C108.17,219,84.66,222.13,61.7,224.92c-.35,0-.35.59,0,.55,23-2.8,46.68-5.94,66.66-18.69.29-.19,0-.66-.28-.47Z"/></g><g class="cls-4"><path class="cls-5" d="M136.63,211.84c-11.26,5.31-21.33,13-33.35,16.61-12.63,3.83-26.06,7-39.27,7.72-.35,0-.35.56,0,.54,13.29-.73,26.71-3.89,39.42-7.74,12.06-3.65,22.18-11.33,33.47-16.66.32-.15,0-.62-.27-.47Z"/></g><g class="cls-4"><path class="cls-5" d="M134.39,221a138.12,138.12,0,0,1-31.68,16.14,136.94,136.94,0,0,1-15.91,4.57c-6.53,1.44-13.8,3.21-20.48,2.07-.34-.06-.49.47-.14.53,5.19.88,10.51-.12,15.64-1.05a135,135,0,0,0,19.39-5,138.56,138.56,0,0,0,33.46-16.77c.29-.19,0-.66-.28-.47Z"/></g><g class="cls-4"><path class="cls-5" d="M130.66,236c-18.46,10.38-39.35,16.25-60.59,13.49-.35-.05-.35.5,0,.54,21.33,2.78,42.33-3.14,60.87-13.56.3-.17,0-.64-.28-.47Z"/></g><g class="cls-4"><path class="cls-5" d="M129.06,243.47c-7.57,5.42-14.81,9.78-23.85,12.28-9.34,2.58-18.75,4.9-28.18,7.09-.35.08-.2.61.14.53,10-2.32,20-4.71,29.83-7.55,8.37-2.41,15.3-6.84,22.34-11.88.28-.2,0-.67-.28-.47Z"/></g><g class="cls-4"><path class="cls-5" d="M130.33,252.58c-13.16,9.78-28.75,14.81-44.23,19.61a.28.28,0,0,0,.15.53c15.53-4.82,31.15-9.86,44.35-19.67.28-.21,0-.68-.27-.47Z"/></g><g class="cls-4"><path class="cls-5" d="M131.06,260.73c-9.56,11.43-23,17.94-36.66,23.06-.33.12-.19.65.14.53,13.81-5.16,27.28-11.7,36.9-23.21.23-.26-.16-.65-.38-.38Z"/></g><g class="cls-4"><path class="cls-5" d="M133.73,271.69c-8.81,7.64-17.81,15.19-29.2,18.54a.28.28,0,0,0,.15.53c11.46-3.38,20.57-11,29.44-18.69.26-.23-.12-.61-.39-.38Z"/></g><g class="cls-4"><path class="cls-5" d="M137.07,279.4a56.8,56.8,0,0,1-18.74,17.22c-.31.17,0,.64.27.47a57.37,57.37,0,0,0,19-17.42c.2-.29-.28-.56-.48-.27Z"/></g><g class="cls-4"><path class="cls-5" d="M141.19,288.25a104.13,104.13,0,0,1-10.85,9.6c-.27.21,0,.68.28.47a103.8,103.8,0,0,0,10.95-9.68c.25-.25-.14-.64-.38-.39Z"/></g><g class="cls-4"><path class="cls-5" d="M146.54,293.78q-3.22,3.23-6.7,6.18c-.26.22.12.61.39.38q3.48-3,6.7-6.18a.27.27,0,0,0-.39-.38Z"/></g><g class="cls-4"><path class="cls-5" d="M197,267.1c2.5,7.4,3.4,15.07,4.18,22.81,0,.34.58.35.54,0-.78-7.79-1.68-15.5-4.19-23-.12-.33-.64-.19-.53.14Z"/></g><g class="cls-4"><path class="cls-5" d="M202.3,260.87c2.71,4.46,4.13,9.41,5.66,14.36,1.58,5.14,3.33,10.26,4.52,15.5.08.34.61.2.53-.14-1.34-5.87-3.32-11.6-5.1-17.35-1.36-4.41-2.73-8.69-5.14-12.64a.27.27,0,0,0-.47.27Z"/></g><g class="cls-4"><path class="cls-5" d="M208.4,256.28a118.81,118.81,0,0,1,9.67,31.4c.06.35.58.2.53-.14A119.24,119.24,0,0,0,208.87,256c-.15-.32-.62,0-.47.27Z"/></g><g class="cls-4"><path class="cls-5" d="M213.06,253.42a81.33,81.33,0,0,1,13,31.31c.07.35.6.2.53-.14a81.68,81.68,0,0,0-13.05-31.45c-.19-.29-.67,0-.47.28Z"/></g><g class="cls-4"><path class="cls-5" d="M218.2,249.6c3.07,4.81,6.45,9.56,9.17,14.58s4,10.8,5.63,16.32a.27.27,0,0,0,.52-.15c-1.44-5-2.56-10.21-4.85-14.89-2.77-5.63-6.63-10.85-10-16.14-.19-.29-.66,0-.47.28Z"/></g><g class="cls-4"><path class="cls-5" d="M224.35,245.81c3,3.58,6.8,6.38,9.77,10a44.72,44.72,0,0,1,8.14,15.58.28.28,0,0,0,.53-.15,45.82,45.82,0,0,0-7.23-14.49c-3.19-4.2-7.44-7.31-10.83-11.32-.22-.27-.61.12-.38.38Z"/></g><g class="cls-4"><path class="cls-5" d="M230.57,241.81c8.46,5.57,16.88,11.31,22.77,19.72.2.29.67,0,.47-.27-5.95-8.5-14.42-14.29-23-19.92-.3-.2-.57.27-.28.47Z"/></g><g class="cls-4"><path class="cls-5" d="M237.94,235.32c7.7,4.28,15.41,8.73,20.84,15.87.21.27.68,0,.47-.28-5.49-7.22-13.23-11.72-21-16.06-.31-.17-.59.3-.28.47Z"/></g><g class="cls-4"><path class="cls-5" d="M243.63,228.6c6.37,4.26,13.46,7.38,19.24,12.51.26.24.64-.15.38-.38-5.8-5.16-12.94-8.31-19.35-12.6-.29-.2-.57.27-.27.47Z"/></g><g class="cls-4"><path class="cls-5" d="M248.69,223.93c4.65,4.79,11.44,5.66,17.1,8.78.3.17.58-.3.27-.47-5.61-3.09-12.38-4-17-8.7-.25-.25-.63.14-.39.39Z"/></g><g class="cls-4"><path class="cls-5" d="M255.08,217.2c3.59,3.6,8.25,5.48,12.92,7.25.33.13.47-.4.15-.52-4.6-1.75-9.15-3.58-12.68-7.11-.25-.25-.64.13-.39.38Z"/></g><g class="cls-4"><path class="cls-5" d="M256.94,209.7c4,2.73,8.16,5.34,13.16,5.52.35,0,.35-.53,0-.55-4.9-.17-9-2.78-12.89-5.45-.29-.19-.56.28-.27.48Z"/></g><g class="cls-4"><path class="cls-5" d="M257.68,203.37A44,44,0,0,0,271,209c.35.08.49-.44.15-.52A43.6,43.6,0,0,1,258,202.9c-.3-.19-.57.28-.28.47Z"/></g><g class="cls-4"><path class="cls-5" d="M261.46,198.39a38.23,38.23,0,0,0,10.11,3.28c.35.06.49-.46.15-.53a37.24,37.24,0,0,1-10-3.23c-.32-.15-.6.32-.28.48Z"/></g><g class="cls-4"><path class="cls-5" d="M263.42,191.29c2.94.57,5.88,1.1,8.84,1.58.34.06.49-.46.14-.52-2.95-.48-5.9-1-8.83-1.59-.35-.07-.49.46-.15.53Z"/></g><g class="cls-4"><path class="cls-5" d="M266.54,184.74a11.81,11.81,0,0,0,4.66-.23.28.28,0,0,0-.15-.53,10.87,10.87,0,0,1-4.36.23c-.35-.05-.5.48-.15.53Z"/></g><g class="cls-4"><path class="cls-5" d="M269.67,176.53a10.35,10.35,0,0,1-3.23.36c-.35,0-.35.53,0,.54a10.91,10.91,0,0,0,3.37-.37.27.27,0,0,0-.14-.53Z"/></g><g class="cls-4"><path class="cls-5" d="M23.3,13.46c2.53.11,5.7,1.72,7.6-.76.22-.28-.26-.55-.47-.28-1.69,2.21-4.89.6-7.13.49-.35,0-.35.53,0,.55Z"/></g><g class="cls-4"><path class="cls-5" d="M22.66,18.13a.28.28,0,0,0,0-.55.28.28,0,0,0,0,.55Z"/></g></g><path class="cls-6" d="M263,160.23a67.15,67.15,0,0,0-11.88-17.09c-2.09-2.16-4.49-4.53-7-6.76a8.19,8.19,0,0,0-1.07-.53,34.27,34.27,0,0,1,1.29,6.48,42.62,42.62,0,0,1-3.42,22.34c-6.81,15.76-19.3,25.72-35.48,29.94a41.71,41.71,0,0,0-3-3.1,39.45,39.45,0,0,0-2.72-3.19,112.23,112.23,0,0,0-8.9-8.82,132.84,132.84,0,0,0-17.31-12.91c-1-.64-2.12-1.31-3.24-2a23.41,23.41,0,0,0-3.71-2.18c-4-3.17-9.66-5.14-13.78-6.62-8.94-3.18-18.31-4.63-27.67-5.92s-18.15-1.55-25.36-8.55a49.45,49.45,0,0,1-10-13.41c-.47-1.44-.92-2.9-1.31-4.39-.07-.37-.16-.72-.22-1.09-.73-4.4,0-9.38-.66-13.86a19,19,0,0,1,1.56-4.18c2.48-4.83-4.84-8-6.92-2.92A32,32,0,0,0,80.78,106a11.08,11.08,0,0,0-1.46,1.18c0-.53-.09-1.06-.12-1.59a5.58,5.58,0,0,0-5.8-5.35,5.82,5.82,0,0,0-1.89.41,5.79,5.79,0,0,0-4.37.48,5.86,5.86,0,0,0-7.51-.86c-2.17-1.65-5.45-1.75-7.16.74a5,5,0,0,0-2.24-1.59,50.63,50.63,0,0,0-1.59-8.44c-1.2-4-6.56-3.75-7.9-.36A4.41,4.41,0,0,0,35,93h0c-.37,1-.68,2-1,2.93a2.7,2.7,0,0,0-3.09-.19l-.11.08A18.76,18.76,0,0,0,30.25,90c-.48-1.62,6.68-8.77,5.12-7.62C25.14,90,24.14,85.5,24.8,122.83c.26,15.6,4.3,31.72,9.67,45.42,4.49,11.43,9.15,23,14.58,34.06A24.16,24.16,0,0,0,38.51,207a38.2,38.2,0,0,0-12.83,16.89c-6,15.08-2.77,31.58,3.26,46.08,5.82,14,13.35,26.66,27.52,33.45a50.89,50.89,0,0,0,17.76,4.5,12.31,12.31,0,0,1,.3,3.63,18.94,18.94,0,0,1-1.74,6.31,8.74,8.74,0,0,0-2.06,1.22c-2.73-3.84-9.45-4-12.95-.55-3.35-2.88-9.58-2-12.79.89a17,17,0,0,0-4.61,7.91,21.36,21.36,0,0,0,0,3.2c.25,1.06.53,2.12.87,3.15v.05a7.23,7.23,0,0,0,4.9,3.6c14.18.14,28.37.63,42.52-.18,3.33-.19,6.66-.27,10-.32a15,15,0,0,0,7.56-6.18c.76-2.08,1.4-4.19,2-6.1,2.12-6.42,3.85-13,7.2-18.89,1.59-2.8,3.57-5.5,5-8.36,4.11,1,8.88.93,12,1,6.17.2,12.65.69,19,.4a44.87,44.87,0,0,0,18.65,9v.24c1.91.59,1.79,2.75,1,4.65a9.11,9.11,0,0,1-.38,1.15c-.39.94-1.38,2.29-2.4,2.48v.13a10.08,10.08,0,0,0-2.89.45,13.33,13.33,0,0,0-5.26,3.23,12.68,12.68,0,0,0-9.46-3.54c-6.43.43-9.91,6.09-11,11.9a21.79,21.79,0,0,0-.5,4.62,10.13,10.13,0,0,0,1.42,2.28h0a12.91,12.91,0,0,0,2.91,1.55c8.92,0,17.83.28,26.74.55a19.28,19.28,0,0,1,7.26-.21c.73.13,1.45.28,2.17.45,2.52.05,5,.08,7.56.07a40.22,40.22,0,0,1,5-1.68l.21-.24.36.12q.63-.09,1.26-.12c4.09-.11,7.38,1.9,11.66.56a12.69,12.69,0,0,0,2.81-1.27c.33-.57.66-1.14,1-1.71,1.56-4.45,1.82-10,2.22-14.32.19-2,.28-4.34.41-6.78a.85.85,0,0,1-.08-.35c-.16-4,1.39-8,1-12a21.31,21.31,0,0,0-1.65-2.85,32.17,32.17,0,0,1-4.3-2.73,28.17,28.17,0,0,1-2.79-1.67c8.74-1.92,17.56-7.71,24.32-11.87a87.48,87.48,0,0,0,17.94-14.6,99.11,99.11,0,0,0,6.7-9.2c1.85-2.89,3.69-5.83,5.43-8.82.95-2.21,2-4.4,3-6.57a131.93,131.93,0,0,0,8.6-37.27C271.45,189.46,269.63,173.73,263,160.23Zm-149.19,6.89c-.67,1.88-1.31,3.77-1.94,5.66a50.3,50.3,0,0,0-4,5.09l-3.17-5.67a5.15,5.15,0,0,0-3.24-2.6l-.73-1.19a5.68,5.68,0,0,0-.22-.7c-.41-1.06-.84-2.12-1.28-3.17a12.5,12.5,0,0,0,7.29,1.51,5.8,5.8,0,0,0,5.34-5c1.55.36,3.1.7,4.66,1A17,17,0,0,0,113.83,167.12Z"/></g><g id="body_lineart" data-name="body lineart"><polygon class="cls-5" points="60.17 112.95 60.17 112.94 60.17 112.95 60.17 112.95"/><path class="cls-5" d="M59.65,113.29l-.35.35h0l.35-.35Z"/><path class="cls-7" d="M58.61,114a4.21,4.21,0,0,1,3.78,1.64,11.46,11.46,0,0,1,2.41,3.07,18.15,18.15,0,0,1,1.9,8.82c0,5.55-1.59,11-3.38,16.19-3,8.84-6.52,17.49-8.83,26.56-4,15.8-5.55,34.33.8,49.7.06.12.25.07.21-.06-6.48-21.27-3.06-43.09,4.12-63.69,3.5-10,17.06-39.41-1.61-43.39a.25.25,0,0,0-.28.36c.35.71.13.5.86.83,0,0,0,0,0,0Z"/><path class="cls-7" d="M89.33,114.48c-3.77.73-.61,11.32,0,13.06,2.87,8.82,8.43,17.11,14.43,24.09.25.3.64-.12.42-.41L104,151c-.2-.25-.63.08-.45.35a192.67,192.67,0,0,1-10.9-17.66c-1.85-3.56-7.41-15.25-3.23-19.1.05,0,0-.1,0-.09Z"/><path class="cls-5" d="M152.34,299.73s0,0,0,0Z"/><path class="cls-7" d="M152.1,218.48c-5.95-4.27-13.49-.56-17.18,4.92-5.34,7.91-5.84,19.17-5.34,28.37,1,18.23,8.4,35.43,22.11,47.66.66.59,1.64-.37,1-1a65.79,65.79,0,0,1-20.58-37.63,71.33,71.33,0,0,1-.19-24.56c1.71-9.41,7.93-22.28,19.72-16.95a.48.48,0,0,0,.48-.83Z"/><path class="cls-7" d="M123.25,296.77c-8-1.2-15.44-4-22.72-7.38a40.77,40.77,0,0,1-18.09-15.45.18.18,0,0,0-.3.18c4.39,7.31,9.52,11.78,17.22,15.48,7.16,3.45,15.77,7.64,23.86,7.34.09,0,.12-.15,0-.17Z"/><path class="cls-7" d="M203,292.35c-3.65-1.87-5.57-6.45-6.9-10.23a18.51,18.51,0,0,1,2.36-16.58c3-4.5,6.86-7,11.25-9.86s8.68-6,12.89-9.12c.37-.27,0-.9-.36-.62-6,4.44-12.37,8.43-18.48,12.76a24.29,24.29,0,0,0-8.44,11.35,18.82,18.82,0,0,0,.68,13.78c1.65,3.83,2.79,7.37,6.83,8.94.24.09.4-.3.17-.42Z"/><path class="cls-7" d="M261.66,160.08c6.78,13.36,3.51,27.54-2.29,40.59-5.32,12-11.62,23.29-19.91,33.46a.12.12,0,0,0,.17.16c9.93-9.93,16.48-23.68,21.75-36.55,4.87-11.92,7.61-26.15.46-37.77a.11.11,0,0,0-.18.11Z"/><path class="cls-7" d="M148.81,217.45c-3-2.48-6.26-4.54-9.22-7a115.9,115.9,0,0,1-8.34-8.1c-.22-.23-.53.1-.34.33,4.7,5.65,11.09,11.76,17.82,14.92.06,0,.14-.05.08-.1Z"/><path class="cls-7" d="M121.92,184.25c-.09,4.07,1.91,8.68,4.09,12,.06.1.19,0,.15-.08a55.87,55.87,0,0,1-2.63-6.23c-.62-1.88-.9-3.87-1.54-5.74,0,0-.07,0-.07,0Z"/><path class="cls-5" d="M59.22,318.35c-4.48,3.79-5.68,11.22-3.9,16.58a.15.15,0,0,0,.28-.08c-1-6.43.62-10.9,3.76-16.39a.09.09,0,0,0-.14-.11Z"/><path class="cls-5" d="M73.24,318.3c-2.08.11-3,2.4-3.68,4.09-1.18,3.06-.87,5.74.15,8.81a.14.14,0,0,0,.27-.07c-.79-4.59-.89-9.67,3.3-12.68a.08.08,0,0,0,0-.15Z"/><path class="cls-7" d="M73.65,318.47c4-.13,9.57.35,11.47,4.59.16.35.63.08.57-.24-.74-4.49-8.58-5.7-12.1-4.76a.21.21,0,0,0,.06.41Z"/><path class="cls-5" d="M161.46,319.84c-3,3.11-5.24,8.71-3,12.76a.17.17,0,0,0,.3-.13,10.81,10.81,0,0,1,.26-7.25c.71-1.85,1.95-3.41,2.67-5.23.06-.15-.15-.26-.26-.15Z"/><path class="cls-7" d="M185.59,318.58a9.41,9.41,0,0,0-8.58,3.73c-2,2.55-3.46,7.07-2.2,10.21a.27.27,0,0,0,.53-.14c-1.11-6.92,3.16-13,10.22-13.54.14,0,.19-.24,0-.26Z"/><g class="cls-8"><path class="cls-5" d="M123.51,148a201.5,201.5,0,0,0,27.65-19c.11-.09,0-.26-.14-.18-9.29,6.09-18.57,12.55-27.58,19.06a.06.06,0,0,0,.07.1Z"/></g><g class="cls-8"><path class="cls-5" d="M137.6,141.94a81,81,0,0,1,42.33.83.35.35,0,0,0,.18-.67,75,75,0,0,0-42.55-.29c-.08,0-.05.16,0,.13Z"/></g><g class="cls-8"><path class="cls-5" d="M143.3,143.45c8.47.43,15.2,4.34,20.15,11.14.21.3.71,0,.49-.28l-.46-.6a.21.21,0,0,0-.36.21c-.26-.55,0-.76-.57-1.7a14.17,14.17,0,0,0-2.46-2.67,24.3,24.3,0,0,0-5-3.57,23,23,0,0,0-11.8-2.77.12.12,0,0,0,0,.24Z"/></g><g class="cls-8"><path class="cls-5" d="M101.8,119.07c1.7,4.45,3.52,8.83,4.12,13.58.46,3.67,0,7.32,1.06,10.89a.14.14,0,0,0,.26-.07c-.76-4.21-.19-8.48-1-12.69A52.74,52.74,0,0,0,102,119a.1.1,0,0,0-.18.08Z"/></g></g><g id="top_of_body" data-name="top of body"><path class="cls-2" d="M122,176.14c0-.15,0-.3,0-.44,0-5.81-.68-11.73-3.8-16.47a29.74,29.74,0,0,0-2.44-3.26,19.93,19.93,0,0,0-1.83-2,8,8,0,0,0-1.46-1c-.34-.23-.68-.45-1-.65a9.25,9.25,0,0,0-3.93-1.21,6.93,6.93,0,0,0-2.4.23l-.33.18-.42.09-.48.11a.47.47,0,0,0-.68.16c-4.27,6.67-7,14.43-9.48,21.9-2.39,7.22-5,14.59-6.38,22.12a37.2,37.2,0,0,0-.91,5,28.55,28.55,0,0,0-.63,3.52c-.57,3.7-.81,7.53-1,11.27-.12,1.91-.17,3.83-.19,5.74.11.65.19,1.31.26,2a2.62,2.62,0,0,1,0,.28c.22,1.42.47,2.84.7,4.27.19.83.38,1.66.58,2.49s.52,1.4.8,2.09a35,35,0,0,0,3.33,6.26,24.94,24.94,0,0,1,.28-5.52,44.77,44.77,0,0,1,1.62-5.18c1.06,2.16,3.6,4.12,5.2,5.29a21.33,21.33,0,0,0,8.25,3.65,14.78,14.78,0,0,1-2.9-3.81c-1.64-3.11-2.25-7-.85-10.22,0-.11,0-.21,0-.32,2.28-7.2,9.88-11.29,14.12-17.27,4.36-6.14,5.5-13.11,5.83-20.4A45.77,45.77,0,0,0,122,176.14Z"/><path class="cls-6" d="M121.65,176.41c0-.14,0-.29,0-.44,0-5.8-.68-11.73-3.8-16.47a29.74,29.74,0,0,0-2.44-3.26,18.76,18.76,0,0,0-1.83-2,8,8,0,0,0-1.46-1.06c-.34-.23-.68-.45-1-.65a9.25,9.25,0,0,0-3.93-1.21,6.93,6.93,0,0,0-2.4.23l-.33.19-.42.08c-.16,0-.32.07-.48.12a.46.46,0,0,0-.68.15c-4.27,6.67-7,14.44-9.48,21.91-2.39,7.21-5,14.59-6.38,22.11a37.49,37.49,0,0,0-.91,5,28.88,28.88,0,0,0-.63,3.52c-.57,3.7-.81,7.53-1.05,11.27-.12,1.92-.17,3.83-.18,5.75.1.65.18,1.3.25,2a2.61,2.61,0,0,1,0,.28c.22,1.42.47,2.84.7,4.27.19.83.38,1.66.58,2.49s.52,1.41.8,2.09A34.63,34.63,0,0,0,89.83,239a24.94,24.94,0,0,1,.28-5.52,44.77,44.77,0,0,1,1.62-5.18c1.06,2.16,3.6,4.12,5.2,5.3a21.16,21.16,0,0,0,8.25,3.64,14.78,14.78,0,0,1-2.9-3.81c-1.64-3.11-2.25-7-.85-10.22,0-.11,0-.21,0-.31,2.28-7.21,9.88-11.3,14.12-17.27,4.36-6.14,5.5-13.12,5.83-20.41A45.72,45.72,0,0,0,121.65,176.41Z"/><path class="cls-2" d="M41,185.21c-1.36-3.38-2.63-6.74-3.75-10.14-.39-.8-.8-1.6-1.22-2.38-7.1,8.42-14.58,17.6-17.48,28.4a98.18,98.18,0,0,0-2.61,16.17c0,.32,0,.63-.06,1,.07,1.76.15,3.51.25,5.27a44.49,44.49,0,0,0,2.35,8.76,21.16,21.16,0,0,1,4.78-12.81c2,5.24,6.22,9,11,11.82a.84.84,0,0,0,.2.08,27.82,27.82,0,0,1-1.78-5.89c-.63-3.4-1.46-8.05.66-11.1,1.2-2.36,3.83-4.43,6.19-5.79A19.57,19.57,0,0,0,45,201.23a14.82,14.82,0,0,0,.53-4.55C44,192.87,42.52,189,41,185.21Z"/><path class="cls-6" d="M41,185.21c-1.36-3.38-2.63-6.74-3.75-10.14-.39-.8-.8-1.6-1.22-2.38-7.1,8.42-14.58,17.6-17.48,28.4a98.18,98.18,0,0,0-2.61,16.17c0,.32,0,.63-.06,1,.07,1.76.15,3.51.25,5.27a44.49,44.49,0,0,0,2.35,8.76,21.16,21.16,0,0,1,4.78-12.81c2,5.24,6.22,9,11,11.82a.84.84,0,0,0,.2.08,27.82,27.82,0,0,1-1.78-5.89c-.63-3.4-1.46-8.05.66-11.1,1.2-2.36,3.83-4.43,6.19-5.79A19.57,19.57,0,0,0,45,201.23a14.82,14.82,0,0,0,.53-4.55C44,192.87,42.52,189,41,185.21Z"/><path class="cls-3" d="M74.73,318.34c-1.48,0-3.13,0-4.2,1a5.38,5.38,0,0,0-1.26,2.73c-1.11,4.83-1.23,10.05.71,14.61a22.44,22.44,0,0,0,5.22-17.16Z"/><path class="cls-7" d="M74.73,317.85c-4,0-5.43,1.46-6.19,5.34a24.45,24.45,0,0,0,1,13.66c.12.31.57.54.83.22,3.92-4.8,7.27-12.67,4.88-18.86-.23-.59-1.19-.33-1,.26,2.26,5.85-.93,13.38-4.62,17.9l.83.22c-1.82-4.75-3.73-17.7,4.27-17.75A.5.5,0,0,0,74.73,317.85Z"/><path class="cls-3" d="M160.65,319.85a20.16,20.16,0,0,0-2.06,19.64,23.44,23.44,0,0,0,9.88-15.28,2.22,2.22,0,0,0-.08-1.35,2.24,2.24,0,0,0-1.09-.84l-5.55-2.7Z"/><path class="cls-7" d="M160.22,319.6a21.08,21.08,0,0,0-2.11,20,.5.5,0,0,0,.73.29c4.78-3.41,9.85-9.49,10.12-15.71.09-2.09-1-2.4-2.8-3.3-2.19-1.08-3.55-2.55-5.76-1.49-.57.27-.07,1.13.5.85,1.29-.61,2.13.23,3.37.83,2.75,1.31,3.69,2,3.16,5.41-.56,3.55-3.38,7.4-5.84,9.86a18.23,18.23,0,0,1-1.37,1.27c-1.27,1.08-1.94.9-2-.56-1-1.18-.81-4.31-.78-5.86a20.23,20.23,0,0,1,3.64-11.12C161.44,319.57,160.58,319.07,160.22,319.6Z"/><path class="cls-3" d="M144.73,318.67c-3.06,3.65-6.25,7.58-6.91,12.31a17.58,17.58,0,0,0,1.53,9.17,38.27,38.27,0,0,1,1.65-6c.94-2.4,2.36-4.59,3.41-6.95a11.54,11.54,0,0,0,1.06-7.51Z"/><path class="cls-7" d="M144.38,318.32c-5.69,6.83-8.94,13.15-5.51,22,.17.42.85.53,1,0,1.18-5.38,4.13-9.67,5.75-14.81.75-2.38,1.13-5-.42-7.05-.38-.51-1.24,0-.86.5,2.56,3.4-.44,8.31-2.06,11.45a38.13,38.13,0,0,0-3.37,9.65h1c-3.3-8.45-.17-14.49,5.25-21C145.48,318.53,144.79,317.83,144.38,318.32Z"/><path class="cls-3" d="M49.62,316.56c-1.86-.58-3.86-1.16-5.71-.58a8.43,8.43,0,0,0-3.12,2.08c-2.33,2.18-4.51,5.09-4.07,8.26a11.55,11.55,0,0,0,.93,2.9l2.88,6.83q3.9-9.63,8.74-18.84Z"/><path class="cls-7" d="M49.75,316.08c-5.37-1.58-9.15.17-12.14,5-3.18,5.12.38,10.22,2.44,15.13a.5.5,0,0,0,1,0q4.05-9.92,9-19.38c.3-.57-.55-1.07-.85-.5q-5.05,9.57-9.14,19.61h1c-1.35-3.19-3.59-6.76-3.64-10.27,0-2.64,1.12-4.51,2.91-6.39,2.62-2.75,5.4-3.35,9.2-2.22A.5.5,0,0,0,49.75,316.08Z"/><path class="cls-3" d="M179.36,320.36c-3.25,2.05-6.24,4.51-7.79,7.72a10,10,0,0,0,1.11,10.58c2.66-2.33,5.36-4.69,7-7.65a10.28,10.28,0,0,0,.38-10Z"/><path class="cls-7" d="M179.11,319.93c-6.59,4.28-12.14,11.32-6.86,19a.51.51,0,0,0,.78.1c3.33-2.92,7-6.06,8.23-10.48.78-2.78.67-6.45-1.55-8.53-.47-.43-1.17.27-.71.71,2.7,2.51,1.86,7.14.27,10.05-.6,1.11-4.38,6.63-6.05,6.77-3.64.3-1.54-8.72-.71-10.14,1.66-2.84,4.39-4.85,7.1-6.61C180.14,320.44,179.64,319.58,179.11,319.93Z"/><path class="cls-3" d="M62.65,318.37a54.46,54.46,0,0,0-6.26.1,3.11,3.11,0,0,0-1.56.41A3,3,0,0,0,54,320a18.9,18.9,0,0,0-2,7.27,8.91,8.91,0,0,0,.34,3.49c.67,1.92,2.3,3.33,3.85,4.65a73.62,73.62,0,0,1,6.38-17.17Z"/><path class="cls-7" d="M62.65,317.87c-2.18-.06-6.08-.71-8,.56-1.33.87-2,3.07-2.39,4.49-1.65,5.37-.71,9.24,3.53,12.88a.51.51,0,0,0,.83-.22c.43-1.77,5.81-16.77,5.79-16.79.54.35,1-.51.5-.85l-.13-.09a.5.5,0,0,0-.68.18,79,79,0,0,0-6.44,17.28l.83-.21c-1.17-1-2.72-2.18-3.36-3.63-1.08-2.44-.74-5.28,0-7.76.63-2.32,1.43-4.2,3.94-4.78a23.64,23.64,0,0,1,5.64-.07A.5.5,0,0,0,62.65,317.87Z"/></g><g id="behind_face" data-name="behind face"><path class="cls-9" d="M80.62,45.1c-3.14-6.43-4-14.48-4.88-21.56-.8-6.79.18-13.21.54-20v0c-2.69,4.21-5.7,8.46-8.14,13-1,2.17-1.88,4.36-2.69,6.58-.07.27-.15.54-.22.81-1.89,7.56-3,15.49-1.18,23.18v.14a.76.76,0,0,0,1,.66c1,1.27,3.16,1.22,4.64,1.13,3.46-.19,6.75-1.51,10-2.75A.83.83,0,0,0,80.62,45.1Z"/></g><g id="face"><path class="cls-2" d="M160.77,85.85c-.57-4.75-.6-9.55-1.78-14.21a35.27,35.27,0,0,0-3.4-8.94c-.8-1.94-2-3.77-3.78-4.41-2.47-1.62-6.88-1.75-9.19-2-5.78-.68-12.07-1.64-17.9-.8-1.6-3.82-3.77-7.92-8-9.39-2.3-.79-4.45-.37-6.76.15a46.84,46.84,0,0,0-5.17,1.09l-2,.18C100.1,45.66,97.3,44,94,43.62c-2.76-.3-6.39,0-8.78,1.58l-.53.16h0a24.69,24.69,0,0,0-5.7,0c-1.79.09-3.59.21-5.38.33-2,0-4.07.06-6.08.19-1,.13-1.95.24-2.94.35-2.26.25-4.34.82-6.48.25,0,0,0,0,0,.07l-.27.59a2.41,2.41,0,0,1-.32.52c-.61,1.18-1.26,2.34-1.91,3.5-.54,1-1.09,2-1.66,3-.14.23-.29.45-.42.69-1,1.8-2.07,3.62-3,5.47l-.05.12a8.74,8.74,0,0,1-1.25,1.91,1.29,1.29,0,0,1-.19.21c-.1.1-.18.2-.28.29-1.09,2.18-2.18,4.37-3.17,6.59l-.77,2.2c-1.33,3.84-2.69,7.69-2.86,11.78a33.84,33.84,0,0,0,.49,7.08.66.66,0,0,0,0,.14,19,19,0,0,0,.85,3.59,33.12,33.12,0,0,0,5.87,11.43,28.74,28.74,0,0,0,19.1,10.58,44.68,44.68,0,0,0,12.7-.47c3.66-.61,8.12-1.22,11.54-2.9a8.27,8.27,0,0,0,.89-.22c.43-.1.86-.22,1.28-.36,1.6-.25,3.2-.73,4.78-1a22.41,22.41,0,0,1,9.37.23c5,1.33,9.32,4.42,14,6.45a25.78,25.78,0,0,0,12.8,2.38c1.2-.13,2.45-.28,3.71-.49l.72-.12a26,26,0,0,0,8.28-2.76,4.83,4.83,0,0,0,1.3-.75c3.66-1.7,3.59-6.06,4.29-9.48.46-2.26,2-4,2.6-6.13a4.25,4.25,0,0,0,.16-1.57,4.44,4.44,0,0,0,4.92-3.15C162.39,93,161.76,89.12,160.77,85.85Z"/><path class="cls-6" d="M157.9,86c-.54-4.74-.57-9.55-1.72-14.21a36.06,36.06,0,0,0-3.29-8.94c-.77-1.94-1.93-3.77-3.66-4.41-2.39-1.62-6.66-1.74-8.89-2-5.61-.68-11.69-1.64-17.34-.81-1.55-3.82-3.65-7.91-7.75-9.38-2.23-.8-4.31-.37-6.55.14a49.13,49.13,0,0,0-5,1.09l-1.92.18c-2.61-1.84-5.32-3.51-8.56-3.87-2.67-.3-6.19,0-8.51,1.58a3.4,3.4,0,0,0-.51.16h0a23.07,23.07,0,0,0-5.51,0c-1.74.09-3.48.21-5.21.33-2,0-4,.06-5.89.2l-2.84.35c-2.2.24-4.21.81-6.28.24,0,0,0,0,0,.08l-.27.58a2.36,2.36,0,0,1-.3.52c-.6,1.18-1.22,2.35-1.85,3.5-.53,1-1.06,2-1.61,3-.13.23-.28.46-.41.69-1,1.81-2,3.62-2.92,5.48a1.17,1.17,0,0,1-.05.11,8.36,8.36,0,0,1-1.21,1.91,1.3,1.3,0,0,1-.19.22c-.09.09-.16.2-.26.29-1.06,2.18-2.12,4.36-3.07,6.59q-.39,1.11-.75,2.19c-1.29,3.84-2.6,7.7-2.76,11.78a33.73,33.73,0,0,0,.47,7.08.61.61,0,0,0,0,.14,18.55,18.55,0,0,0,.82,3.59,33.15,33.15,0,0,0,5.69,11.43,27.5,27.5,0,0,0,18.49,10.58,41.61,41.61,0,0,0,12.3-.46c3.54-.61,7.85-1.22,11.16-2.9.32-.06.65-.17.87-.22.42-.11.83-.23,1.24-.37,1.55-.25,3.09-.72,4.63-1a21,21,0,0,1,9.07.22c4.8,1.33,9,4.42,13.53,6.46a24.37,24.37,0,0,0,12.39,2.37c1.17-.12,2.38-.28,3.61-.49.23,0,.46-.07.68-.12a24.59,24.59,0,0,0,8-2.75,4.71,4.71,0,0,0,1.27-.76c3.54-1.7,3.47-6.06,4.15-9.47.44-2.27,1.94-4,2.51-6.14a4.45,4.45,0,0,0,.16-1.57A4.28,4.28,0,0,0,158.6,96C159.47,93.18,158.86,89.3,157.9,86Z"/></g><g id="highlights"><g class="cls-10"><path class="cls-3" d="M137.57,68.9a16.67,16.67,0,0,1,4.78-.25c.44.08,1.22.67,1.2.34a5.07,5.07,0,0,0,5,5,5,5,0,0,0,5-5,10.41,10.41,0,0,0-5.4-8.72c-3.24-1.8-6.95-1.73-10.5-1.29-2.66.33-5,2.05-5,5,0,2.43,2.28,5.29,5,5Z"/></g><g class="cls-10"><path class="cls-3" d="M90.15,53a16.77,16.77,0,0,1,6.42,2.22c3.57,2.29,6.86-3.39,3.31-5.67a21.23,21.23,0,0,0-8-2.89,3.38,3.38,0,0,0-4,2.3c-.43,1.57.53,3.75,2.29,4Z"/></g><g class="cls-10"><path class="cls-3" d="M140.46,116.63l3.4-1a5,5,0,0,0-2.64-9.57l-3.4,1a5,5,0,1,0,2.64,9.56Z"/></g><g class="cls-10"><path class="cls-3" d="M112.68,171.52a37.22,37.22,0,0,1-6.16,17.73c-1.75,2.68,2.54,5.17,4.29,2.51a42.44,42.44,0,0,0,6.83-20.24c.25-3.18-4.71-3.17-5,0Z"/></g><g class="cls-10"><path class="cls-3" d="M131.39,159.94c19.19,3.38,40.22,8.95,50.61,27.07,1.58,2.77,5.87.28,4.28-2.5-11.05-19.29-33-25.74-53.57-29.35-3.13-.55-4.47,4.23-1.32,4.78Z"/></g><g class="cls-10"><path class="cls-3" d="M249.38,161.62a20.94,20.94,0,0,1,.92,3.08c0,.25.09.49.14.73-.05-.42-.05-.45,0-.09.05.58.09,1.15.1,1.73a5,5,0,0,0,9.93,0A24.7,24.7,0,0,0,259,159c-.92-2.42-3.39-4.35-6.11-3.47-2.36.77-4.44,3.5-3.46,6.1Z"/></g><g class="cls-10"><path class="cls-3" d="M142.74,222.28c-6,5.91-7.9,15.76-7.37,23.83.2,3.17,5.16,3.2,5,0-.44-6.77.87-15.31,5.92-20.32,2.27-2.25-1.24-5.76-3.51-3.51Z"/></g><g class="cls-10"><path class="cls-3" d="M189,329.08c6.39,0,6.4-9.93,0-9.93s-6.39,9.93,0,9.93Z"/></g><g class="cls-10"><path class="cls-3" d="M182,263.65c-3.76,10-.73,21.08,3,30.59,1.74,4.4,8.94,2.48,7.18-2-3.28-8.33-6.32-17.88-3-26.63,1.7-4.49-5.49-6.43-7.18-2Z"/></g></g><g id="top_of_face" data-name="top of face"><g id="face_lineart" data-name="face lineart"><path class="cls-7" d="M85.6,77.24c-1.24,4.87-.42,9.52,4.9,11.15,4,1.23,8.5.34,12.63,1.2a33.73,33.73,0,0,1,13.46,6.57c4.48,3.35,10.28,7.74,16.07,4.62,5.3-2.86,8.23-9.67,15.35-4.61,1.82,1.29,2.78,2.77,5.12,3,.35,0,.39-.5.08-.6-4.85-1.52-6.32-6.48-12.09-4.81-2.37.69-4,2.2-5.86,3.74-4.64,3.89-8.88,4.21-14,1-5.53-3.41-9.76-7.62-16.23-9.35a36.82,36.82,0,0,0-8.36-1.06c-2.63-.08-5.18.09-7.51-1.38-3.59-2.28-3.54-5.65-3-9.4,0-.32-.41-.47-.49-.14Z"/><path class="cls-7" d="M100.47,47.31l0,0s-.11,0-.14,0l0,.1a.23.23,0,0,0,0,.26c4.66,3.89,10.45,8.37,16.71,8.94a.27.27,0,0,0,.08-.52A29.9,29.9,0,0,1,107.42,52c-.7-.46-7-4.35-6.93-4.68a0,0,0,0,0,0,0Z"/><path class="cls-7" d="M82.24,55.6a6,6,0,0,0-1.85,5.32c0,.13.2.08.22,0a10.36,10.36,0,0,1,.62-2.64c.35-.86.89-1.61,1.25-2.46a.15.15,0,0,0-.24-.19Z"/><path class="cls-7" d="M82.63,63.37,82.4,63c-.09-.15-.32,0-.24.14C83.75,66,87.49,67.43,90.63,67c.15,0,.11-.26,0-.26a11.23,11.23,0,0,1-4.74-1,9.22,9.22,0,0,1-2-1.34,9.58,9.58,0,0,1-.73-.69c-.14-.39-.3-.47-.49-.26,0,0,0,0,0,0Z"/></g><path class="cls-11" d="M107.87,82.31a10.54,10.54,0,0,1,1.1-4.49.66.66,0,0,0-.67-.26c-2.57.58-4.83,3.31-5.7,5.69S101,89.89,102.42,92s4.16,1.13,5.11-.76C108.9,88.54,107.42,85.21,107.87,82.31Z"/><path class="cls-11" d="M111.36,86.42a3,3,0,0,0-1.37,1h0a4.33,4.33,0,0,0-.93,1.18,5.64,5.64,0,0,0-1.21,4.24,3.21,3.21,0,0,0,.72,1.9c.55.52,1.38.46,2.05.72a1.1,1.1,0,0,0,1.33-.76,21.65,21.65,0,0,0,.34-3.41,33.86,33.86,0,0,1,.6-4A.93.93,0,0,0,111.36,86.42Z"/><path class="cls-11" d="M131,103.58a1.36,1.36,0,0,1,0-.17c0-.14,0-.29,0-.43a10.08,10.08,0,0,0-.64-2.76,1.21,1.21,0,0,0-.57-.64c-.64.15-1.36.32-2,.5l-.74.34a.5.5,0,0,0-.14.1.72.72,0,0,0-.61.63,3.77,3.77,0,0,0,.19,1.46,1.05,1.05,0,0,1,.14.34s0,0,0,.06a12.92,12.92,0,0,0,2.75,3.59,18.59,18.59,0,0,0,1.64.91l0,0A36.46,36.46,0,0,1,131,103.58Z"/><path class="cls-11" d="M135,98.39a.5.5,0,0,0-.15-.17q-1.71.41-3.42.9a.77.77,0,0,0-.31.82,7.85,7.85,0,0,0,3,4.06.73.73,0,0,0,.52.13A20.54,20.54,0,0,1,135,98.39Z"/><path class="cls-11" d="M148.81,96.22h-.1l-.09,0a20.24,20.24,0,0,1,.19,3.55c0,.91.05,1.82.06,2.72a.85.85,0,0,0,.19-.19,11.57,11.57,0,0,0,1.82-3.39,2.22,2.22,0,0,0-.55-2.18C149.82,96.58,149.31,96.41,148.81,96.22Z"/><path class="cls-11" d="M154.28,100.51a3.6,3.6,0,0,0,0-.93c-.6-.46-1.23-.92-1.88-1.36a.86.86,0,0,1-.42-.15,45.27,45.27,0,0,1,.34,5.89A16.5,16.5,0,0,0,154.28,100.51Z"/><path class="cls-7" d="M99.94,66.19c-2.24-4.41-4.87-9.61-9.68-11.65-3-1.25-7.39-1.14-8.93,2,0,.42.08.84.13,1.26l0,0a.41.41,0,0,0,0,.11c0,.3.08.59.13.88a25.82,25.82,0,0,0,.8,2.75,19.36,19.36,0,0,0,2.77,4.26,8.7,8.7,0,0,0,1,.71c3,2,6.33,1.31,9.68,1.36a3.05,3.05,0,0,1,.54-.08,30,30,0,0,0,3.67-.5A1.34,1.34,0,0,0,99.94,66.19Z"/><path class="cls-7" d="M129,66.83c.55.55,1.72.55,2.46.75a10.24,10.24,0,0,1,2.72,1.11.6.6,0,0,0,.13.09,6.87,6.87,0,0,0-1-3.08,3,3,0,0,0-2.06-1.35,10.27,10.27,0,0,0-1.76-.27.75.75,0,0,0-.34.34,3.56,3.56,0,0,0-.4,2.22A2,2,0,0,1,129,66.83Z"/><path class="cls-7" d="M151.27,65.83c-.93-1.42-2.59-1.19-3.21.47,0,.08-.07.14-.1.21a16.49,16.49,0,0,0,0,1.86,7,7,0,0,0,.1.8,11.86,11.86,0,0,1,3.55-2.63A4.3,4.3,0,0,0,151.27,65.83Z"/><path class="cls-9" d="M61.49,46.76c-9.32-3.65-18.72-7.35-24.48-16s-5.67-18.29-3-28h0A3.81,3.81,0,0,1,34.23,2h0v0L34,2.06a2.51,2.51,0,0,1-.6.24l0,0c-5,2.29-8.25,6.83-10.26,12.11a31.86,31.86,0,0,0-1.58,4.44,33.67,33.67,0,0,0-1,4.35,33.59,33.59,0,0,0-.42,5.65,39.12,39.12,0,0,0,.35,7.65A38.16,38.16,0,0,0,25,51.19c3.14,6.29,8,12.78,14,15,.29.17.56.36.85.52a.38.38,0,0,0,.34.25c8.58.41,18.38-10.11,20.79-16.7C61.28,49.62,62.33,47.09,61.49,46.76Z"/><path class="cls-12" d="M57.43,112.36c-8.18-6.07-9.82-16.38-4.87-25.14.12-.3.25-.59.38-.87a.64.64,0,0,0,0-.24,1.25,1.25,0,0,0,.16-1.21c-3.82-6.61-5.3-14.3-3.21-21.66l-.07,0c-7.11,2.49-16.4.55-23.3-1.12-6.33-1.53-13.66-3.91-19.25-8C6.1,53.3,5,52.46,3.8,51.71a23.85,23.85,0,0,1,3.05,14.6A25.8,25.8,0,0,1,1.7,78.89c4,.89,8.53,4.79,10,7.16,3.17,5.16,3.52,10.67,2.49,16.11a25.51,25.51,0,0,1,3.53.25,5.57,5.57,0,0,1,3,.74A10.35,10.35,0,0,1,26.28,108a15.8,15.8,0,0,1,1.83,7A47.05,47.05,0,0,1,33.5,113c.16,0,.33-.08.49-.12l.71-.17.43-.09a11.43,11.43,0,0,1,8.59,1.68,18.44,18.44,0,0,1,5.38,5.21,11.05,11.05,0,0,1,3.25-3.74,11.65,11.65,0,0,1,5.63-2.3A1.35,1.35,0,0,0,57.43,112.36Z"/><path class="cls-1" d="M57.43,112.3c-8.18-6.07-9.82-16.38-4.87-25.15.12-.29.25-.58.38-.87a.65.65,0,0,0,0-.24,1.23,1.23,0,0,0,.16-1.2c-3.82-6.62-5.3-14.31-3.21-21.67l-.07,0c-7.11,2.49-16.4.55-23.3-1.12-6.33-1.53-13.66-3.9-19.25-8C6.1,53.24,5,52.4,3.8,51.65a23.85,23.85,0,0,1,3.05,14.6A25.8,25.8,0,0,1,1.7,78.82c4,.9,8.53,4.79,10,7.17,3.17,5.16,3.52,10.67,2.49,16.11a25.52,25.52,0,0,1,3.53.24,5.68,5.68,0,0,1,3,.75A10.31,10.31,0,0,1,26.28,108a15.73,15.73,0,0,1,1.83,7,45.27,45.27,0,0,1,5.39-2.07l.49-.13.71-.17.43-.08a11.43,11.43,0,0,1,8.59,1.67,18.34,18.34,0,0,1,5.38,5.22,11.08,11.08,0,0,1,3.25-3.75,11.85,11.85,0,0,1,5.63-2.3A1.34,1.34,0,0,0,57.43,112.3Z"/><path class="cls-3" d="M93.6,58.51a1.85,1.85,0,0,0-.33-.21,2.28,2.28,0,0,0-3,1.52,1.91,1.91,0,0,0,.31,1.82c0,.06,0,.13.09.2a2.33,2.33,0,1,0,2.89-3.33Z"/></g><g id="ear"><g id="Layer_13" data-name="Layer 13"><path class="cls-2" d="M28.23,63.19c-7-1.51-16-3.67-21.57-8.6l-.23-.13.06.24c.12.38.23.77.34,1.15,5.85,6,13.2,11.09,21.5,12.84C35.1,70.12,43,70,48,65.09c0,0,.05-.06.09-.09.31-.19.62-.38.91-.59A61.81,61.81,0,0,1,28.23,63.19Z"/></g><g class="cls-8"><path class="cls-5" d="M48.5,65C41.73,70.05,35,69.45,27,67.53A44.5,44.5,0,0,1,8,57.17c-.2-.18-.49.1-.3.29A40.3,40.3,0,0,0,30.16,69c6.31,1.09,14.22,2.1,18.44-3.88a.07.07,0,0,0-.1-.1Z"/></g><g class="cls-8"><path class="cls-5" d="M47.7,65.63c-9,10.56-20.28,15-34.15,13.6-.11,0-.13.15,0,.18,12.77,3,27.16-2.61,34.4-13.61.08-.13-.11-.29-.22-.17Z"/></g><g class="cls-8"><path class="cls-5" d="M47.63,65.75C43.72,74,40.05,81.59,33.93,88.53c-.19.21.11.52.31.31,6-6.39,11.55-14.35,13.62-23,0-.13-.17-.23-.23-.1Z"/></g><g class="cls-4"><path class="cls-5" d="M22.43,14.72c2.81,1.47,5.7.41,8.36-.9.31-.15,0-.62-.28-.47-2.45,1.21-5.18,2.27-7.81.9-.31-.16-.59.31-.27.47Z"/></g><g class="cls-4"><path class="cls-5" d="M21.61,20.18a8.15,8.15,0,0,0,8.75-.4c.28-.2,0-.68-.28-.47a7.61,7.61,0,0,1-8.2.4.27.27,0,0,0-.27.47Z"/></g><g class="cls-4"><path class="cls-5" d="M20.92,27.05a14.3,14.3,0,0,0,10.57.24c.33-.12.19-.64-.15-.52a13.82,13.82,0,0,1-10.27-.25c-.33-.13-.47.4-.15.53Z"/></g><g class="cls-4"><path class="cls-5" d="M21.47,34.67a10.3,10.3,0,0,0,11.42-2.15.28.28,0,0,0-.39-.39,9.79,9.79,0,0,1-10.88,2c-.33-.14-.47.39-.15.52Z"/></g><g class="cls-4"><path class="cls-5" d="M21.7,43a11.72,11.72,0,0,0,10,0,14.72,14.72,0,0,0,6.78-5c.2-.29-.28-.57-.48-.28a13.89,13.89,0,0,1-16.17,4.81c-.33-.13-.47.4-.15.53Z"/></g><g class="cls-4"><path class="cls-5" d="M25.43,51.07A18,18,0,0,0,44.8,44.46c.22-.27-.26-.55-.47-.27a17.46,17.46,0,0,1-18.75,6.36.27.27,0,0,0-.15.52Z"/></g><g class="cls-4"><path class="cls-5" d="M34,61.86A22,22,0,0,0,50.71,47.37c.12-.34-.41-.48-.52-.15A21.5,21.5,0,0,1,33.81,61.33c-.34.07-.2.59.15.53Z"/></g><g class="cls-4"><path class="cls-5" d="M45.65,64.57a26.35,26.35,0,0,0,10-15c.08-.34-.44-.49-.53-.15a25.71,25.71,0,0,1-9.7,14.63c-.28.21,0,.69.27.48Z"/></g><g class="cls-4"><path class="cls-5" d="M69.9,13.48a3.47,3.47,0,0,0,1.94,3.93c.31.15.59-.32.27-.47a2.93,2.93,0,0,1-1.68-3.31c.08-.34-.45-.49-.53-.15Z"/></g><g class="cls-4"><path class="cls-5" d="M66.7,21.4c1.17,2.11,3.65,2.19,5.79,2.09.35,0,.36-.56,0-.54-1.93.08-4.25.11-5.32-1.82-.17-.31-.64,0-.47.27Z"/></g><g class="cls-4"><path class="cls-5" d="M64.2,26c1.2,3.54,5,4.23,8.29,4.58.35,0,.35-.5,0-.54-3-.33-6.65-.9-7.76-4.19-.11-.33-.64-.19-.53.15Z"/></g><g class="cls-4"><path class="cls-5" d="M62.46,34.19c3.4,1.86,7,3.18,10.87,2.37.35-.08.2-.6-.14-.53-3.77.79-7.19-.53-10.45-2.32-.31-.16-.59.31-.28.48Z"/></g><g class="cls-4"><path class="cls-5" d="M62.77,42.39C66.53,45,71.62,45.26,76,44.3c.34-.07.19-.6-.15-.52-4.22.93-9.14.69-12.78-1.86-.29-.2-.57.28-.28.47Z"/></g></g></g></svg>