<svg id="Layer_1" data-name="Layer 1" xmlns="http://www.w3.org/2000/svg" xmlns:xlink="http://www.w3.org/1999/xlink" viewBox="0 0 250 114.92"><defs><style>.cls-1{fill:url(#linear-gradient);}.cls-2{opacity:0.97;}.cls-3{fill:url(#linear-gradient-2);}</style><linearGradient id="linear-gradient" x1="698.23" y1="697.43" x2="698.61" y2="733.11" gradientTransform="translate(889.11 755.56) rotate(-179.39)" gradientUnits="userSpaceOnUse"><stop offset="0" stop-color="#d5011e"/><stop offset="0.06" stop-color="#c70427"/><stop offset="0.28" stop-color="#970e47"/><stop offset="0.5" stop-color="#711661"/><stop offset="0.69" stop-color="#561b73"/><stop offset="0.87" stop-color="#461f7e"/><stop offset="1" stop-color="#402082"/></linearGradient><linearGradient id="linear-gradient-2" x1="125" y1="129.96" x2="125" y2="17.54" gradientUnits="userSpaceOnUse"><stop offset="0" stop-color="#d5011e"/><stop offset="0.04" stop-color="#c80426"/><stop offset="0.19" stop-color="#9f0c42"/><stop offset="0.35" stop-color="#7d1359"/><stop offset="0.5" stop-color="#62196b"/><stop offset="0.66" stop-color="#4f1d78"/><stop offset="0.83" stop-color="#441f80"/><stop offset="1" stop-color="#402082"/></linearGradient></defs><title>logo-text</title><path class="cls-1" d="M198.18,50.72a17.13,17.13,0,0,1,5.45-12.56v0a17.16,17.16,0,0,1,12.75-5l0,0a17.15,17.15,0,0,1-12.63-5.3v0a17.15,17.15,0,0,1-5.19-12.68l0-.09a17.18,17.18,0,0,1-5.46,12.57v0a17.16,17.16,0,0,1-12.74,5l0,0A17.16,17.16,0,0,1,193,37.92v0a17.12,17.12,0,0,1,5.18,12.68" transform="translate(0 -15.04)"/><g class="cls-2"><path d="M0,106.81,0,18.1H0L34.15,82l-3.39-1.08L64.53,18.18h0l-.08,88.43-10.31.17v-63l.58,5.87L32.25,95.89h-.17L9.2,49.68l1.33-5.39v62.49Z" transform="translate(0 -15.04)"/><path d="M88.93,107.36,65.88,59.28H78l19.26,42.66ZM77.06,130l31.47-70.68h9.92L87.67,130Z" transform="translate(0 -15.04)"/><path d="M121.1,38.06h11V59.28h13v8.41h-13v39.09h-11V67.69h-8.65V59.28h8.65Z" transform="translate(0 -15.04)"/><path d="M144.5,106.78V17.54h10.61V70.12l-.23-2a19.78,19.78,0,0,1,7.44-7.84,22.12,22.12,0,0,1,11.93-3.12,15.63,15.63,0,0,1,11,4A13.75,13.75,0,0,1,189.7,71.5v35.28H178.86V75.19a9.71,9.71,0,0,0-2.25-6.29q-2.13-2.48-6.62-2.47a12.72,12.72,0,0,0-7.44,2.36,15.76,15.76,0,0,0-5.3,6.4,21.34,21.34,0,0,0-1.91,9.22v22.37Z" transform="translate(0 -15.04)"/><path d="M193,59H203.8v47.73H193Z" transform="translate(0 -15.04)"/><path d="M249.65,102.28a23.68,23.68,0,0,1-7.72,4.15,28.3,28.3,0,0,1-9,1.5,29.09,29.09,0,0,1-13.67-3.11A23,23,0,0,1,210,96.06a25.56,25.56,0,0,1-3.34-13.26,24,24,0,0,1,3.57-13.2A24.75,24.75,0,0,1,219.5,61a25.85,25.85,0,0,1,12.4-3.06,31.34,31.34,0,0,1,10.2,1.56,23.72,23.72,0,0,1,7.9,4.44l-5.42,6.92a24.48,24.48,0,0,0-5-2.83,16.86,16.86,0,0,0-6.75-1.32A14.72,14.72,0,0,0,225,68.79a15.32,15.32,0,0,0-5.54,5.76,16.77,16.77,0,0,0-2,8.25A16.41,16.41,0,0,0,219.56,91a15.73,15.73,0,0,0,5.77,5.88,17.6,17.6,0,0,0,14.12,1.27,16.57,16.57,0,0,0,4.67-2.53Z" transform="translate(0 -15.04)"/><path class="cls-3" d="M0,106.81,0,18.1H0L34.15,82l-3.39-1.08L64.53,18.18h0l-.08,88.43-10.31.17v-63l.58,5.87L32.25,95.89h-.17L9.2,49.68l1.33-5.39v62.49Z" transform="translate(0 -15.04)"/><path class="cls-3" d="M88.93,107.36,65.88,59.28H78l19.26,42.66ZM77.06,130l31.47-70.68h9.92L87.67,130Z" transform="translate(0 -15.04)"/><path class="cls-3" d="M121.1,38.06h11V59.28h13v8.41h-13v39.09h-11V67.69h-8.65V59.28h8.65Z" transform="translate(0 -15.04)"/><path class="cls-3" d="M144.5,106.78V17.54h10.61V70.12l-.23-2a19.78,19.78,0,0,1,7.44-7.84,22.12,22.12,0,0,1,11.93-3.12,15.63,15.63,0,0,1,11,4A13.75,13.75,0,0,1,189.7,71.5v35.28H178.86V75.19a9.71,9.71,0,0,0-2.25-6.29q-2.13-2.48-6.62-2.47a12.72,12.72,0,0,0-7.44,2.36,15.76,15.76,0,0,0-5.3,6.4,21.34,21.34,0,0,0-1.91,9.22v22.37Z" transform="translate(0 -15.04)"/><path class="cls-3" d="M193,59H203.8v47.73H193Z" transform="translate(0 -15.04)"/><path class="cls-3" d="M249.65,102.28a23.68,23.68,0,0,1-7.72,4.15,28.3,28.3,0,0,1-9,1.5,29.09,29.09,0,0,1-13.67-3.11A23,23,0,0,1,210,96.06a25.56,25.56,0,0,1-3.34-13.26,24,24,0,0,1,3.57-13.2A24.75,24.75,0,0,1,219.5,61a25.85,25.85,0,0,1,12.4-3.06,31.34,31.34,0,0,1,10.2,1.56,23.72,23.72,0,0,1,7.9,4.44l-5.42,6.92a24.48,24.48,0,0,0-5-2.83,16.86,16.86,0,0,0-6.75-1.32A14.72,14.72,0,0,0,225,68.79a15.32,15.32,0,0,0-5.54,5.76,16.77,16.77,0,0,0-2,8.25A16.41,16.41,0,0,0,219.56,91a15.73,15.73,0,0,0,5.77,5.88,17.6,17.6,0,0,0,14.12,1.27,16.57,16.57,0,0,0,4.67-2.53Z" transform="translate(0 -15.04)"/></g></svg>