<?xml version="1.0" encoding="utf-8"?>
<!-- Generator: Adobe Illustrator 25.3.1, SVG Export Plug-In . SVG Version: 6.00 Build 0)  -->
<svg version="1.1" id="Layer_1" xmlns="http://www.w3.org/2000/svg" xmlns:xlink="http://www.w3.org/1999/xlink" x="0px" y="0px"
	 viewBox="0 0 312 100" style="enable-background:new 0 0 312 100;" xml:space="preserve">
<style type="text/css">
	.st0{fill:none;stroke:url(#SVGID_1_);stroke-width:3.65;stroke-miterlimit:10;}
	.st1{fill:url(#SVGID_2_);}
	.st2{fill:url(#SVGID_3_);}
	.st3{fill:url(#SVGID_4_);}
	.st4{fill:url(#SVGID_5_);}
	.st5{opacity:0.97;}
	.st6{fill:url(#SVGID_6_);}
	.st7{fill:url(#SVGID_7_);}
	.st8{fill:url(#SVGID_8_);}
	.st9{fill:url(#SVGID_9_);}
	.st10{fill:url(#SVGID_10_);}
	.st11{fill:url(#SVGID_11_);}
</style>
<g id="Layer_2_1_">
	<g id="Layer_1-2">
		
			<linearGradient id="SVGID_1_" gradientUnits="userSpaceOnUse" x1="47.6" y1="163.085" x2="140.25" y2="163.085" gradientTransform="matrix(1 0 0 -1 -47.6 209.41)">
			<stop  offset="0" style="stop-color:#D5011E"/>
			<stop  offset="6.000000e-02" style="stop-color:#C70427"/>
			<stop  offset="0.28" style="stop-color:#970E47"/>
			<stop  offset="0.5" style="stop-color:#711661"/>
			<stop  offset="0.69" style="stop-color:#561B73"/>
			<stop  offset="0.87" style="stop-color:#461F7E"/>
			<stop  offset="1" style="stop-color:#402082"/>
		</linearGradient>
		<circle class="st0" cx="46.3" cy="46.3" r="44.5"/>
		
			<linearGradient id="SVGID_2_" gradientUnits="userSpaceOnUse" x1="79.195" y1="154.745" x2="107.595" y2="154.745" gradientTransform="matrix(1 0 0 -1 -47.67 209.07)">
			<stop  offset="0" style="stop-color:#D5011E"/>
			<stop  offset="6.000000e-02" style="stop-color:#C70427"/>
			<stop  offset="0.28" style="stop-color:#970E47"/>
			<stop  offset="0.5" style="stop-color:#711661"/>
			<stop  offset="0.69" style="stop-color:#561B73"/>
			<stop  offset="0.87" style="stop-color:#461F7E"/>
			<stop  offset="1" style="stop-color:#402082"/>
		</linearGradient>
		<path class="st1" d="M45.7,40.2c0.1,3.8-1.5,7.4-4.2,10l0,0c-2.6,2.7-6.2,4.2-10,4.1l0,0c3.8-0.1,7.4,1.4,10,4.1l0,0
			c2.7,2.6,4.2,6.2,4.2,9.9v0.1c-0.1-3.8,1.5-7.4,4.2-10l0,0c2.6-2.7,6.2-4.2,10-4.1l0,0c-3.8,0.1-7.4-1.4-10-4.1l0,0
			C47.1,47.6,45.6,44,45.7,40.2"/>
		
			<linearGradient id="SVGID_3_" gradientUnits="userSpaceOnUse" x1="49.8383" y1="169.445" x2="93.9033" y2="169.445" gradientTransform="matrix(1 0 0 -1 -47.67 209.07)">
			<stop  offset="0" style="stop-color:#D5011E"/>
			<stop  offset="6.000000e-02" style="stop-color:#C70427"/>
			<stop  offset="0.28" style="stop-color:#970E47"/>
			<stop  offset="0.5" style="stop-color:#711661"/>
			<stop  offset="0.69" style="stop-color:#561B73"/>
			<stop  offset="0.87" style="stop-color:#461F7E"/>
			<stop  offset="1" style="stop-color:#402082"/>
		</linearGradient>
		<path class="st2" d="M2.7,45.7c0,0,13.4-0.9,23.7-5.3C39.3,35,46,22.6,46,22.6c0.5,3,0.1,6.1-1.2,8.9c-2.2,4.2-5.2,7.9-8.7,11.1
			c-2.6,2.3-5.5,4.4-8.6,6.1c-4.8,2.5-8.2,3.3-14.6,5.3c-3.5,1.1-7,2-10.5,2.6c-0.6-0.7,0-1.6,0.3-5C3,47.6,2.3,46.9,2.7,45.7z"/>
		
			<linearGradient id="SVGID_4_" gradientUnits="userSpaceOnUse" x1="137.4517" y1="169.395" x2="93.3717" y2="169.395" gradientTransform="matrix(1 0 0 -1 -47.67 209.07)">
			<stop  offset="0" style="stop-color:#412081"/>
			<stop  offset="1.000000e-02" style="stop-color:#481F7D"/>
			<stop  offset="0.13" style="stop-color:#78145C"/>
			<stop  offset="0.24" style="stop-color:#9E0C43"/>
			<stop  offset="0.35" style="stop-color:#B90731"/>
			<stop  offset="0.44" style="stop-color:#C90326"/>
			<stop  offset="0.51" style="stop-color:#CF0222"/>
			<stop  offset="1" style="stop-color:#402082"/>
		</linearGradient>
		<path class="st3" d="M89.3,45.8c0,0-13.4-0.9-23.7-5.3C52.7,35,46,22.7,46,22.7c-0.5,3-0.1,6.1,1.2,8.9c2.2,4.2,5.2,7.9,8.7,11.1
			c2.6,2.3,5.5,4.4,8.6,6.1C69.2,51.2,72.6,52,79,54c3.5,1.1,7,2,10.5,2.6c0.6-0.7,0-1.6-0.3-5C88.9,47.7,89.6,47,89.3,45.8z"/>
		
			<linearGradient id="SVGID_5_" gradientUnits="userSpaceOnUse" x1="450.4516" y1="-344.6891" x2="450.7616" y2="-373.6857" gradientTransform="matrix(-1 -1.000000e-02 -1.000000e-02 1 717.0898 385.0302)">
			<stop  offset="0" style="stop-color:#D5011E"/>
			<stop  offset="6.000000e-02" style="stop-color:#C70427"/>
			<stop  offset="0.28" style="stop-color:#970E47"/>
			<stop  offset="0.5" style="stop-color:#711661"/>
			<stop  offset="0.69" style="stop-color:#561B73"/>
			<stop  offset="0.87" style="stop-color:#461F7E"/>
			<stop  offset="1" style="stop-color:#402082"/>
		</linearGradient>
		<path class="st4" d="M269.9,35.6c0-3.9,1.6-7.6,4.4-10.2l0,0c2.7-2.7,6.5-4.2,10.4-4.1l0,0c-3.9,0.1-7.6-1.5-10.3-4.3l0,0
			c-2.8-2.7-4.3-6.4-4.2-10.3V6.6c0,3.9-1.6,7.6-4.4,10.2l0,0c-2.7,2.7-6.5,4.2-10.4,4.1l0,0c3.9-0.1,7.6,1.5,10.3,4.3l0,0
			C268.4,27.9,269.9,31.6,269.9,35.6"/>
		<g class="st5">
			<path d="M108.8,81.2V9l0,0l27.7,52l-2.8-0.9l27.4-51l0,0l0.1,71.9l-8.4,0.1V29.9l0.5,4.8L135,72.3h-0.1l-18.6-37.6l1.1-4.4v50.8
				L108.8,81.2z"/>
			<path d="M181.1,81.6l-18.7-39.1h9.9l15.6,34.7L181.1,81.6z M171.4,100L197,42.5h8.1L180,100H171.4z"/>
			<path d="M207.2,25.3h8.9v17.2h10.6v6.8h-10.6v31.8h-8.9V49.4h-7v-6.8h7V25.3z"/>
			<path d="M226.2,81.1V8.6h8.6v42.7l-0.2-1.6c1.4-2.6,3.5-4.9,6.1-6.4c2.9-1.7,6.3-2.6,9.7-2.5c3.3-0.1,6.5,1,8.9,3.2
				s3.7,5.2,3.6,8.4v28.7h-8.8V55.5c0-1.9-0.6-3.7-1.8-5.1c-1.1-1.3-2.9-2-5.4-2c-2.2,0-4.3,0.7-6.1,1.9c-1.9,1.3-3.4,3.1-4.3,5.2
				c-1.1,2.3-1.6,4.9-1.6,7.5v18.2L226.2,81.1L226.2,81.1z"/>
			<path d="M265.6,42.3h8.8V81h-8.8V42.3z"/>
			<path d="M311.7,77.5c-1.9,1.5-4,2.6-6.3,3.4c-2.4,0.8-4.8,1.2-7.3,1.2c-3.8,0.1-7.7-0.8-11.1-2.5c-3.1-1.6-5.7-4.1-7.5-7.1
				c-1.9-3.3-2.8-7-2.7-10.8c-0.1-3.8,0.9-7.5,2.9-10.7c1.9-2.9,4.5-5.4,7.5-7c3.1-1.7,6.6-2.5,10.1-2.5c2.8,0,5.6,0.4,8.3,1.3
				c2.4,0.8,4.5,2,6.4,3.6l-4.4,5.6c-1.3-0.9-2.6-1.7-4.1-2.3c-1.7-0.7-3.6-1.1-5.5-1.1c-2.2,0-4.4,0.5-6.4,1.7
				c-1.9,1.1-3.4,2.7-4.5,4.7c-1.1,2.1-1.7,4.4-1.6,6.7c0,2.3,0.6,4.6,1.7,6.7c1.1,2,2.7,3.6,4.7,4.7c3.5,1.9,7.7,2.3,11.5,1
				c1.4-0.5,2.7-1.2,3.8-2.1L311.7,77.5z"/>
			
				<linearGradient id="SVGID_6_" gradientUnits="userSpaceOnUse" x1="182.625" y1="94.385" x2="182.625" y2="185.745" gradientTransform="matrix(1 0 0 -1 -47.6 194.37)">
				<stop  offset="0" style="stop-color:#D5011E"/>
				<stop  offset="4.000000e-02" style="stop-color:#C80426"/>
				<stop  offset="0.19" style="stop-color:#9F0C42"/>
				<stop  offset="0.35" style="stop-color:#7D1359"/>
				<stop  offset="0.5" style="stop-color:#62196B"/>
				<stop  offset="0.66" style="stop-color:#4F1D78"/>
				<stop  offset="0.83" style="stop-color:#441F80"/>
				<stop  offset="1" style="stop-color:#402082"/>
			</linearGradient>
			<path class="st6" d="M108.8,81.2V9l0,0l27.7,52l-2.8-0.9l27.4-51l0,0l0.1,71.9l-8.4,0.1V29.9l0.5,4.8L135,72.3h-0.1l-18.6-37.6
				l1.1-4.4v50.8L108.8,81.2z"/>
			
				<linearGradient id="SVGID_7_" gradientUnits="userSpaceOnUse" x1="231.375" y1="94.345" x2="231.375" y2="185.715" gradientTransform="matrix(1 0 0 -1 -47.6 194.37)">
				<stop  offset="0" style="stop-color:#D5011E"/>
				<stop  offset="4.000000e-02" style="stop-color:#C80426"/>
				<stop  offset="0.19" style="stop-color:#9F0C42"/>
				<stop  offset="0.35" style="stop-color:#7D1359"/>
				<stop  offset="0.5" style="stop-color:#62196B"/>
				<stop  offset="0.66" style="stop-color:#4F1D78"/>
				<stop  offset="0.83" style="stop-color:#441F80"/>
				<stop  offset="1" style="stop-color:#402082"/>
			</linearGradient>
			<path class="st7" d="M181.1,81.6l-18.7-39.1h9.9l15.6,34.7L181.1,81.6z M171.4,100L197,42.5h8.1L180,100H171.4z"/>
			
				<linearGradient id="SVGID_8_" gradientUnits="userSpaceOnUse" x1="261.075" y1="94.385" x2="261.075" y2="185.745" gradientTransform="matrix(1 0 0 -1 -47.6 194.37)">
				<stop  offset="0" style="stop-color:#D5011E"/>
				<stop  offset="4.000000e-02" style="stop-color:#C80426"/>
				<stop  offset="0.19" style="stop-color:#9F0C42"/>
				<stop  offset="0.35" style="stop-color:#7D1359"/>
				<stop  offset="0.5" style="stop-color:#62196B"/>
				<stop  offset="0.66" style="stop-color:#4F1D78"/>
				<stop  offset="0.83" style="stop-color:#441F80"/>
				<stop  offset="1" style="stop-color:#402082"/>
			</linearGradient>
			<path class="st8" d="M207.2,25.3h8.9v17.2h10.6v6.8h-10.6v31.8h-8.9V49.4h-7v-6.8h7V25.3z"/>
			
				<linearGradient id="SVGID_9_" gradientUnits="userSpaceOnUse" x1="292.1777" y1="94.385" x2="292.1777" y2="185.745" gradientTransform="matrix(1 0 0 -1 -47.6 194.37)">
				<stop  offset="0" style="stop-color:#D5011E"/>
				<stop  offset="4.000000e-02" style="stop-color:#C80426"/>
				<stop  offset="0.19" style="stop-color:#9F0C42"/>
				<stop  offset="0.35" style="stop-color:#7D1359"/>
				<stop  offset="0.5" style="stop-color:#62196B"/>
				<stop  offset="0.66" style="stop-color:#4F1D78"/>
				<stop  offset="0.83" style="stop-color:#441F80"/>
				<stop  offset="1" style="stop-color:#402082"/>
			</linearGradient>
			<path class="st9" d="M226.2,81.1V8.6h8.6v42.7l-0.2-1.6c1.4-2.6,3.5-4.9,6.1-6.4c2.9-1.7,6.3-2.6,9.7-2.5c3.3-0.1,6.5,1,8.9,3.2
				s3.7,5.2,3.6,8.4v28.7h-8.8V55.5c0-1.9-0.6-3.7-1.8-5.1c-1.1-1.3-2.9-2-5.4-2c-2.2,0-4.3,0.7-6.1,1.9c-1.9,1.3-3.4,3.1-4.3,5.2
				c-1.1,2.3-1.6,4.9-1.6,7.5v18.2L226.2,81.1L226.2,81.1z"/>
			
				<linearGradient id="SVGID_10_" gradientUnits="userSpaceOnUse" x1="317.625" y1="94.385" x2="317.625" y2="185.745" gradientTransform="matrix(1 0 0 -1 -47.6 194.37)">
				<stop  offset="0" style="stop-color:#D5011E"/>
				<stop  offset="4.000000e-02" style="stop-color:#C80426"/>
				<stop  offset="0.19" style="stop-color:#9F0C42"/>
				<stop  offset="0.35" style="stop-color:#7D1359"/>
				<stop  offset="0.5" style="stop-color:#62196B"/>
				<stop  offset="0.66" style="stop-color:#4F1D78"/>
				<stop  offset="0.83" style="stop-color:#441F80"/>
				<stop  offset="1" style="stop-color:#402082"/>
			</linearGradient>
			<path class="st10" d="M265.6,42.3h8.8V81h-8.8V42.3z"/>
			
				<linearGradient id="SVGID_11_" gradientUnits="userSpaceOnUse" x1="342.0213" y1="94.385" x2="342.0213" y2="185.745" gradientTransform="matrix(1 0 0 -1 -47.6 194.37)">
				<stop  offset="0" style="stop-color:#D5011E"/>
				<stop  offset="4.000000e-02" style="stop-color:#C80426"/>
				<stop  offset="0.19" style="stop-color:#9F0C42"/>
				<stop  offset="0.35" style="stop-color:#7D1359"/>
				<stop  offset="0.5" style="stop-color:#62196B"/>
				<stop  offset="0.66" style="stop-color:#4F1D78"/>
				<stop  offset="0.83" style="stop-color:#441F80"/>
				<stop  offset="1" style="stop-color:#402082"/>
			</linearGradient>
			<path class="st11" d="M311.7,77.5c-1.9,1.5-4,2.6-6.3,3.4c-2.4,0.8-4.8,1.2-7.3,1.2c-3.8,0.1-7.7-0.8-11.1-2.5
				c-3.1-1.6-5.7-4.1-7.5-7.1c-1.9-3.3-2.8-7-2.7-10.8c-0.1-3.8,0.9-7.5,2.9-10.7c1.9-2.9,4.5-5.4,7.5-7c3.1-1.7,6.6-2.5,10.1-2.5
				c2.8,0,5.6,0.4,8.3,1.3c2.4,0.8,4.5,2,6.4,3.6l-4.4,5.6c-1.3-0.9-2.6-1.7-4.1-2.3c-1.7-0.7-3.6-1.1-5.5-1.1
				c-2.2,0-4.4,0.5-6.4,1.7c-1.9,1.1-3.4,2.7-4.5,4.7c-1.1,2.1-1.7,4.4-1.6,6.7c0,2.3,0.6,4.6,1.7,6.7c1.1,2,2.7,3.6,4.7,4.7
				c3.5,1.9,7.7,2.3,11.5,1c1.4-0.5,2.7-1.2,3.8-2.1L311.7,77.5z"/>
		</g>
	</g>
</g>
</svg>
