<svg xmlns="http://www.w3.org/2000/svg" viewBox="0 0 490.14 405.92"><defs><style>.cls-1,.cls-21{fill:#ffdde0;}.cls-15,.cls-17,.cls-19,.cls-2,.cls-20,.cls-25,.cls-26,.cls-28,.cls-29,.cls-4,.cls-7{fill:none;}.cls-17,.cls-19,.cls-2,.cls-21,.cls-4{stroke:#776f8a;}.cls-15,.cls-17,.cls-18,.cls-19,.cls-2,.cls-20,.cls-21,.cls-25,.cls-26,.cls-28,.cls-29,.cls-4{stroke-miterlimit:10;}.cls-2,.cls-25,.cls-28,.cls-29{stroke-width:2.08px;}.cls-3{fill:#dee1f4;}.cls-4{stroke-width:1.49px;}.cls-10,.cls-11,.cls-16,.cls-5,.cls-8{isolation:isolate;}.cls-5{opacity:0.4;}.cls-6{fill:#25144d;}.cls-8{opacity:0.65;}.cls-9{fill:#fff;}.cls-10{opacity:0.25;}.cls-11{opacity:0.9;}.cls-12{fill:#f6f6fb;}.cls-13{fill:#776f8a;}.cls-14,.cls-18{fill:#c8cce9;}.cls-15,.cls-18{stroke:#c8cce9;}.cls-15,.cls-17{stroke-width:2.05px;}.cls-16{opacity:0.33;}.cls-18,.cls-19,.cls-20,.cls-26{stroke-width:1.04px;}.cls-20{stroke:#25144d;}.cls-21{stroke-width:1.47px;}.cls-22{fill:#f3f4fb;}.cls-23{fill:#6987c4;opacity:0.28;}.cls-24{fill:#91d04b;}.cls-25{stroke:#91d04b;}.cls-26{stroke:#fff;}.cls-27{fill:#c99570;}.cls-28{stroke:#7f614c;}.cls-29{stroke:#7e604b;}.cls-30{fill:#dbc09f;}</style></defs><g id="Layer_2" data-name="Layer 2"><g id="Layer_1-2" data-name="Layer 1"><g id="wings_background" data-name="wings background"><path class="cls-1" d="M368.56,180.92a33.82,33.82,0,0,0,1.52-6,.68.68,0,0,0-1.12-.65c-13.08,12.78-26.59,25-42.62,34a.42.42,0,0,0-.2.22.48.48,0,0,0-.2.4,3.35,3.35,0,0,0,2.62,3.19,19.89,19.89,0,0,0,3.73.81,16.1,16.1,0,0,0,6.19,1.54c3.81.13,7.69.15,11.54,0,2.05.27,4.38.56,6-.4l.08-.08a.79.79,0,0,0,.78-.3c2.09-2.73,5.48-3.68,8.79-3.84,3.74-.18,6.18,1.79,9.29,3.43a.7.7,0,0,0,.39.29c.11-4.94,4-10.28,8.16-12.11a12.36,12.36,0,0,1,8.83-.31,10.45,10.45,0,0,1,.8-7.49c1.85-4.21,5.2-8.85,9.5-11.15a63.87,63.87,0,0,0-34.08-1.55"/><path class="cls-2" d="M368.56,180.92a33.82,33.82,0,0,0,1.52-6,.68.68,0,0,0-1.12-.65c-13.08,12.78-26.59,25-42.62,34a.42.42,0,0,0-.2.22.48.48,0,0,0-.2.4,3.35,3.35,0,0,0,2.62,3.19,19.89,19.89,0,0,0,3.73.81,16.1,16.1,0,0,0,6.19,1.54c3.81.13,7.69.15,11.54,0,2.05.27,4.38.56,6-.4l.08-.08a.79.79,0,0,0,.78-.3c2.09-2.73,5.48-3.68,8.79-3.84,3.74-.18,6.18,1.79,9.29,3.43a.7.7,0,0,0,.39.29c.11-4.94,4-10.28,8.16-12.11a12.36,12.36,0,0,1,8.83-.31,10.45,10.45,0,0,1,.8-7.49c1.85-4.21,5.2-8.85,9.5-11.15A63.87,63.87,0,0,0,368.56,180.92Z"/><path class="cls-3" d="M364.47,184.86c2-2.62,3.87-5.42,4.55-8.53a2.58,2.58,0,0,1,0-.68c-.08-.35-11.1,10.32-16.51,14.51l-1.44,1.1a51.93,51.93,0,0,1-4.67,4.35c-5,4.07-16.67,11.41-17,11.58a11,11,0,0,0,2.42.29c.6.05,24.42-14,32.61-22.62"/><path class="cls-1" d="M331.82,174.31a14.81,14.81,0,0,0-1.13-3.6c-.16-.35-.83-.21-1,.29-4.35,13-9.2,25.9-16.95,38.69a.25.25,0,0,0-.05.21.24.24,0,0,0,0,.29c.6.76,1.71.66,3,.08a26.1,26.1,0,0,0,2.86-1.62,19.88,19.88,0,0,0,4.81-2.61c2.67-2,5.34-4.06,7.93-6.19,1.51-1,3.21-2.09,4-3.41a.26.26,0,0,1,0-.08.86.86,0,0,0,.42-.55c.45-2.4,2.43-4.66,4.65-6.51,2.51-2.09,4.9-2.49,7.63-3.39a.77.77,0,0,0,.38-.08c-1.73-2.36-1-6.92,1.2-10a15.75,15.75,0,0,1,6-4.89c-1.48-.7-2-2.26-2.17-3.91a17.17,17.17,0,0,1,2.47-10.28,81.22,81.22,0,0,0-24,17.57"/><path class="cls-4" d="M331.82,174.31a14.81,14.81,0,0,0-1.13-3.6c-.16-.35-.83-.21-1,.29-4.35,13-9.2,25.9-16.95,38.69a.25.25,0,0,0-.05.21.24.24,0,0,0,0,.29c.6.76,1.71.66,3,.08a26.1,26.1,0,0,0,2.86-1.62,19.88,19.88,0,0,0,4.81-2.61c2.67-2,5.34-4.06,7.93-6.19,1.51-1,3.21-2.09,4-3.41a.26.26,0,0,1,0-.08.86.86,0,0,0,.42-.55c.45-2.4,2.43-4.66,4.65-6.51,2.51-2.09,4.9-2.49,7.63-3.39a.77.77,0,0,0,.38-.08c-1.73-2.36-1-6.92,1.2-10a15.75,15.75,0,0,1,6-4.89c-1.48-.7-2-2.26-2.17-3.91a17.17,17.17,0,0,1,2.47-10.28A81.22,81.22,0,0,0,331.82,174.31Z"/><path class="cls-3" d="M330.37,178.36c.43-2.3.68-4.6,0-6.41a1.22,1.22,0,0,1-.25-.31,5.21,5.21,0,0,0-.56-.34c-.67,5-3.31,11.1-5.51,15.95l-.59,1.28a41.09,41.09,0,0,1-1.63,4.53c-2,4.59-4.8,8.92-7.35,13.39-.12.26-.24.51-.37.74A15.93,15.93,0,0,0,316,206c.44-.3.87-.56,1.3-.81l.76-1c4-8.51,9.83-17.37,12.34-25.76"/></g><g id="wings_detail" data-name="wings detail"><g class="cls-5"><path class="cls-6" d="M329.65,191.79c5.63-4,11.76-6.45,18.74-5.87.26,0,.26-.39,0-.41l-.52,0a.15.15,0,0,0,0,.3,10.38,10.38,0,0,0-4-.41,23.61,23.61,0,0,0-4.91,1,28.26,28.26,0,0,0-9.42,5.24c-.08.07,0,.2.11.14"/><rect class="cls-7" x="329.51" y="185.31" width="19.07" height="6.5"/><rect class="cls-7" x="328.9" y="184.28" width="19.77" height="8.32"/></g><g class="cls-5"><path class="cls-6" d="M325,194.24A108.82,108.82,0,0,1,355.65,171c.29-.15,0-.59-.26-.44a98.24,98.24,0,0,0-30.46,23.61c0,.05,0,.12.07.07"/><rect class="cls-7" x="324.92" y="170.53" width="30.86" height="23.73"/><rect class="cls-7" x="324.73" y="169.71" width="31.21" height="24.97"/></g><g class="cls-5"><path class="cls-6" d="M317.2,205a207.89,207.89,0,0,0,12.58-24.6.09.09,0,1,0-.15-.08c-4.31,8.1-8.48,16.39-12.51,24.64,0,.05.05.09.08,0"/><rect class="cls-7" x="317.11" y="180.29" width="12.68" height="24.75"/><rect class="cls-7" x="316.41" y="180.12" width="13.52" height="24.97"/></g><g class="cls-5"><path class="cls-6" d="M333.68,206.67a210.32,210.32,0,0,0,28.77-19.75c.11-.09,0-.27-.15-.19-9.67,6.33-19.32,13.05-28.69,19.83a.07.07,0,0,0,.07.11"/><rect class="cls-7" x="333.58" y="186.71" width="28.9" height="19.97"/><rect class="cls-7" x="333.06" y="186.36" width="30.17" height="20.81"/></g><g class="cls-5"><path class="cls-6" d="M348.34,200.42a84.12,84.12,0,0,1,44,.86.37.37,0,0,0,.2-.71,78,78,0,0,0-44.27-.29c-.09,0-.05.16,0,.14"/><rect class="cls-7" x="348.25" y="197.22" width="44.58" height="4.08"/><rect class="cls-7" x="347.62" y="196.76" width="45.77" height="5.2"/></g><g class="cls-5"><path class="cls-6" d="M354.27,202c8.81.45,15.81,4.53,21,11.6a.3.3,0,1,0,.48-.37l-.47-.6c-.17-.2-.44.06-.34.26-.28-.59,0-.75-.59-1.77a14.68,14.68,0,0,0-2.56-2.78,25.8,25.8,0,0,0-5.2-3.72,24.06,24.06,0,0,0-12.27-2.87.13.13,0,0,0,0,.25"/><rect class="cls-7" x="354.15" y="201.72" width="21.63" height="12"/><rect class="cls-7" x="353.86" y="200.92" width="22.89" height="13.52"/></g></g><g id="body-colour"><path class="cls-3" d="M472.93,218.74a70.25,70.25,0,0,0-12.28-17.92c-2.15-2.26-4.63-4.74-7.22-7.08h0a8,8,0,0,0-1.09-.55,37.24,37.24,0,0,1,1.33,6.79,45.21,45.21,0,0,1-3.54,23.42c-7,16.51-19.91,26.94-36.6,31.38a.14.14,0,0,1-.09,0,44,44,0,0,0-3.06-3.21h0a38.79,38.79,0,0,0-2.81-3.34,117.83,117.83,0,0,0-9.19-9.24,136.66,136.66,0,0,0-17.89-13.54c-1-.67-2.19-1.37-3.34-2.09h0a22.42,22.42,0,0,0-3.82-2.28h0c-4.14-3.32-10-5.39-14.24-6.94-9.23-3.33-18.91-4.85-28.59-6.2s-18.75-1.63-26.2-9c-4.2-4.06-10.33-14.06-10.34-14.06-.48-1.51-1.51-5.36-1.57-5.74-.76-4.61-7.33-18.9-7.7-17.31a.1.1,0,0,1,0,0,10.78,10.78,0,0,0-1.48,1.22c0-.56-.09-1.11-.13-1.67-.12-3.23-54.67-21.46-54,17.68a139.68,139.68,0,0,0,9.38,47.24c4.63,12,7.81,24.87,13.4,36.43a.08.08,0,0,1-.06.12A24.84,24.84,0,0,0,241,267.76c-6,4.51-7,9.81-9.67,16.86-6.2,15.81-4.7,29.74,1.53,44.94,6,14.68,11.82,28.92,26.74,37.73,7.35,4.35,15,5.34,21.32,5.78,0,0-.28,3.8-.36,5.06-.21,2.28-1.5,4-2.47,6,0,0-1.69-.19-1.71-.18a9.12,9.12,0,0,0-2,1.22s2.1-1.22,2.08-1.26c-2.84-3.94-8.53-3.38-12.14.16,0,0-3.51-6.69-16.6,1.51-2.74,1.71-3.95,5.13-4.76,8.28v0a26.59,26.59,0,0,0,0,3.34l3.42,3.15a7.1,7.1,0,0,0,3.6,2.8c14.65.15,28.26,1.84,42.88,1,3.44-.2,6.87-.28,10.32-.33h0a15.56,15.56,0,0,0,7.79-6.46v0c.78-2.18,1.44-4.39,2.06-6.39,2.19-6.73,4-13.62,7.44-19.8,1.63-2.92,3.66-5.73,5.14-8.7a.07.07,0,0,1,.09-.05c4.23,1,9.13,1,12.34,1,6.36.21,13,.73,19.6.42l.05,0a46.15,46.15,0,0,0,19.25,9.42v.25c2,.62,1.85,2.88,1,4.88a12,12,0,0,1-.39,1.2c-.4,1-1.43,2.4-2.48,2.6v.14a9.83,9.83,0,0,0-3,.47,13.72,13.72,0,0,0-5.38,3.33.08.08,0,0,1-.11,0,13,13,0,0,0-9.72-3.66c-6.64.46-10.24,6.39-11.36,12.48a22.31,22.31,0,0,0-.52,4.82s0,0,0,0a10.77,10.77,0,0,0,1.45,2.36l0,0a13.4,13.4,0,0,0,3,1.61h0c9.21,0,18.41.29,27.6.58h0a19.52,19.52,0,0,1,7.5-.21c.75.13,12.38,1.34,17.58-.47a.1.1,0,0,0,0,0c.62-1.1,19.47-34.35,19.13-38.55a.08.08,0,0,0,0,0,22.64,22.64,0,0,0-1.68-2.95l0,0a33.45,33.45,0,0,1-4.41-2.84h0a28.86,28.86,0,0,1-2.72-1.64.08.08,0,0,1,0-.15c9-2.06,18-8.07,24.94-12.4A90.36,90.36,0,0,0,456,329.81h0a107.75,107.75,0,0,0,6.92-9.64c1.91-3,3.81-6.11,5.6-9.25h0c1-2.31,2.06-4.6,3.1-6.88h0A140.08,140.08,0,0,0,480.49,265c1.15-15.58-.73-32.07-7.56-46.22M318.78,226c-.69,2-1.35,3.94-2,5.92l0,0a54.8,54.8,0,0,0-4,5.2.09.09,0,0,1-.15,0l-3.21-5.82a5.31,5.31,0,0,0-3.31-2.72.1.1,0,0,1-.05,0l-.74-1.22a4.75,4.75,0,0,0-.23-.73c-.39-1-.8-2.08-1.23-3.11a.08.08,0,0,1,.12-.1,12.76,12.76,0,0,0,7.32,1.47,6.06,6.06,0,0,0,5.51-5.15.08.08,0,0,1,.1-.07c1.53.36,3.06.7,4.59,1a.08.08,0,0,1,.05.13,17.84,17.84,0,0,0-2.71,5.21"/></g><g id="body_detail" data-name="body detail"><g class="cls-8"><path class="cls-9" d="M472.12,225.61c2.54,9.47,5.09,19.11,4.84,28.95-.16,6.43,0,15.29-1.45,21.54-2.74,11.7-4.76,22.08-9.49,33s-13.79,20-22.38,27.9c-8.44,7.77-18.67,13-28.76,18.12l.67.31c-4.94-.43-9.19-4.56-10.77-9.53s-.79-10.55,1.38-15.26a39.37,39.37,0,0,1,9.31-12.13c7.61-7.12,16.55-12.49,24.4-19.32,21.2-18.46,33.42-47.92,31.91-76.93"/><rect class="cls-7" x="403.94" y="222.29" width="73.04" height="133.17"/><rect class="cls-7" x="403.8" y="221.73" width="73.86" height="134.2"/></g><g class="cls-8"><path class="cls-9" d="M358.89,363.48c-20.14-1.22-46.41-2.45-61.46-15.89-11.07-9.88-16.85-21.9-22.67-35.55-11-25.8-19.94-52.65-31.07-79.24-10.82-25.88-15.29-55.35-10.85-83.05.52-3.27,3.22-5.95,5.39-8.46C241.1,138,246,137,250.3,137.86s4.44,2.37,6,6.47c3.83,9.95,3.18,7.66,7.6,19,5.29,13.57,16.83,29.58,25.51,37.73,6.32,5.93,41.12,51.63,51.7,63.23,8.41,9.23,12.35,10.58,17.41,14.7-6.29-3.43-14.23,4-18.65,9.65S336.34,302,336,309.1c-1,21.31,5.28,42.35,22.88,54.38"/><rect class="cls-7" x="231.14" y="137.54" width="127.76" height="225.94"/><rect class="cls-7" x="231.11" y="137.47" width="127.96" height="226.79"/></g><g class="cls-10"><path class="cls-6" d="M279.89,193.34c-11.46,10.44-26.19,15.25-41,18.6-.36.08-.21.63.15.55,15-3.37,29.75-8.23,41.29-18.75.27-.24-.13-.64-.4-.4"/><rect class="cls-7" x="238.64" y="193.26" width="41.73" height="19.24"/><rect class="cls-7" x="238.39" y="192.6" width="42.65" height="20.81"/></g><g class="cls-10"><path class="cls-6" d="M336.54,265.75c-20.71,13.21-45.17,16.46-69.06,19.36-.36,0-.37.61,0,.57,24-2.91,48.56-6.18,69.34-19.44.31-.2,0-.69-.28-.49"/><rect class="cls-7" x="267.21" y="265.7" width="69.75" height="19.98"/><rect class="cls-7" x="266.48" y="265.42" width="70.74" height="20.81"/></g><g class="cls-10"><path class="cls-6" d="M346.51,270.69c-11.71,5.52-22.18,13.48-34.68,17.27-13.15,4-27.12,7.28-40.86,8-.36,0-.36.59,0,.56,13.83-.76,27.78-4,41-8.05,12.54-3.8,23.07-11.78,34.82-17.33.33-.16,0-.65-.29-.49"/><rect class="cls-7" x="270.7" y="270.66" width="76.25" height="25.91"/><rect class="cls-7" x="270.64" y="270.62" width="76.98" height="26.01"/></g><g class="cls-10"><path class="cls-6" d="M345,282.63a143.83,143.83,0,0,1-33,16.79,139.56,139.56,0,0,1-16.55,4.75c-6.79,1.5-14.36,3.34-21.3,2.16-.36-.06-.51.49-.15.55,5.4.91,10.93-.12,16.27-1.09a140.26,140.26,0,0,0,20.17-5.23,144.23,144.23,0,0,0,34.81-17.44c.3-.2,0-.69-.29-.49"/><rect class="cls-7" x="273.83" y="282.58" width="71.58" height="24.65"/><rect class="cls-7" x="273.76" y="282.07" width="71.78" height="26.01"/></g><g class="cls-10"><path class="cls-6" d="M338.09,296.28C320,308.88,299,317.09,276.7,316.35a8,8,0,0,0,2,.61c22.36.74,41.49-7.54,59.63-20.19.3-.2,0-.7-.28-.49"/><rect class="cls-7" x="276.43" y="296.23" width="62.07" height="20.73"/><rect class="cls-7" x="275.84" y="295.59" width="63.46" height="21.85"/></g><g class="cls-10"><path class="cls-6" d="M335.47,307.3c-7.87,5.64-15.41,10.17-24.81,12.77-9.71,2.69-17.07,4.53-26.88,6.81-.36.09,0,.58.38.5,10.39-2.42,18.12-4.28,28.36-7.23,8.71-2.51,15.92-7.12,23.24-12.36.3-.21,0-.7-.29-.49"/><rect class="cls-7" x="281.14" y="307.25" width="54.75" height="20.76"/><rect class="cls-7" x="281.04" y="307.04" width="55.14" height="21.85"/></g><g class="cls-10"><path class="cls-6" d="M338.73,328.13c-11.45,10.44-26.19,15.25-41,18.6-.35.08-.2.63.15.55,15-3.38,29.76-8.24,41.29-18.75.27-.25-.13-.65-.4-.4"/><rect class="cls-7" x="297.49" y="328.05" width="41.74" height="19.24"/><rect class="cls-7" x="296.65" y="327.84" width="42.65" height="19.77"/></g><g class="cls-10"><path class="cls-6" d="M340.67,337.44c-10,6.73-20.08,13.06-32,15.78-.33.07-.19.58.14.51,11.91-2.73,22.07-9.08,32.09-15.83.28-.19,0-.65-.27-.46"/><rect class="cls-7" x="308.52" y="337.4" width="32.54" height="16.34"/><rect class="cls-7" x="308.09" y="337.2" width="33.29" height="16.64"/></g><g class="cls-10"><path class="cls-6" d="M345.34,349.18a59.45,59.45,0,0,1-24.2,10.94c-.35.08-.2.62.16.55a59.77,59.77,0,0,0,24.32-11c.29-.22,0-.71-.28-.49"/><rect class="cls-7" x="320.94" y="349.12" width="24.8" height="11.55"/><rect class="cls-7" x="320.57" y="348.65" width="26.01" height="12.48"/></g><g class="cls-10"><path class="cls-6" d="M352,356a107,107,0,0,1-13.85,5.92c-.34.12-.19.67.15.55a108.42,108.42,0,0,0,14-6c.33-.17,0-.66-.28-.49"/><rect class="cls-7" x="337.93" y="355.94" width="14.47" height="6.52"/><rect class="cls-7" x="337.22" y="355.93" width="15.6" height="7.28"/></g><g class="cls-10"><path class="cls-6" d="M414.58,321.16c4.78,8.88,7.18,20.33,9.19,30.18.06.33.56.19.5-.14-2-9.93-4.41-21.32-9.24-30.31-.16-.29-.61,0-.45.27"/><rect class="cls-7" x="414.55" y="320.76" width="9.72" height="30.77"/><rect class="cls-7" x="414.2" y="320.56" width="10.4" height="31.21"/></g><g class="cls-10"><path class="cls-6" d="M420.06,316.46a130.92,130.92,0,0,1,8.74,31.8c.05.33.55.19.51-.14a131.06,131.06,0,0,0-8.75-31.8c-.13-.31-.63-.17-.5.14"/><rect class="cls-7" x="420.03" y="316.15" width="9.27" height="32.3"/><rect class="cls-7" x="419.4" y="315.36" width="10.4" height="33.29"/></g><g class="cls-10"><path class="cls-6" d="M424.29,313.62A88.14,88.14,0,0,1,436,345.28c.05.33.55.19.5-.14a88.49,88.49,0,0,0-11.77-31.78c-.17-.29-.63,0-.45.26"/><rect class="cls-7" x="424.25" y="313.24" width="12.26" height="32.23"/><rect class="cls-7" x="423.56" y="312.24" width="13.52" height="33.29"/></g><g class="cls-10"><path class="cls-6" d="M428.92,309.76c2.78,4.88,5.81,9.7,8.28,14.74s3.64,10.94,5.07,16.5a.26.26,0,0,0,.5-.14c-1.3-5-2.29-10.28-4.38-15-2.48-5.66-6-11-9-16.32a.26.26,0,0,0-.45.26"/><rect class="cls-7" x="428.88" y="309.37" width="13.89" height="31.81"/><rect class="cls-7" x="428.77" y="309.12" width="14.56" height="32.25"/></g><g class="cls-10"><path class="cls-6" d="M434.43,305.88c3,3.89,6.71,7.05,9.51,11.1a47.73,47.73,0,0,1,6.68,14.81.26.26,0,0,0,.51-.14,49.38,49.38,0,0,0-5.8-13.52c-3-4.66-7.12-8.16-10.45-12.51-.2-.27-.66,0-.45.26"/><rect class="cls-7" x="434.38" y="305.51" width="16.76" height="26.47"/><rect class="cls-7" x="433.97" y="304.95" width="17.69" height="27.05"/></g><g class="cls-10"><path class="cls-6" d="M440.09,301.88c7.77,5.74,15.35,11.64,20.53,19.95.17.28.63,0,.45-.27-5.22-8.37-12.89-14.35-20.72-20.13-.27-.2-.53.25-.26.45"/><rect class="cls-7" x="439.97" y="301.38" width="21.13" height="20.57"/><rect class="cls-7" x="439.17" y="300.79" width="22.89" height="21.85"/></g><g class="cls-10"><path class="cls-6" d="M446.73,295.33c7.09,4.41,14,9,18.79,16,.19.27.64,0,.45-.27-4.81-7.1-11.8-11.76-19-16.22-.29-.18-.55.27-.27.45"/><rect class="cls-7" x="446.61" y="294.84" width="19.4" height="16.65"/><rect class="cls-7" x="446.45" y="294.55" width="19.77" height="17.69"/></g><g class="cls-10"><path class="cls-6" d="M451.86,288.53c5.74,4.31,12.23,7.54,17.35,12.65a.26.26,0,0,0,.37-.37c-5.15-5.14-11.68-8.39-17.46-12.73-.26-.2-.52.25-.26.45"/><rect class="cls-7" x="451.75" y="288.03" width="17.91" height="13.23"/><rect class="cls-7" x="451.65" y="287.27" width="18.73" height="14.56"/></g><g class="cls-10"><path class="cls-6" d="M456.43,283.81c4.08,4.72,10.3,5.71,15.42,8.87a.26.26,0,0,0,.26-.44c-5.07-3.14-11.27-4.12-15.31-8.8-.22-.25-.59.12-.37.37"/><rect class="cls-7" x="456.36" y="283.36" width="15.88" height="9.37"/><rect class="cls-7" x="455.81" y="283.11" width="16.64" height="10.4"/></g><g class="cls-10"><path class="cls-6" d="M462.19,277c3.14,3.53,7.32,5.48,11.6,7.3.3.13.57-.32.26-.45-4.23-1.8-8.38-3.71-11.49-7.22-.22-.25-.59.12-.37.37"/><rect class="cls-7" x="462.12" y="276.56" width="12.07" height="7.77"/><rect class="cls-7" x="462.05" y="275.83" width="12.48" height="9.36"/></g><g class="cls-10"><path class="cls-6" d="M463.87,269.42c3.55,2.7,7.27,5.41,11.88,5.58.33,0,.33-.51,0-.52-4.52-.17-8.16-2.88-11.62-5.51-.27-.2-.53.25-.26.45"/><rect class="cls-7" x="463.76" y="268.92" width="12.24" height="6.08"/><rect class="cls-7" x="463.1" y="268.54" width="13.52" height="7.28"/></g><g class="cls-10"><path class="cls-6" d="M465.58,263a37.62,37.62,0,0,0,12.06,5.69.26.26,0,0,0,.13-.5,37.15,37.15,0,0,1-11.93-5.64c-.27-.19-.53.26-.26.45"/><rect class="cls-7" x="465.47" y="262.53" width="12.49" height="6.19"/><rect class="cls-7" x="465.18" y="262.3" width="13.52" height="7.28"/></g><g class="cls-10"><path class="cls-6" d="M468,258a32,32,0,0,0,9.12,3.32c.33.06.47-.44.14-.5a31.45,31.45,0,0,1-9-3.27c-.29-.16-.56.29-.26.45"/><rect class="cls-7" x="467.82" y="257.5" width="9.58" height="3.81"/><rect class="cls-7" x="467.26" y="257.1" width="10.4" height="5.2"/></g><g class="cls-10"><path class="cls-6" d="M469.72,250.81q4,.87,8,1.61c.33.06.47-.45.14-.51-2.67-.48-5.32-1-8-1.6-.33-.07-.47.43-.14.5"/><rect class="cls-7" x="469.53" y="250.3" width="8.48" height="2.12"/><rect class="cls-7" x="469.34" y="249.82" width="9.36" height="3.12"/></g><g class="cls-10"><path class="cls-6" d="M472.53,244.19a9.51,9.51,0,0,0,4.21-.23.26.26,0,0,0-.14-.51,8.71,8.71,0,0,1-3.93.24c-.33-.05-.47.45-.14.5"/><rect class="cls-7" x="472.35" y="243.44" width="4.58" height="0.88"/><rect class="cls-7" x="471.42" y="242.54" width="6.24" height="2.08"/></g><g class="cls-10"><path class="cls-6" d="M475.36,235.93a8.47,8.47,0,0,1-2.91.36c-.34,0-.34.5,0,.52a8.92,8.92,0,0,0,3-.38c.32-.1.19-.6-.13-.5"/><rect class="cls-7" x="472.2" y="235.91" width="3.48" height="0.91"/><rect class="cls-7" x="471.42" y="235.25" width="5.2" height="2.08"/></g><g class="cls-10"><path class="cls-6" d="M323,249.54C304.26,261.45,282.2,264.4,260.61,267c-.33,0-.33.56,0,.52,21.68-2.64,43.83-5.6,62.63-17.56.28-.18,0-.62-.26-.44"/><rect class="cls-7" x="260.36" y="249.5" width="63" height="18.04"/><rect class="cls-7" x="260.24" y="248.78" width="63.46" height="19.77"/></g><g class="cls-10"><path class="cls-6" d="M332.6,259.43c-10.75,3.82-20.69,9.87-31.94,12.21-12.43,2.58-25.61,4.23-38.32,3.66-.33,0-.33.5,0,.52,12.23.54,24.69-1.14,36.71-3.35s22.34-8.51,33.68-12.54c.31-.11.18-.61-.13-.5"/><rect class="cls-7" x="262.1" y="259.42" width="70.81" height="16.5"/><rect class="cls-7" x="261.28" y="259.18" width="71.78" height="17.69"/></g><g class="cls-10"><path class="cls-6" d="M269,183.28c-11.24,4.34-22.48,8.25-34.68,8.27a.26.26,0,0,0,0,.52c12.23,0,23.54-3.93,34.82-8.28.31-.13.17-.63-.14-.51"/><rect class="cls-7" x="234.03" y="183.26" width="35.24" height="8.81"/><rect class="cls-7" x="233.19" y="183.24" width="36.41" height="9.36"/></g><g class="cls-10"><path class="cls-6" d="M301,216.87c-7.74,6.52-15,11.56-24.62,15q-13.75,4.94-27.7,9.33c-.34.11-.19.66.16.55,10.43-3.32,20.9-6.69,31.14-10.59,8.16-3.12,14.8-8.31,21.42-13.89.28-.23-.13-.63-.4-.4"/><rect class="cls-7" x="248.5" y="216.8" width="53" height="24.96"/><rect class="cls-7" x="247.75" y="216.53" width="54.1" height="26.01"/></g><g class="cls-10"><path class="cls-6" d="M305.89,228.24c-7.87,5.63-15.41,10.17-24.81,12.77-9.71,2.69-19.5,5.1-29.32,7.38-.35.08-.2.63.15.55,10.38-2.42,20.78-4.9,31-7.85,8.71-2.51,15.92-7.12,23.24-12.36.29-.21,0-.7-.29-.49"/><rect class="cls-7" x="251.56" y="228.19" width="54.75" height="20.76"/><rect class="cls-7" x="250.87" y="227.97" width="56.18" height="21.85"/></g><g class="cls-10"><path class="cls-6" d="M303.18,242.27c-14.69,8.68-31.35,12.17-47.89,15.45-.36.07-.21.62.15.55,16.59-3.29,33.3-6.81,48-15.51a.28.28,0,0,0-.29-.49"/><rect class="cls-7" x="255.08" y="242.23" width="48.53" height="16.05"/><rect class="cls-7" x="255.03" y="241.5" width="48.89" height="17.69"/></g><g class="cls-10"><path class="cls-6" d="M291.81,210.59c-13.76,10.08-30,15.21-46.14,20.1a.29.29,0,0,0,.15.55c16.19-4.91,32.47-10.05,46.28-20.16.29-.21,0-.7-.29-.49"/><rect class="cls-7" x="245.47" y="210.54" width="46.75" height="20.71"/><rect class="cls-7" x="244.63" y="210.29" width="47.85" height="21.85"/></g><g class="cls-10"><path class="cls-6" d="M284.67,201.9c-13.17,9.7-28.72,14.69-44.18,19.46-.33.1-.19.63.15.52,15.51-4.78,31.09-9.78,44.3-19.51.28-.21,0-.68-.27-.47"/><rect class="cls-7" x="240.3" y="201.85" width="44.76" height="20.05"/><rect class="cls-7" x="239.43" y="200.92" width="45.77" height="21.85"/></g><g class="cls-10"><path class="cls-6" d="M277.81,182.62c-11.46,10.44-26.2,15.25-41,18.61-.36.08-.21.62.15.54,15-3.37,29.75-8.23,41.29-18.75.27-.24-.13-.64-.4-.4"/><rect class="cls-7" x="236.56" y="182.55" width="41.73" height="19.24"/><rect class="cls-7" x="236.31" y="182.2" width="42.65" height="19.77"/></g><g class="cls-11"><path class="cls-12" d="M349.12,283.75c-6.2,6.16-8.22,16.4-7.67,24.8.21,3.3,5.37,3.32,5.16,0-.46-7,.9-15.94,6.16-21.15,2.36-2.34-1.29-6-3.65-3.65"/><rect class="cls-7" x="345.93" y="283.23" width="12.17" height="28.03"/><rect class="cls-7" x="345.54" y="283.11" width="13.52" height="29.13"/></g><g class="cls-11"><rect class="cls-7" x="392.72" y="324.41" width="12.68" height="37.03"/><rect class="cls-7" x="392.35" y="323.68" width="13.52" height="38.49"/></g><path class="cls-6" d="M363.68,364.56h0s0,0,0,0"/><path class="cls-13" d="M359.27,280c-6.2-4.44-14-.57-17.88,5.12-5.56,8.24-6.07,20-5.55,29.52,1,19,8.73,36.86,23,49.58.69.61,1.7-.39,1-1a68.58,68.58,0,0,1-21.41-39.14,74.38,74.38,0,0,1-.19-25.56c1.78-9.78,8.25-23.17,20.51-17.63a.5.5,0,0,0,.51-.87"/><path class="cls-13" d="M330.29,361.49c-8.27-1.26-16.06-4.15-23.63-7.68a42.49,42.49,0,0,1-18.83-16.07.17.17,0,0,0-.3.18c4.55,7.61,9.9,12.25,17.91,16.11,7.45,3.58,16.41,7.94,24.82,7.63.09,0,.13-.16,0-.17"/><path class="cls-13" d="M410.06,356.12c-3.35-1.91-5.29-7.07-6.33-10.72a21,21,0,0,1,2.47-16.8c4.65-7.87,14.67-13,21.61-18.85.34-.29-.15-.77-.48-.49-9,7.39-21.75,13.51-24.64,25.79-1.12,4.79-.21,9.38,1.65,13.83,1.42,3.39,2,6.06,5.5,7.61.25.11.47-.23.22-.37"/><path class="cls-13" d="M468.13,219.28c6,13.38,3.25,27.53-1.94,40.69-4.76,12.08-10.45,23.66-18.1,34.19-.08.1.09.23.18.13,9.14-10.28,14.88-24,19.56-36.76,4.46-12.18,7-26.41.47-38.35-.06-.12-.23,0-.17.1"/><path class="cls-13" d="M360,279c-3.08-2.58-6.51-4.71-9.59-7.33s-5.87-5.51-8.68-8.43c-.22-.23-.55.11-.35.35,4.89,5.88,11.54,12.23,18.53,15.52.07,0,.15-.05.09-.11"/><path class="cls-13" d="M281.81,384.06c4.18-.14,10,.36,11.94,4.77.16.36.65.09.59-.25-.78-4.67-8.93-5.93-12.59-4.95a.22.22,0,0,0,.06.43"/><path class="cls-13" d="M391.75,382a9.79,9.79,0,0,0-8.93,3.89c-2.07,2.64-3.6,7.34-2.29,10.62a.29.29,0,0,0,.56-.15c-1.16-7.2,3.28-13.53,10.63-14.09.14,0,.2-.25,0-.27"/><g class="cls-11"><rect class="cls-7" x="315.58" y="228.71" width="12" height="24.72"/><rect class="cls-7" x="315.37" y="227.97" width="12.48" height="26.01"/></g><g class="cls-10"><path class="cls-6" d="M407,330.36c.92,7.79.36,15.56-.3,23.36,0,.33.49.42.52.09.66-7.85,1.23-15.65.29-23.5a.26.26,0,0,0-.51.05"/><rect class="cls-7" x="395.24" y="339.89" width="23.63" height="4.3" transform="translate(-0.48 683.52) rotate(-80)"/><rect class="cls-7" x="394.15" y="339.71" width="24.97" height="5.2" transform="translate(-1.09 683.32) rotate(-80)"/></g><g class="cls-10"><path class="cls-6" d="M411.42,324c3.16,9.58,3.54,21.27,3.8,31.32,0,.34.53.29.52-.05-.26-10.13-.64-21.77-3.83-31.45-.11-.32-.59-.14-.49.18"/><rect class="cls-7" x="398.19" y="334.71" width="30.77" height="9.72" transform="translate(7.35 687.89) rotate(-80)"/><rect class="cls-7" x="397.96" y="334.38" width="31.21" height="10.4" transform="translate(7.32 687.89) rotate(-80)"/></g><path class="cls-12" d="M236.05,300.59c-1.19,9.08,1.36,27,11.44,44.45,1.51,2.62-.9,2.27-2.69-.15-11.19-15.1-15.1-35.48-11.66-47.4"/><g class="cls-10"><path class="cls-6" d="M334.32,318c-11.46,10.44-26.2,15.25-41,18.6-.36.08-.21.63.15.55,15-3.38,29.75-8.24,41.29-18.75.27-.25-.13-.65-.4-.4"/><polygon class="cls-7" points="290.72 338.75 334.81 337.19 334.81 317.95 293.07 317.95 290.72 338.75"/><rect class="cls-7" x="292.23" y="317.74" width="42.65" height="19.77"/></g></g><g id="body-shadow"><path class="cls-14" d="M256.49,265.84c6.28,19.7,13.84,35.5,21.07,52.59,7.52,17.79,24,40,47.93,44-8,11-14.09,34-14.09,34s-4,6-10.2,4.86c.51-2.81-.19-9.39.8-15.53s1.26-12.14-1.1-14.42c-4.64-4.49-10.33-8.05-16-11.69s-11.43-7.35-16.16-12.15c-7.08-7.21-12.42-16.93-15.82-27.35s-5.57-19.73-4.94-29.69a89.22,89.22,0,0,1,1.73-11.74C250.52,274.52,252,270,256.49,265.84Z"/><path class="cls-15" d="M256.49,265.84c6.28,19.7,12.31,40.21,20.19,56,8.63,17.28,24.92,36.61,48.81,40.59-8,11-14.09,34-14.09,34s-4,6-10.2,4.86c.51-2.81-.19-9.39.8-15.53s1.26-12.14-1.1-14.42c-4.64-4.49-10.33-8.05-16-11.69s-11.43-7.35-16.16-12.15c-7.08-7.21-12.42-16.93-15.82-27.35s-5.57-19.73-4.94-29.69a89.22,89.22,0,0,1,1.73-11.74C250.52,274.52,252,270,256.49,265.84Z"/><path class="cls-14" d="M323.58,208.17c8,2.19,22.73-1.13,51.55,14.81a149,149,0,0,1,20.2,14.7c7.9,7.15,18,18.37,18.09,18.56s7.65-2.88,12.65-5.12c6.55-2.93,16.57-13.44,16.57-13.37s-6,10.75-9.41,14c-7.37,7.11-20.68,20.34-31.06,10.91-7.26-6.59-13.89-13.89-21.26-20.37-8.4-7.4-21.08-14.49-32.34-20.66-4.25-2.33-8.83-4.3-12.4-6-11.5-5.33-36.07-8.62-40.77-25.18,1,.65,2.09.12,3.08.77C312.27,207.63,311.76,204.94,323.58,208.17Z"/><path class="cls-14" d="M425.8,310.24c-6.54,6.84-30.39,17.45-21.92,37.46,6.18,14.61,16.5,12,16.7,16.65.41,9.79-9.19,16.12-10.42,24.35l-8.92,13.08a5.56,5.56,0,0,1-3.82,2.39c-8.73,1.26-45.69-.34-47.27-1-.43-.17,8.54-.6,14.29-4.46.42-.28,14.27,1,13.74,1-1.5,0,6.56,2.36,6.91,2.36a35.6,35.6,0,0,0,12.8-2.44c4.72-3.43,3.88-11.54,7.11-16.05,4-5.59,4-13.19,4-15.37-.06-5.13-11.39-3.71-14.77-8.1-7.68-10-6-28.83-.19-39,7.06-12.29,21.68-11.66,33.33-15.46,3.46-1.12,9.48-4.1,9.65-4.1S429.15,306.74,425.8,310.24Z"/><path class="cls-14" d="M302.69,402.29a92.18,92.18,0,0,0-11.53.37c-3.58.25-7.24.42-10.8.37-2.24,0-4.76.35-7,.09a77.78,77.78,0,0,0-7.93-.1c-2.69,0-5.34-.29-8-.33-1.77,0-3.36.38-5.11,0a6,6,0,0,1-3.62-2.76c-.05-.11-.53-1.56-.32-1.61s.78.67.89.74c.62.36,1.25.71,1.86,1.08,1.85,1.16,4.37,1.24,6.46,1.49A6.79,6.79,0,0,0,261,401c.16-.11.32-.33.54-.38s2.09,1.33,2.54,1-.14-2.09.39-2.19c.24-.05.69.38,1,.45a22,22,0,0,0,4,.92c1.85.13,4.6.43,6.36-.29.56-.23,1.42-1.08,2-1.18.06,0,.14.08.16.12.44.73,1.79,2,2.81,1.94.58,0,.3-2.29.51-2.35s1.16.59,1.46.66a21,21,0,0,0,4.33.54c5.46.08,11.31-1.77,15-6"/><path class="cls-14" d="M299.41,192.86c-6.61,1.78-8.27,5.75-11.49,11.5-6.57-15.64-15.53-5-26.89-5.12-9.6-.12-18.71-3.8-28-4.84l-1.32-13.86C251.58,183.37,287.74,164,299.41,192.86Z"/><g class="cls-16"><path class="cls-14" d="M471.18,223.06c3.53,14.1,7.27,29.85-.09,57.74-8.24,31.21-36.16,50-67.27,57.09a15.64,15.64,0,0,1-.42,3c-.13.55-.22.91-.45,1.75a1,1,0,0,0,0,.13,21.39,21.39,0,0,0,.78,3.22c.2.62,1.06,3,1.53,4.39a24.44,24.44,0,0,0,3.16,5.65,4.87,4.87,0,0,0,.45.27c2.71-.78,5.47-1.69,8.29-2.7,45-16.14,61.86-59.77,60-106.31C476.81,240.12,474.38,229.41,471.18,223.06Zm-230.65-7.44c7.06,21.75,9,24.67,20.25,50.94,4.63,10.81,3.88,11.17,14.4,38.39,12.76,33,23.42,51.3,66,54.36,5.41.39,9.76.57,14.43.81a38.48,38.48,0,0,1-9-11.76,53.86,53.86,0,0,1-3.39-7.61,20.43,20.43,0,0,1-1-4v-.07c-8.06-2.33-16-5.28-23.9-8.06-25.33-8.92-37.71-38.3-49.28-58.78C256.3,247.25,252.18,238.76,240.53,215.62Z"/><path class="cls-15" d="M471.18,223.06c3.53,14.1,7.27,29.85-.09,57.74-8.24,31.21-36.16,50-67.27,57.09a15.64,15.64,0,0,1-.42,3c-.13.55-.22.91-.45,1.75a1,1,0,0,0,0,.13,21.39,21.39,0,0,0,.78,3.22c.2.62,1.06,3,1.53,4.39a24.44,24.44,0,0,0,3.16,5.65,4.87,4.87,0,0,0,.45.27c2.71-.78,5.47-1.69,8.29-2.7,45-16.14,61.86-59.77,60-106.31C476.81,240.12,474.38,229.41,471.18,223.06Zm-230.65-7.44c7.06,21.75,9,24.67,20.25,50.94,4.63,10.81,3.88,11.17,14.4,38.39,12.76,33,23.42,51.3,66,54.36,5.41.39,9.76.57,14.43.81a38.48,38.48,0,0,1-9-11.76,53.86,53.86,0,0,1-3.39-7.61,20.43,20.43,0,0,1-1-4v-.07c-8.06-2.33-16-5.28-23.9-8.06-25.33-8.92-37.71-38.3-49.28-58.78C256.3,247.25,252.18,238.76,240.53,215.62Z"/><rect class="cls-7" x="230.07" y="205.09" width="260.08" height="165.41"/></g></g><g id="body-outline"><path class="cls-17" d="M320.9,226.61c-.68,2-1.32,3.92-2,5.89a53.53,53.53,0,0,0-4,5.29l-3.21-5.9a5.24,5.24,0,0,0-3.27-2.7l-.74-1.24a4.71,4.71,0,0,0-.22-.73c-.41-1.1-.85-2.2-1.29-3.29a12.31,12.31,0,0,0,7.36,1.57,6,6,0,0,0,5.4-5.21c1.57.38,3.13.73,4.71,1A17.94,17.94,0,0,0,320.9,226.61Zm150.78-7.17a70.14,70.14,0,0,0-12-17.78c-2.12-2.24-4.54-4.71-7.08-7a7.31,7.31,0,0,0-1.08-.55,36.81,36.81,0,0,1,1.3,6.74,45.42,45.42,0,0,1-3.45,23.24c-6.89,16.4-19.51,26.76-35.86,31.15a42,42,0,0,0-3-3.23,41.74,41.74,0,0,0-2.75-3.32,114.54,114.54,0,0,0-9-9.17,133.55,133.55,0,0,0-17.49-13.43c-1-.67-2.14-1.36-3.27-2.08a22.51,22.51,0,0,0-3.76-2.27c-4-3.3-9.76-5.35-13.92-6.89-9-3.31-18.51-4.81-28-6.16s-18.34-1.61-25.63-8.89a51.75,51.75,0,0,1-10.11-14c-.47-1.5-.92-3-1.32-4.57-.07-.38-.16-.75-.22-1.13-.74-4.58,0-9.76-.67-14.42a20.2,20.2,0,0,1,1.58-4.35,3.83,3.83,0,1,0-7-3A33.53,33.53,0,0,0,287.5,163,11.64,11.64,0,0,0,286,164.2c0-.55-.09-1.1-.12-1.65A5.7,5.7,0,0,0,280,157a5.52,5.52,0,0,0-1.91.43,5.7,5.7,0,0,0-4.42.5,5.79,5.79,0,0,0-7.59-.9c-2.19-1.71-5.5-1.82-7.23.77a5,5,0,0,0-2.27-1.65,54.26,54.26,0,0,0-1.6-8.78,4.22,4.22,0,0,0-8-.38,4.43,4.43,0,0,0-5.8,2.55h0c-.37,1-.69,2.08-1,3a2.65,2.65,0,0,0-3.12-.2l-.11.09a20,20,0,0,0-.56-6.07c-.48-1.68,6.75-9.12,5.17-7.93-10.33,7.9-11.34,3.24-10.68,42.07.26,16.23,4.35,33,9.78,47.25,4.53,11.9,9.24,23.93,14.73,35.44a23.94,23.94,0,0,0-10.65,4.87,39.66,39.66,0,0,0-13,17.57c-6.06,15.68-2.8,32.85,3.3,47.93,5.88,14.57,13.49,27.74,27.81,34.8a50.17,50.17,0,0,0,17.95,4.68,13.34,13.34,0,0,1,.3,3.78,19.83,19.83,0,0,1-1.76,6.56,9.28,9.28,0,0,0-2.08,1.27c-2.76-4-9.55-4.16-13.09-.57-3.38-3-9.68-2.08-12.92.93a17.73,17.73,0,0,0-4.66,8.23,23.13,23.13,0,0,0,0,3.33c.25,1.1.53,2.2.88,3.27v.05a7.3,7.3,0,0,0,5,3.75c14.33.15,28.67.65,43-.19,3.37-.2,6.74-.28,10.11-.33a15.3,15.3,0,0,0,7.64-6.43c.77-2.16,1.42-4.36,2-6.35,2.14-6.67,3.89-13.52,7.28-19.65,1.61-2.91,3.61-5.72,5.05-8.69,4.16,1,9,1,12.13,1,6.24.2,12.79.71,19.2.41,5.49,4.59,18.85,9.61,18.85,9.61,1.93.62.78,5.65.63,6-.4,1-4.4,2.88-5.35,3.18a13.47,13.47,0,0,0-5.31,3.36,12.61,12.61,0,0,0-9.56-3.68c-6.5.45-10,6.33-11.12,12.38a22.85,22.85,0,0,0-.51,4.81,11,11,0,0,0,1.44,2.37,13.35,13.35,0,0,0,2.94,1.61c9,0,18,.29,27,.57,2.41-.55,2.16-.13,4.6.28a123.42,123.42,0,0,0,12.57,0,45.16,45.16,0,0,0,6.18-1c.42-.07,20.35-34.13,20-38.29a22.05,22.05,0,0,0-1.67-3,32.71,32.71,0,0,1-4.34-2.84,30.06,30.06,0,0,1-2.82-1.74c8.83-2,17.75-8,24.58-12.35a88.89,88.89,0,0,0,18.13-15.19,103.8,103.8,0,0,0,6.77-9.57c1.87-3,3.73-6.06,5.49-9.17,1-2.3,2-4.58,3-6.84a140.59,140.59,0,0,0,8.69-38.77C480.2,249.85,478.36,233.49,471.68,219.44Z"/></g><g id="head-background"><polyline class="cls-6" points="275.94 187.19 275.94 187.18 275.94 187.19"/><path class="cls-6" d="M276.49,187.55l.36.36h0l-.36-.36h0"/><path class="cls-12" d="M254.67,116.61c3.27-6.69,4.21-15.06,5.07-22.43.84-7.07-.18-13.75-.56-20.78,0,0,0,0,0,0,2.79,4.38,5.93,8.8,8.46,13.47,1,2.26,2,4.54,2.8,6.85.08.28.16.56.23.84,2,7.86,3.12,16.12,1.23,24.11a.76.76,0,0,1,0,.15.77.77,0,0,1-1,.69c-1,1.32-3.29,1.26-4.83,1.18-3.6-.2-7-1.57-10.35-2.87a.86.86,0,0,1-1-1.19"/><path class="cls-2" d="M254.67,116.61c3.27-6.69,4.21-15.06,5.07-22.43.84-7.07-.18-13.75-.56-20.78,0,0,0,0,0,0,2.79,4.38,5.93,8.8,8.46,13.47,1,2.26,2,4.54,2.8,6.85.08.28.16.56.23.84,2,7.86,3.12,16.12,1.23,24.11a.76.76,0,0,1,0,.15.77.77,0,0,1-1,.69c-1,1.32-3.29,1.26-4.83,1.18-3.6-.2-7-1.57-10.35-2.87A.86.86,0,0,1,254.67,116.61Z"/><path class="cls-3" d="M173,159c.59-4.93.62-9.93,1.85-14.78a36.75,36.75,0,0,1,3.54-9.3c.83-2,2.07-3.92,3.93-4.59,2.57-1.68,7.16-1.81,9.56-2.09,6-.71,12.56-1.71,18.62-.84,1.67-4,3.92-8.23,8.33-9.76,2.4-.83,4.63-.39,7,.15a53.88,53.88,0,0,1,5.38,1.13l2.07.19c2.8-1.91,5.71-3.65,9.2-4,2.86-.31,6.64,0,9.13,1.64a5.16,5.16,0,0,1,.55.17h0a25.48,25.48,0,0,1,5.92,0c1.87.08,3.74.21,5.6.34,2.1,0,4.24.06,6.33.2,1,.13,2,.25,3.06.36,2.35.26,4.52.85,6.74.26a.26.26,0,0,0,0,.08l.28.61a2.44,2.44,0,0,0,.33.54c.63,1.22,1.3,2.43,2,3.64.56,1,1.13,2.06,1.72,3.08.14.24.3.47.44.71,1.08,1.88,2.15,3.77,3.14,5.7l.05.12a9.47,9.47,0,0,0,1.3,2,2.09,2.09,0,0,0,.2.22c.1.1.18.21.28.3,1.15,2.27,2.28,4.54,3.31,6.86l.8,2.28c1.39,4,2.8,8,3,12.25a35.2,35.2,0,0,1-.5,7.37s0,.1,0,.15a18.3,18.3,0,0,1-.89,3.73,34.19,34.19,0,0,1-6.1,11.89,29.89,29.89,0,0,1-19.87,11,46.79,46.79,0,0,1-13.21-.48c-3.81-.64-8.44-1.27-12-3-.34-.06-.69-.17-.93-.23-.45-.11-.89-.24-1.34-.38-1.66-.26-3.32-.76-5-1a23.39,23.39,0,0,0-9.75.24c-5.15,1.38-9.69,4.6-14.53,6.71a26.82,26.82,0,0,1-13.32,2.47c-1.25-.12-2.55-.29-3.87-.5l-.74-.13a27.14,27.14,0,0,1-8.61-2.86,5.31,5.31,0,0,1-1.36-.79c-3.81-1.77-3.73-6.31-4.46-9.86-.48-2.35-2.09-4.13-2.7-6.38a4.37,4.37,0,0,1-.17-1.63,4.61,4.61,0,0,1-5.12-3.28c-.93-3-.28-7,.75-10.42"/></g><g id="head-detail"><path class="cls-18" d="M181.06,172.82a12.6,12.6,0,0,0-.11,2,10,10,0,0,0,.05,2.38c.15.6,1.67.7,1.86.51.44-.44,1.58,2.46,2,1.09.6-1.85,10.74-.91,11.58,1.62.31.91.86.31,1.57,1s.74-.58,1.42.09c1,1,.85,1.77,2.9,2.28,1.26.31,4.16-3.49,5-4.32a42,42,0,0,1,3.47-3.73c1.8-1.44,3.9-2.17,5.85-3.39,1.37-.86,2.6-2.39,4.23-2.79.77-.2,2.07,1.92,3.65,1.61s2-2,3.38-2.29c1.06-.21,3,.09,3.82-.6,1.35-1.08,2-3.29,3.56-4,1.75-.78,3.52-.32,5.25-1.18.14-.07.36-.22.25-.43-.24-.49-2.5-.25-3.13-.25a21.16,21.16,0,0,0-4,.3c-.17.31-.13,2.08-1.07,3.15a5.4,5.4,0,0,1-2.79,1.55,3.42,3.42,0,0,1-1.73-.34l-1.06-1c-.07,0-.17,1.68-.21,1.83a2.1,2.1,0,0,1-1.75,1.68c-1,.17-2.67.14-3.4-.58a3.38,3.38,0,0,1-.42-1.67,10,10,0,0,0-1.15.83c-1.32,1-2.2,1.42-3.54,2.5-1.95,1.56-4,2.53-6,3.83a6.92,6.92,0,0,1-2.43.79c-.19,0-.31,1.61-1.22,3a13.68,13.68,0,0,1-4,3.81c-1.66.83-1.3-2.79-1.3-3.76a12.88,12.88,0,0,1,.27-2.07c0-.18.07-.82.08-.79s-3.09,3.71-3.73,3.39c-1-.49-.52-5-.74-6.09s-4.36-3.76-5.59-4.07-3.79-1.08-5-.17c-.53.4-2,1.3-2.05,1.31a4.71,4.71,0,0,0-.27,1.36c0,.18,0,1.87,0,2.31s0,1.26,0,2.1a12.22,12.22,0,0,1-.2,2A12.49,12.49,0,0,1,181.06,172.82Z"/><path class="cls-14" d="M282.09,159.84c-.32-.63-4.71,8.34-4.71,8.34s-3.51,5.59-8.14,8.38a45.13,45.13,0,0,1-5.05,2,61.85,61.85,0,0,1-7,1.4c-2.25.42-5-.1-7.31,0-7,.33-14.34-3-21.36-1.3-5.39,1.33-10.53,4.15-15.44,6.75-2.2,1.16-4.58,3.25-7.21,3.28-1.56,0-3.46-1.67-4.29-2.87-.16-.23-2-4.24-2.16-4.26s-.41,4.2-.61,4.54c-.69,1.14-2.68,3.75-5.32,3.35-4.71-.71-7.22-1.29-9.15-3.22-.87-.88,1-7.88,1.17-8.37.12-.32-3.71-.39-4.06-.42-.52-.06,1.56,7.18,1.69,8,.77,4.77,4.3,5.91,8,7a46.21,46.21,0,0,0,7.15,1.57c6,.33,5.8.12,11.27-1.07,2.06-.45,4.86-2.24,6.69-3.34,2.15-1.3,4.41-2.36,6.65-3.49a23.7,23.7,0,0,1,8.54-2.29c4.53-.14,9.69,1.79,13.89,3a91.33,91.33,0,0,0,13.21,3,29.84,29.84,0,0,0,8.66.25c4.64-.53,5.27-.85,9.12-2.74,5-2.44,7.24-7.26,8.23-9.35a33.47,33.47,0,0,0,1.18-5C286.21,168.44,283.87,163.33,282.09,159.84Z"/><path class="cls-14" d="M232.78,119.93c.35-.15-3.8-.13-4.27-.24-3-.71-5.92-2.51-9-1.91-3.69.72-6.92,4.49-8,7.74-.19.54,0,2.87-.6,2.88a13.9,13.9,0,0,0,1.81.11c1.33-.25,2.76-.14,4.08-.47a32.47,32.47,0,0,0,10.52-4.52C228.33,122.82,232,120.27,232.78,119.93Z"/><polyline class="cls-6" points="271.13 174.46 271.13 174.45 271.13 174.46"/><path class="cls-6" d="M270.59,174.81l-.36.37h0l.36-.36h0"/><g class="cls-11"><rect class="cls-7" x="178.88" y="130.77" width="21.71" height="15.85"/><rect class="cls-7" x="178.05" y="130.18" width="22.89" height="16.64"/></g><g class="cls-11"><path class="cls-12" d="M242.93,118.23a22.23,22.23,0,0,0-8.3,3c-3.69,2.37-.26,8.29,3.45,5.9a17.33,17.33,0,0,1,6.67-2.3c1.82-.31,2.84-2.56,2.39-4.21a3.51,3.51,0,0,0-4.21-2.39"/><rect class="cls-7" x="233.05" y="118.17" width="14.2" height="9.52"/><rect class="cls-7" x="232.15" y="117.7" width="15.6" height="10.4"/></g><path class="cls-18" d="M251.36,118.24a5.82,5.82,0,0,1,1.37.71c.38.37.69.48,1.08.85.6.54,1.19,1.09,1.74,1.67,1.53,1.58,2.92,3.22,4.59,4.68,3.79,3.32,8.54,5.81,13.09,7.94,2.45,1.15,5.69,1.57,8.34,2,1,.15,1.94.23,2.91.33a2.91,2.91,0,0,1,.78.15c.15,0,.24,0,.19-.12-.24-.66-1.21-1.17-1.72-1.6a42.92,42.92,0,0,1-5.05-4.47,45.78,45.78,0,0,1-5.12-8.15,12.61,12.61,0,0,1-.7-3.14s-1,0-1.19-.09a7.85,7.85,0,0,0-1.36-.21c-.53,0-4.65-.63-6.44-.86a31.54,31.54,0,0,0-4.46-.1c-1.72.08-3.55.15-5.27.08A22.28,22.28,0,0,0,251.36,118.24Z"/><path class="cls-19" d="M254.17,121a48.8,48.8,0,0,0,10.06,9.14"/><path class="cls-2" d="M174.27,159.17c.57-4.93.6-9.93,1.79-14.78a37.74,37.74,0,0,1,3.42-9.3c.81-2,2-3.92,3.81-4.59,2.49-1.68,6.94-1.81,9.26-2.09,5.83-.71,12.16-1.71,18-.84,1.62-4,3.79-8.23,8.07-9.76,2.32-.83,4.48-.39,6.81.15a48.47,48.47,0,0,1,5.21,1.14c.67.06,1.33.13,2,.18,2.71-1.91,5.53-3.65,8.91-4,2.78-.31,6.43,0,8.84,1.64l.54.17h0a23.45,23.45,0,0,1,5.74,0c1.81.09,3.62.21,5.42.34,2,0,4.11.06,6.13.2,1,.13,2,.25,3,.36,2.28.26,4.37.86,6.52.26a.26.26,0,0,1,0,.08l.27.61a2.85,2.85,0,0,0,.32.54c.62,1.22,1.27,2.44,1.93,3.64.54,1,1.1,2.06,1.67,3.08.14.24.29.47.42.71,1.05,1.88,2.08,3.77,3,5.7l.05.12a9.72,9.72,0,0,0,1.26,2,2.09,2.09,0,0,0,.2.22,3.85,3.85,0,0,0,.27.3c1.11,2.27,2.2,4.54,3.2,6.86l.77,2.28c1.35,4,2.71,8,2.88,12.26a35.14,35.14,0,0,1-.49,7.36.76.76,0,0,1,0,.15,19.49,19.49,0,0,1-.86,3.73,34.46,34.46,0,0,1-5.91,11.89,28.67,28.67,0,0,1-19.24,11,43.9,43.9,0,0,1-12.79-.48c-3.68-.64-8.18-1.27-11.62-3-.33-.06-.67-.17-.9-.23-.43-.11-.86-.24-1.29-.38-1.62-.26-3.22-.75-4.82-1a21.94,21.94,0,0,0-9.44.24c-5,1.38-9.38,4.6-14.07,6.71A25.22,25.22,0,0,1,199.72,195c-1.21-.12-2.48-.29-3.75-.5l-.72-.13a25.62,25.62,0,0,1-8.33-2.86,4.68,4.68,0,0,1-1.32-.79c-3.69-1.77-3.62-6.31-4.32-9.86-.46-2.35-2-4.13-2.62-6.38a4.57,4.57,0,0,1-.16-1.63,4.47,4.47,0,0,1-5-3.28C172.64,166.62,173.28,162.58,174.27,159.17Z"/><g class="cls-11"><path class="cls-3" d="M194,177.8l-4.3-.39c-3.15-.28-6.44,2.25-6.6,5.33a5.86,5.86,0,0,0,5.47,6.2l4.3.39c3.15.29,6.44-2.25,6.6-5.33a5.86,5.86,0,0,0-5.47-6.2"/><rect class="cls-7" x="185.13" y="179.84" width="13.78" height="11.37"/><rect class="cls-7" x="184.29" y="179.08" width="15.6" height="12.48"/></g><path class="cls-13" d="M240.81,161.26c-.65,0-1.38.12-1.95.13a41.54,41.54,0,0,0-8.68.91c-7.18,1.72-11.63,6.3-17.75,9.95-5.26,3.15-9.93,2.93-14.59-1.07a17.62,17.62,0,0,0-5.37-3.67c-6.43-2.33-7.94,3.09-13.33,4.77-.31.1-.26.67.1.62,2.43-.28,3.44-1.84,5.33-3.18,7.41-5.27,10.46,1.84,16,4.81,6,3.25,12.05-1.33,16.71-4.81,4.28-3.21,8.69-5.72,14-6.83,3.24-.68,6.68-.32,10-.65,0,0,0,0,0,0C241.07,161.92,241,161.55,240.81,161.26Z"/><path class="cls-13" d="M234,119c.05.32-6.58,4.47-7.21,4.88a30.71,30.71,0,0,1-10,4.21c-.3.07-.25.58.07.55,6.53-.6,12.52-5.25,17.39-9.3a.23.23,0,0,0,0-.27l-.06-.1a.1.1,0,0,0-.14,0l0,0a0,0,0,0,0,0,0"/><path class="cls-13" d="M252.73,127.73c.38.88,1,1.65,1.31,2.55a11.34,11.34,0,0,1,.64,2.75c0,.12.2.17.23,0a6.24,6.24,0,0,0-1.92-5.53.17.17,0,0,0-.26.2"/><path class="cls-13" d="M252.62,135.64c-.2-.22-.36-.13-.51.27a8.62,8.62,0,0,1-.76.72,9.39,9.39,0,0,1-2.12,1.4,11.81,11.81,0,0,1-4.93,1.09c-.15,0-.2.25,0,.27,3.26.44,7.15-1.09,8.8-4a.14.14,0,0,0-.24-.14l-.24.41s0,0,0,0"/><path class="cls-12" d="M226.33,155.32a10.91,10.91,0,0,0-1.15-4.67.7.7,0,0,1,.7-.28c2.66.61,5,3.44,5.93,5.92.85,2.32,1.71,6.91.19,9.12s-4.33,1.18-5.32-.79c-1.43-2.83.11-6.28-.35-9.3"/><path class="cls-19" d="M226.33,155.32a10.91,10.91,0,0,0-1.15-4.67.7.7,0,0,1,.7-.28c2.66.61,5,3.44,5.93,5.92.85,2.32,1.71,6.91.19,9.12s-4.33,1.18-5.32-.79C225.25,161.79,226.79,158.34,226.33,155.32Z"/><path class="cls-12" d="M222.69,159.59a3,3,0,0,1,1.42,1.09h0a4.42,4.42,0,0,1,1,1.22,5.86,5.86,0,0,1,1.26,4.41,3.21,3.21,0,0,1-.75,2c-.57.55-1.43.49-2.12.75a1.13,1.13,0,0,1-1.39-.78,23.6,23.6,0,0,1-.36-3.55,34.66,34.66,0,0,0-.62-4.17,1,1,0,0,1,1.59-.95"/><path class="cls-19" d="M222.69,159.59a3,3,0,0,1,1.42,1.09h0a4.42,4.42,0,0,1,1,1.22,5.86,5.86,0,0,1,1.26,4.41,3.21,3.21,0,0,1-.75,2c-.57.55-1.43.49-2.12.75a1.13,1.13,0,0,1-1.39-.78,23.6,23.6,0,0,1-.36-3.55,34.66,34.66,0,0,0-.62-4.17A1,1,0,0,1,222.69,159.59Z"/><path class="cls-12" d="M202.28,177.44c0-.06,0-.12.05-.17s0-.31,0-.45A10.44,10.44,0,0,1,203,174a1.29,1.29,0,0,1,.6-.67c.65.15,1.41.33,2.11.52l.76.36a.4.4,0,0,1,.15.1.73.73,0,0,1,.63.66,3.73,3.73,0,0,1-.19,1.52.86.86,0,0,0-.15.35s0,0,0,.06a13.45,13.45,0,0,1-2.86,3.73,17.6,17.6,0,0,1-1.7.95s0,0,0,0a36.89,36.89,0,0,0,0-4.07"/><path class="cls-19" d="M202.28,177.44c0-.06,0-.12.05-.17s0-.31,0-.45A10.44,10.44,0,0,1,203,174a1.29,1.29,0,0,1,.6-.67c.65.15,1.41.33,2.11.52l.76.36a.4.4,0,0,1,.15.1.73.73,0,0,1,.63.66,3.73,3.73,0,0,1-.19,1.52.86.86,0,0,0-.15.35s0,0,0,.06a13.45,13.45,0,0,1-2.86,3.73,17.6,17.6,0,0,1-1.7.95s0,0,0,0A36.89,36.89,0,0,0,202.28,177.44Z"/><path class="cls-12" d="M198.05,172a.93.93,0,0,1,.16-.18c1.19.28,2.38.6,3.56.94a.81.81,0,0,1,.33.86,8.21,8.21,0,0,1-3.15,4.22.82.82,0,0,1-.55.14,20.74,20.74,0,0,0-.35-6"/><path class="cls-19" d="M198.05,172a.93.93,0,0,1,.16-.18c1.19.28,2.38.6,3.56.94a.81.81,0,0,1,.33.86,8.21,8.21,0,0,1-3.15,4.22.82.82,0,0,1-.55.14A20.74,20.74,0,0,0,198.05,172Z"/><path class="cls-12" d="M183.73,169.78h.08l0,0h.09a21.15,21.15,0,0,0-.2,3.7c0,.94,0,1.89-.06,2.83a.76.76,0,0,1-.2-.2,12.22,12.22,0,0,1-1.89-3.52,2.29,2.29,0,0,1,.57-2.27c.53-.18,1.06-.36,1.58-.56"/><path class="cls-19" d="M183.73,169.78h.08l0,0h.09a21.15,21.15,0,0,0-.2,3.7c0,.94,0,1.89-.06,2.83a.76.76,0,0,1-.2-.2,12.22,12.22,0,0,1-1.89-3.52,2.29,2.29,0,0,1,.57-2.27C182.68,170.16,183.21,170,183.73,169.78Z"/><path class="cls-12" d="M178,174.25a3.93,3.93,0,0,1,0-1c.63-.48,1.28-1,2-1.41a.94.94,0,0,0,.44-.16,43.87,43.87,0,0,0-.35,6.12,16.43,16.43,0,0,1-2.06-3.58"/><path class="cls-19" d="M178,174.25a3.93,3.93,0,0,1,0-1c.63-.48,1.28-1,2-1.41a.94.94,0,0,0,.44-.16,38.51,38.51,0,0,0-.35,6.12A16.43,16.43,0,0,1,178,174.25Z"/><path class="cls-12" d="M249.48,138.17a16.74,16.74,0,0,0,4.72-5c1.72-3-2.8-6.16-4.54-3.13a13.07,13.07,0,0,1-3.82,4c-1.16.85-1.06,2.85-.15,3.9a2.71,2.71,0,0,0,3.79.3"/><path class="cls-13" d="M234.57,138.54c2.34-4.59,5.07-10,10.08-12.11,3.06-1.3,7.68-1.19,9.28,2.11,0,.44-.08.88-.13,1.31l0,0s0,.08,0,.11c0,.31-.09.62-.14.92a27.2,27.2,0,0,1-.83,2.86,20.55,20.55,0,0,1-2.88,4.43,11.15,11.15,0,0,1-1,.75c-3.14,2-6.59,1.35-10.07,1.41a2.61,2.61,0,0,0-.57-.09,30.35,30.35,0,0,1-3.81-.52,1.42,1.42,0,0,1,.07-1.2"/><path class="cls-13" d="M204.36,139.21c-.58.58-1.79.57-2.56.78a10.55,10.55,0,0,0-2.82,1.16l-.14.1a7.08,7.08,0,0,1,1-3.21,3.16,3.16,0,0,1,2.14-1.41,11.13,11.13,0,0,1,1.83-.28.76.76,0,0,1,.36.35,3.77,3.77,0,0,1,.41,2.31,2.43,2.43,0,0,0-.25.2"/><path class="cls-13" d="M181.17,138.17c1-1.48,2.7-1.24,3.34.5a2,2,0,0,0,.11.2c0,.65,0,1.3,0,1.95,0,.28-.06.55-.1.83a12,12,0,0,0-3.71-2.74,5.69,5.69,0,0,1,.39-.74"/><path class="cls-12" d="M241.17,130.55a2.8,2.8,0,0,1,.34-.21,2.37,2.37,0,0,1,3.08,1.58,3.92,3.92,0,0,1-.42,2.1,2.43,2.43,0,0,1-4.32-.25,2.46,2.46,0,0,1,1.32-3.22"/></g><g id="ears_and_horn" data-name="ears and horn"><g class="cls-10"><path class="cls-6" d="M265.27,83.87a3,3,0,0,1-1.75,3.44c-.33.15,0,.64.29.49a3.62,3.62,0,0,0,2-4.09c-.08-.35-.63-.2-.55.16"/><rect class="cls-7" x="263.38" y="83.51" width="2.53" height="4.32"/><rect class="cls-7" x="263.36" y="83.37" width="3.12" height="5.2"/></g><g class="cls-10"><path class="cls-6" d="M268.67,91.67c-1.12,2-3.53,2-5.55,1.89-.36,0-.36.55,0,.57,2.24.1,4.81,0,6-2.18.17-.32-.32-.6-.49-.28"/><rect class="cls-7" x="262.85" y="91.53" width="6.34" height="2.63"/><rect class="cls-7" x="262.32" y="90.65" width="7.28" height="4.16"/></g><g class="cls-10"><path class="cls-6" d="M271.2,96.6c-1.16,3.43-5,4-8.07,4.36-.36,0-.37.61,0,.56,3.41-.37,7.37-1.08,8.62-4.77.12-.34-.43-.49-.55-.15"/><rect class="cls-7" x="262.86" y="96.41" width="8.91" height="5.12"/><rect class="cls-7" x="262.32" y="95.85" width="10.4" height="6.24"/></g><g class="cls-10"><path class="cls-6" d="M273.28,104.76c-3.4,1.86-7,3.23-10.88,2.41-.35-.07-.5.47-.15.55,4.07.85,7.77-.53,11.31-2.47.32-.17,0-.66-.28-.49"/><rect class="cls-7" x="262.05" y="104.72" width="11.65" height="3.25"/><rect class="cls-7" x="261.28" y="104.18" width="12.48" height="4.16"/></g><path class="cls-12" d="M274.58,118.33c9.69-3.79,19.47-7.65,25.45-16.7s5.91-19,3.14-29.11h0a5.23,5.23,0,0,0-.23-.77h0v0l.23.12a2.24,2.24,0,0,0,.63.25l0,0c5.22,2.39,8.58,7.11,10.67,12.6a34.45,34.45,0,0,1,1.64,4.62,33.46,33.46,0,0,1,1.08,4.52,34.24,34.24,0,0,1,.44,5.88,41.53,41.53,0,0,1-.36,8,39.78,39.78,0,0,1-4.76,15.24c-3.27,6.55-8.32,13.3-14.58,15.55-.3.18-.59.38-.89.55a.37.37,0,0,1-.35.25c-8.92.43-19.12-10.51-21.63-17.37-.3-.61-1.39-3.25-.51-3.59"/><path class="cls-2" d="M274.58,118.33c9.69-3.79,19.47-7.65,25.45-16.7s5.91-19,3.14-29.11h0a5.23,5.23,0,0,0-.23-.77h0v0l.23.12a2.24,2.24,0,0,0,.63.25l0,0c5.22,2.39,8.58,7.11,10.67,12.6a34.45,34.45,0,0,1,1.64,4.62,33.46,33.46,0,0,1,1.08,4.52,34.24,34.24,0,0,1,.44,5.88,41.53,41.53,0,0,1-.36,8,39.78,39.78,0,0,1-4.76,15.24c-3.27,6.55-8.32,13.3-14.58,15.55-.3.18-.59.38-.89.55a.37.37,0,0,1-.35.25c-8.92.43-19.12-10.51-21.63-17.37C274.79,121.31,273.7,118.67,274.58,118.33Z"/><path class="cls-9" d="M278.8,186.58c8.51-6.32,10.21-17,5.06-26.16-.13-.3-.26-.61-.4-.9a1,1,0,0,1,0-.25,1.29,1.29,0,0,1-.17-1.26c4-6.88,5.51-14.88,3.34-22.53l.08,0c7.39,2.59,17.06.58,24.23-1.16,6.59-1.59,14.21-4.07,20-8.33,1.22-.81,2.39-1.68,3.61-2.46a24.85,24.85,0,0,0-3.18,15.18,26.86,26.86,0,0,0,5.36,13.08c-4.15.94-8.87,5-10.39,7.46-3.3,5.37-3.66,11.1-2.59,16.76a27.46,27.46,0,0,0-3.67.25,5.91,5.91,0,0,0-3.1.78,10.69,10.69,0,0,0-5.81,5.05,16.26,16.26,0,0,0-1.91,7.3,49.7,49.7,0,0,0-5.61-2.15l-.51-.13-.74-.18-.45-.08a11.89,11.89,0,0,0-8.94,1.74,19.39,19.39,0,0,0-5.59,5.42,11.51,11.51,0,0,0-3.38-3.89,12.16,12.16,0,0,0-5.86-2.39,1.42,1.42,0,0,1,.58-1.11"/><path class="cls-20" d="M278.8,186.58c8.51-6.32,10.21-17,5.06-26.16-.13-.3-.26-.61-.4-.9a1,1,0,0,1,0-.25,1.29,1.29,0,0,1-.17-1.26c4-6.88,5.51-14.88,3.34-22.53l.08,0c7.39,2.59,17.06.58,24.23-1.16,6.59-1.59,14.21-4.07,20-8.33,1.22-.81,2.39-1.68,3.61-2.46a24.85,24.85,0,0,0-3.18,15.18,26.86,26.86,0,0,0,5.36,13.08c-4.15.94-8.87,5-10.39,7.46-3.3,5.37-3.66,11.1-2.59,16.76a27.46,27.46,0,0,0-3.67.25,5.91,5.91,0,0,0-3.1.78,10.69,10.69,0,0,0-5.81,5.05,16.26,16.26,0,0,0-1.91,7.3,49.7,49.7,0,0,0-5.61-2.15l-.51-.13-.74-.18-.45-.08a11.89,11.89,0,0,0-8.94,1.74,19.39,19.39,0,0,0-5.59,5.42,11.51,11.51,0,0,0-3.38-3.89,12.16,12.16,0,0,0-5.86-2.39A1.42,1.42,0,0,1,278.8,186.58Z"/><path class="cls-1" d="M278.8,186.51c8.51-6.32,10.21-17,5.06-26.16-.13-.3-.26-.6-.4-.9a1,1,0,0,1,0-.25,1.28,1.28,0,0,1-.17-1.25c4-6.89,5.51-14.89,3.34-22.54l.08,0c7.39,2.6,17.06.58,24.23-1.16,6.59-1.59,14.21-4.06,20-8.33,1.22-.81,2.39-1.68,3.61-2.46a24.85,24.85,0,0,0-3.18,15.18,26.94,26.94,0,0,0,5.36,13.09c-4.15.93-8.87,5-10.39,7.45-3.3,5.37-3.66,11.1-2.59,16.76a25.88,25.88,0,0,0-3.67.26,5.81,5.81,0,0,0-3.1.77,10.69,10.69,0,0,0-5.81,5,16.27,16.27,0,0,0-1.91,7.31,46.15,46.15,0,0,0-5.61-2.15l-.51-.13c-.25-.07-.49-.13-.74-.18l-.45-.09a11.94,11.94,0,0,0-8.94,1.74,19.29,19.29,0,0,0-5.59,5.43,11.54,11.54,0,0,0-3.38-3.9,12.16,12.16,0,0,0-5.86-2.39,1.43,1.43,0,0,1,.58-1.11"/><path class="cls-2" d="M278.8,186.51c8.51-6.32,10.21-17,5.06-26.16-.13-.3-.26-.6-.4-.9a1,1,0,0,1,0-.25,1.28,1.28,0,0,1-.17-1.25c4-6.89,5.51-14.89,3.34-22.54l.08,0c7.39,2.6,17.06.58,24.23-1.16,6.59-1.59,14.21-4.06,20-8.33,1.22-.81,2.39-1.68,3.61-2.46a24.85,24.85,0,0,0-3.18,15.18,26.94,26.94,0,0,0,5.36,13.09c-4.15.93-8.87,5-10.39,7.45-3.3,5.37-3.66,11.1-2.59,16.76a25.88,25.88,0,0,0-3.67.26,5.81,5.81,0,0,0-3.1.77,10.69,10.69,0,0,0-5.81,5,16.27,16.27,0,0,0-1.91,7.31,46.15,46.15,0,0,0-5.61-2.15l-.51-.13c-.25-.07-.49-.13-.74-.18l-.45-.09a11.94,11.94,0,0,0-8.94,1.74,19.29,19.29,0,0,0-5.59,5.43,11.54,11.54,0,0,0-3.38-3.9,12.16,12.16,0,0,0-5.86-2.39A1.43,1.43,0,0,1,278.8,186.51Z"/><path class="cls-3" d="M309.18,135.43c7.33-1.58,16.59-3.82,22.43-9l.25-.13c0,.09-.05.17-.07.25-.13.4-.24.8-.36,1.2-6.08,6.29-13.73,11.54-22.36,13.36-7,1.48-15.22,1.35-20.44-3.75,0,0-.06-.07-.1-.09-.32-.2-.64-.4-.95-.61a64.5,64.5,0,0,0,21.6-1.27"/><g class="cls-5"><path class="cls-6" d="M288,137.4c4.4,6.22,12.61,5.17,19.18,4a42,42,0,0,0,23.38-12,.22.22,0,0,0-.31-.31,46.42,46.42,0,0,1-19.77,10.78c-8.3,2-15.34,2.63-22.37-2.64-.06-.05-.15,0-.11.1"/><rect class="cls-7" x="287.97" y="129.1" width="42.63" height="13.2"/><rect class="cls-7" x="287.28" y="128.1" width="43.69" height="14.56"/></g><g class="cls-5"><path class="cls-6" d="M288.69,138.14c7.53,11.44,22.5,17.27,35.78,14.15a.09.09,0,0,0,0-.18C310,153.61,298.3,149,288.91,138c-.1-.13-.31,0-.22.17"/><rect class="cls-7" x="288.67" y="137.92" width="35.87" height="15.2"/><rect class="cls-7" x="288.32" y="137.47" width="36.41" height="16.64"/></g><g class="cls-5"><path class="cls-6" d="M288.76,138.19c2.15,9,7.93,17.27,14.16,23.92.2.22.52-.11.33-.33-6.38-7.21-10.2-15.09-14.26-23.69-.06-.13-.27,0-.23.1"/><rect class="cls-7" x="288.75" y="138.03" width="14.56" height="24.16"/><rect class="cls-7" x="288.32" y="137.47" width="15.6" height="24.97"/></g><g class="cls-10"><path class="cls-6" d="M314.92,84.52c-2.73,1.42-5.57.31-8.12-.94-.33-.16-.62.33-.29.49,2.76,1.35,5.77,2.46,8.7.94.32-.17,0-.66-.29-.49"/><rect class="cls-7" x="306.36" y="83.55" width="8.99" height="2.2"/><rect class="cls-7" x="306.01" y="83.37" width="9.36" height="3.12"/></g><g class="cls-10"><path class="cls-6" d="M315.78,90.19a7.92,7.92,0,0,1-8.53-.42c-.3-.21-.59.28-.29.49a8.47,8.47,0,0,0,9.1.42.28.28,0,0,0-.28-.49"/><rect class="cls-7" x="306.83" y="89.72" width="9.37" height="2.09"/><rect class="cls-7" x="306.01" y="89.61" width="10.4" height="3.12"/></g><g class="cls-10"><path class="cls-6" d="M316.63,97.28a14.45,14.45,0,0,1-10.7.25c-.34-.12-.49.43-.15.55a14.93,14.93,0,0,0,11-.25c.33-.14.18-.69-.15-.55"/><rect class="cls-7" x="305.59" y="97.26" width="11.38" height="1.75"/><rect class="cls-7" x="304.97" y="96.89" width="12.48" height="3.12"/></g><g class="cls-10"><path class="cls-6" d="M316.05,105.21a10.17,10.17,0,0,1-11.32-2.1c-.26-.26-.66.15-.4.41a10.72,10.72,0,0,0,11.87,2.24c.33-.14.19-.69-.15-.55"/><rect class="cls-7" x="304.24" y="103.03" width="12.15" height="3.61"/><rect class="cls-7" x="303.93" y="102.09" width="12.48" height="5.2"/></g><g class="cls-10"><path class="cls-6" d="M315.81,113.85a14.49,14.49,0,0,1-16.83-5c-.2-.29-.7,0-.49.29a15.22,15.22,0,0,0,7.05,5.23,12.26,12.26,0,0,0,10.42,0c.34-.13.19-.68-.15-.55"/><rect class="cls-7" x="298.44" y="108.72" width="17.71" height="6.82"/><rect class="cls-7" x="297.69" y="108.34" width="18.73" height="7.28"/></g><g class="cls-10"><path class="cls-6" d="M311.93,122.27a18.21,18.21,0,0,1-19.51-6.61c-.22-.29-.71,0-.49.28a18.77,18.77,0,0,0,20.16,6.88c.35-.09.2-.64-.16-.55"/><rect class="cls-7" x="291.88" y="115.54" width="20.41" height="7.96"/><rect class="cls-7" x="291.44" y="114.58" width="21.85" height="9.36"/></g><g class="cls-10"><path class="cls-6" d="M303.37,133.49a22.36,22.36,0,0,1-17-14.68c-.12-.34-.67-.19-.55.15A22.92,22.92,0,0,0,303.21,134c.36.07.51-.48.16-.55"/><rect class="cls-7" x="285.76" y="118.62" width="17.81" height="15.43"/><rect class="cls-7" x="285.2" y="117.7" width="18.73" height="16.64"/></g><g class="cls-10"><path class="cls-6" d="M291.33,136.37a26.86,26.86,0,0,1-10.09-15.22.29.29,0,0,0-.55.15,27.42,27.42,0,0,0,10.36,15.56c.29.21.57-.28.28-.49"/><rect class="cls-7" x="280.68" y="120.94" width="10.78" height="15.97"/><rect class="cls-7" x="280" y="120.82" width="12.48" height="16.64"/></g></g><g id="toes"><path class="cls-21" d="M346.45,396.71a11.06,11.06,0,0,0-2.3,4.22.68.68,0,0,1-.7-.26c-1.56-2.25-1.38-5.93-.39-8.37s3.41-6.26,6-6.86,4,2.05,3.39,4.17C351.62,392.66,348.15,394.17,346.45,396.71Z"/><path class="cls-21" d="M365,398.24a11,11,0,0,0-2,4.38.68.68,0,0,1-.72-.21c-1.72-2.13-1.82-5.81-1-8.32.77-2.35,2.93-6.49,5.49-7.29s4.13,1.75,3.69,3.91C369.84,393.82,366.49,395.58,365,398.24Z"/><path class="cls-21" d="M380,398.18a11.1,11.1,0,0,0-2,4.36.69.69,0,0,1-.71-.23c-1.69-2.15-1.74-5.83-.89-8.33.8-2.34,3-6.45,5.59-7.21s4.1,1.81,3.64,4C384.87,393.83,381.5,395.55,380,398.18Z"/><path class="cls-21" d="M247.25,396.51a10.9,10.9,0,0,0-1,4.71.68.68,0,0,1-.75-.05c-2.15-1.69-3.06-5.26-2.82-7.88s1.41-7,3.73-8.33,4.42.79,4.47,3C251,391.12,248.12,393.59,247.25,396.51Z"/><path class="cls-21" d="M264.61,396.37a10.9,10.9,0,0,0-1,4.72.72.72,0,0,1-.75,0c-2.15-1.69-3.06-5.26-2.82-7.89.22-2.47,1.41-7,3.73-8.32s4.42.79,4.47,3C268.36,391,265.49,393.45,264.61,396.37Z"/><path class="cls-21" d="M281.44,396.1a10.9,10.9,0,0,0-1,4.72.72.72,0,0,1-.75-.05c-2.15-1.69-3.06-5.26-2.83-7.89.23-2.47,1.42-7,3.74-8.33s4.41.8,4.47,3c.07,3.16-2.8,5.63-3.67,8.55"/><path class="cls-12" d="M248.79,387.11c.28-.18-.21-.74-.58-.74a1.67,1.67,0,0,0-1.34.64,10.58,10.58,0,0,0-1.73,3.5c0,.07,0,.93.3,1a.63.63,0,0,0,.86-.37C247,389,247.59,387.84,248.79,387.11Z"/><path class="cls-12" d="M265.47,387c.26-.2-.29-.72-.66-.68a1.67,1.67,0,0,0-1.27.75,10.84,10.84,0,0,0-1.41,3.65c0,.06.07.93.39,1a.64.64,0,0,0,.83-.45C263.8,389,264.34,387.81,265.47,387Z"/><path class="cls-12" d="M281.54,387.94c.13-.3-.35-.68-.71-.61a1.69,1.69,0,0,0-1.2.87,10.59,10.59,0,0,0-1.05,3.77c0,.06.16.91.49,1a.66.66,0,0,0,.78-.52A20.13,20.13,0,0,1,281.54,387.94Z"/><path class="cls-12" d="M348,388.88c.13-.3-.35-.68-.71-.61a1.67,1.67,0,0,0-1.2.87,10.59,10.59,0,0,0-1.05,3.77c0,.06.16.91.48,1a.66.66,0,0,0,.78-.52A20.66,20.66,0,0,1,348,388.88Z"/><path class="cls-12" d="M365.49,391.06c.13-.3-.35-.68-.71-.61a1.65,1.65,0,0,0-1.2.87,10.59,10.59,0,0,0-1.05,3.77c0,.06.16.91.48,1a.66.66,0,0,0,.78-.53A20.78,20.78,0,0,1,365.49,391.06Z"/><path class="cls-12" d="M381.45,391.06c.13-.3-.35-.68-.72-.61a1.68,1.68,0,0,0-1.2.87,10.71,10.71,0,0,0-1,3.77c0,.06.15.91.48,1a.66.66,0,0,0,.78-.53A20.26,20.26,0,0,1,381.45,391.06Z"/></g><g id="arms_and_mao" data-name="arms and mao"><path class="cls-14" d="M247.71,244.14a54.5,54.5,0,0,1-4,9.19c-2,3.54-4.67,6.73-6.2,10.55a24.14,24.14,0,0,0-1.19,3.44,29.85,29.85,0,0,0-.76,3.67,16.78,16.78,0,0,0,.93,7c.09.23,1.28,4.06,1.52,4.06a9.3,9.3,0,0,0-.17-1.95,19.28,19.28,0,0,1-.25-3,12.58,12.58,0,0,1,2-6.29c1.4-2.33,5.77-5,8-6.63s4.68-7.32,4.09-10.24C251,250.64,247.66,244,247.71,244.14Z"/><path class="cls-22" d="M212.85,371.41c-.36.22-.93,1-1.09.65-.09-.22,3.22-8.63,3.49-9.81,1.36-6,2.46-12.1,3.71-18.09,1.85-8.91,3.28-17.79,4.57-26.82.47-3.29,1.86-6.19,2.62-9.37a99.15,99.15,0,0,0,2-12.21c.34-3.05,1.74-6.07,2.18-9.16.33-2.28-.12-5.2.44-7.41a9.52,9.52,0,0,0,.65-3.05c-.33-2.65-1.54-4.32-3-6.33a38.18,38.18,0,0,1-3.49-6.75c-.9-1.95-3.41-4.31-4.58-6.11-1.39-2.15-2.21-4.74-3.48-7-2.67-4.68-5.25-9.26-7.85-13.95a72.1,72.1,0,0,0-8.51-12c-.86-1-5.08-5.27-2.39-3.92l-.41-.77c-.58-.45,1.77.83,2.5,1.09a11.86,11.86,0,0,0,5.47.74c2.39-.29,9.29-1.79,11.41-.78.64.31,7.48,4.06,7.5,4.06.63-.08,2.09-7.33,4.43-7.43,6-.26,11.3,3.06,17,3.09,1.89,0,5-.11,6.78-.94,2.37-1.12,5.9-3.29,8.63-3.28,1.51,0,3.09-.48,4.61.17,2.29,1,4.5,2.81,7.18,2.82,1.92,0,6.6-4.36,8.3-5.48,2.05-1.35,4.44-1.72,6.57-2.73,2-.92,3.17-3.06,4.94-4.22a29.48,29.48,0,0,0,6.58-6.61h.3a23.77,23.77,0,0,1-.66,3.49c-.48,2.06-1.94,3.75-2.83,5.67-1.17,2.53-1.51,5.48-2.62,8.06-1.86,4.35-3.87,8.09-5,12.65-2,7.83-4.74,15.4-6.54,23.33-1.34,5.9-.76,12-1.74,17.87-.61,3.63-2.15,11.15-1.09,14.83,2.94,10.29,8.39,18.63,12.64,28.34,1.83,4.17,4.55,8.53,5.89,12.86a112.08,112.08,0,0,0,6.76,17.66c1.57,3.15,3.4,5.92,4.79,9.16.48,1.11.9,4.91,1.31,3.27l.28,1.08c-3-.62-11.44-2.53-13.27.39-.88,1.4-1.23,5-2,5.81-.4.43-3.17-1.48-3.54-1.7-3.7-2.13-8.64-5.3-13-5.57-4.95-.29-6,5.25-10.39,6.22-6.51,1.43-11.57-3.84-17.75-4.21-5.62-.34-12.24,9.17-16.88,7.6-3.1-1,.16-8-1.12-8.76-.88-.51-3.39,1.4-4.07,1.88-3.89,2.78-7.42,5.06-10.84,8.45-1.61,1.61-3.55,2.61-5,4.42"/><path class="cls-2" d="M212.85,371.41c-.36.22-.93,1-1.09.65-.09-.22,3.22-8.63,3.49-9.81,1.36-6,2.46-12.1,3.71-18.09,1.85-8.91,3.28-17.79,4.57-26.82.47-3.29,1.86-6.19,2.62-9.37a99.15,99.15,0,0,0,2-12.21c.34-3.05,1.74-6.07,2.18-9.16.33-2.28-.12-5.2.44-7.41a9.52,9.52,0,0,0,.65-3.05c-.33-2.65-1.54-4.32-3-6.33a38.18,38.18,0,0,1-3.49-6.75c-.9-1.95-3.41-4.31-4.58-6.11-1.39-2.15-2.21-4.74-3.48-7-2.67-4.68-5.25-9.26-7.85-13.95a72.1,72.1,0,0,0-8.51-12c-.86-1-5.08-5.27-2.39-3.92l-.41-.77c-.58-.45,1.77.83,2.5,1.09a11.86,11.86,0,0,0,5.47.74c2.39-.29,9.29-1.79,11.41-.78.64.31,7.48,4.06,7.5,4.06.63-.08,2.09-7.33,4.43-7.43,6-.26,11.3,3.06,17,3.09,1.89,0,5-.11,6.78-.94,2.37-1.12,5.9-3.29,8.63-3.28,1.51,0,3.09-.48,4.61.17,2.29,1,4.5,2.81,7.18,2.82,1.92,0,6.6-4.36,8.3-5.48,2.05-1.35,4.44-1.72,6.57-2.73,2-.92,3.17-3.06,4.94-4.22a29.48,29.48,0,0,0,6.58-6.61h.3a23.77,23.77,0,0,1-.66,3.49c-.48,2.06-1.94,3.75-2.83,5.67-1.17,2.53-1.51,5.48-2.62,8.06-1.86,4.35-3.87,8.09-5,12.65-2,7.83-4.74,15.4-6.54,23.33-1.34,5.9-.76,12-1.74,17.87-.61,3.63-2.15,11.15-1.09,14.83,2.94,10.29,8.39,18.63,12.64,28.34,1.83,4.17,4.55,8.53,5.89,12.86a112.08,112.08,0,0,0,6.76,17.66c1.57,3.15,3.4,5.92,4.79,9.16.48,1.11.9,4.91,1.31,3.27l.28,1.08c-3-.62-11.44-2.53-13.27.39-.88,1.4-1.23,5-2,5.81-.4.43-3.17-1.48-3.54-1.7-3.7-2.13-8.64-5.3-13-5.57-4.95-.29-6,5.25-10.39,6.22-6.51,1.43-11.57-3.84-17.75-4.21-5.62-.34-12.24,9.17-16.88,7.6-3.1-1,.16-8-1.12-8.76-.88-.51-3.39,1.4-4.07,1.88-3.89,2.78-7.42,5.06-10.84,8.45-1.61,1.61-3.55,2.61-5,4.42"/><path class="cls-23" d="M292.45,211.53c-.2-1.22-1.74,2.89-2.95,3.71-1,.66-2.29,1.17-3.33,1.77-4.14,2.37-8.64,6.4-13.59,6.85a12.76,12.76,0,0,1-6-.83c-2-1-5.51-3.73-8-2.87-1.88.65-3.31,2.51-5.13,3.37a26,26,0,0,1-13.12,2c-2.36-.18-5.2-2.27-7.31-3.33-.44-.23-2-1.41-2.49-1.08-2.12,1.45-.73,5.87-3.14,7-6.09,3-10.53-5-17-2.63a7.6,7.6,0,0,1-3.61.06c-.06,0-.57-.15-.61,0s.18.13.26.2c1,1,1.73,2.3,2.66,3.36,2.87,3.25,5.25,6.81,8.13,10.08,1.54,1.75,1.92,3.94,3.09,5.83,1,1.54,2.34,2.91,3.19,4.51,1.06,2,1.38,4.13,2.11,6.24,1.15,3.35,4.36,5.85,6.29,8.69,2.19,3.21,2.47,7.37,3.14,11.09.45,2.51,0,5.25-.13,7.77-.16,3-.18,5.92-.49,8.89-.29,2.75-1.58,5.44-2.29,8.11-.42,1.58-.19,3.22-.62,4.83a146.71,146.71,0,0,0-3.7,17.13c-.44,3.16-.6,6.37-1.35,9.48-.93,3.82-2.06,7.62-3.07,11.41-1.45,5.48-1.93,11.12-3.45,16.58-.15.56-1.22,4.41-2,4.26a8.38,8.38,0,0,1,1.63-2.24,40.13,40.13,0,0,1,3.58-3.06c3.3-2.91,7.75-5.06,11.68-7.07,1.23-.63,3.64-1,4.8,0s.64,3.69.36,5.16a7.15,7.15,0,0,0-.18,1.77c0,.2-.13.71,0,.6,1.19-.8,2-2.52,3.35-3.41,3.53-2.41,9.54-3.62,13.66-2.5,2.75.74,5.07,3.42,8.09,3.18,5.09-.4,8.65-6.76,14.64-6.06a12,12,0,0,1,4.81,1.52c1.4.82,2.74,2.16,4.55,2.06,2.45-.14,2.94-3.89,5.68-3.87a24.87,24.87,0,0,1,6.22,1.19c.22.06,1.33.85,1.51.73.47-.32-1.66-3.46-1.83-3.79-2.19-4.29-4.94-8.29-7.2-12.61-4.74-9.1-4.48-19.91-9-29.13-.92-1.88-2.37-3.3-3.4-5s-1.38-3.49-2.33-5.08a48.63,48.63,0,0,1-4.42-9.09,34,34,0,0,1-.9-18.9c.68-3,1.74-5.95,2.16-9,1.33-9.57,1.84-18.68,6.84-27.32,2.23-3.85,4.12-8.11,6-12.05C289.71,217.16,293,214.92,292.45,211.53Z"/><path class="cls-24" d="M252.27,226.93c0-.32-.13-1-.41-.87a6.36,6.36,0,0,0-1.86,2.18,22.81,22.81,0,0,0-1.69,3.3,34.13,34.13,0,0,0-2.06,11.85c0,2.44,2,6.45,4.61,7.06,1.73.41,3.13-.74,4.16,1.35,1.51,3,.36,7,.3,10.27a61.36,61.36,0,0,0,.7,12c.65,3.47,3.91,7.47,7.93,7,3.62-.46,4.68-5.77,5.63-8.47.81-2.33,2.13-4.95,1.94-7.57a36,36,0,0,1,.08-8.43c.93-5.45,2.11-10.82,2.62-16.35.1-1.09-.09-2.73.34-3.71,1.48-3.37,3.95-6.18,5.45-9.59a34.93,34.93,0,0,0,2.31-5.6c.06-.23.16-.68-.07-.7s-.1.18-.16.26a13.39,13.39,0,0,1-3.81,3.8c-4.56,2.74-9,5.56-14.39,6-3.64.3-5.84-1.53-8.54-3.42-.32-.23-3.12-1.22-3.4-.59C251.81,227,252.27,227.05,252.27,226.93Z"/><path class="cls-25" d="M252.27,226.93c0-.32-.13-1-.41-.87a6.36,6.36,0,0,0-1.86,2.18,22.81,22.81,0,0,0-1.69,3.3,34.13,34.13,0,0,0-2.06,11.85c0,2.44,2,6.45,4.61,7.06,1.73.41,3.13-.74,4.16,1.35,1.51,3,.36,7,.3,10.27a61.36,61.36,0,0,0,.7,12c.65,3.47,3.91,7.47,7.93,7,3.62-.46,4.68-5.77,5.63-8.47.81-2.33,2.13-4.95,1.94-7.57a36,36,0,0,1,.08-8.43c.93-5.45,2.11-10.82,2.62-16.35.1-1.09-.09-2.73.34-3.71,1.48-3.37,3.95-6.18,5.45-9.59a34.93,34.93,0,0,0,2.31-5.6c.06-.23.16-.68-.07-.7s-.1.18-.16.26a13.39,13.39,0,0,1-3.81,3.8c-4.56,2.74-9,5.56-14.39,6-3.64.3-5.84-1.53-8.54-3.42-.32-.23-3.12-1.22-3.4-.59C251.81,227,252.27,227.05,252.27,226.93Z"/><rect class="cls-7" x="234.8" y="209.73" width="58.26" height="82.18"/><path class="cls-24" d="M248.3,313.84c-1.92-.18-6-1.52-7.63-1.26s-2.82,1.44-4.09,2.25-3,1.46-4.11,2.67a13.73,13.73,0,0,0-3,8.16c0,3.1,2.05,7.18,1,10.19-1.41,4-4.67,7.51-6.71,11.28-.93,1.71-.9,4.09,1.36,4.69,6.19,1.62,9.28-3.44,14.59-5.16,2.9-.94,5.58,1.07,8.36.77,5.56-.59,12-4.24,13.78-9.93,2.52-7.83-1.72-21.24-10.08-24.17-2.65-.93-6.66,1-9,1.93"/><path class="cls-25" d="M248.3,313.84c-1.92-.18-6-1.52-7.63-1.26s-2.82,1.44-4.09,2.25-3,1.46-4.11,2.67a13.73,13.73,0,0,0-3,8.16c0,3.1,2.05,7.18,1,10.19-1.41,4-4.67,7.51-6.71,11.28-.93,1.71-.9,4.09,1.36,4.69,6.19,1.62,9.28-3.44,14.59-5.16,2.9-.94,5.58,1.07,8.36.77,5.56-.59,12-4.24,13.78-9.93,2.52-7.83-1.72-21.24-10.08-24.17-2.65-.93-6.66,1-9,1.93"/><rect class="cls-7" x="211.91" y="301.28" width="63.46" height="63.46"/><path class="cls-19" d="M217.71,227.33c2.29,2.3,3.81,6.89,5.21,9.6,4.22,8.13,7.32,16.84,11.15,25.16,1.09,2.38,1.88,5,3.17,7.24.31.54.43,1.73,1,1.57s.46-1.88.46-2.23a46.25,46.25,0,0,0-.86-8.13c-1.08-5.64-2.42-11.26-3.73-16.86-.78-3.33-.87-7.16-2.16-10.33"/><path class="cls-19" d="M238.69,301c.6,1.2-.43,2.66-.79,4-.56,2.06-1.12,4.12-1.73,6.16-2,6.56-5.13,12.69-6.48,19.42"/><path class="cls-19" d="M239.64,302.92c-.31-.61-.12-1.89,0-.47.14,1.62.12,3.26.16,4.89,0,.74,0,1.47,0,2.21v10.1"/><path class="cls-19" d="M274.22,305a12.93,12.93,0,0,0,.78,3.32c.47,1.68,1,3.36,1.43,5,1.43,5.24,2.49,11.93,4.89,16.73"/><path class="cls-19" d="M270.27,300.39c-1.3,1.94-1.77,7.49-2.37,9.63-1.89,6.77-4.18,13.23-5.84,20.05"/><path class="cls-26" d="M238.41,339.08c1.8,0,7.71-.09,9.32.72"/><path class="cls-26" d="M243.25,334.42c0,3,.71,5.7.71,8.6"/><path class="cls-26" d="M248.09,332.45c-.13.25,3-4.2,3-5.2"/><path class="cls-26" d="M252.57,323.84a26.26,26.26,0,0,0,1.61-3.23c.39-1.15.16-2.29.72-3.4"/><path class="cls-26" d="M256.33,312c0-2.87.29-6.41-.89-8.78"/><path class="cls-26" d="M255.08,298.21c-.34-.17-3.07-6.69-3.41-7.71"/><path class="cls-26" d="M249.88,286c-.56-.28-.31-6.72-.9-7.89"/><path class="cls-26" d="M251.31,272.75c0-2.94,2.35-5.59,3.59-8.07"/><path class="cls-26" d="M258.3,261.64a43.92,43.92,0,0,1,5-5.74"/><path class="cls-26" d="M266.91,250.88c.75-2.26,2.11-4.18,2.87-6.45"/><path class="cls-26" d="M271.57,238.51c0-1.54,1.22-6.35.72-7.35"/><path class="cls-3" d="M316.84,208.77c5.43-.86,8.45,2.56,11.24,8.37,8.69,18-7.85,39.85-17.13,53.86-3.43,5.18-9.71,12.39-13,17.64l.15-.21c-5.63,6.51-13.94,13.75-23.09,10.6,5.38-6.43,2.87-3,7.51-10.17a16.42,16.42,0,0,1-11.51.5c6.81-7.5,3.42-3.06,8.44-9.64l0,0c9.47-16.47,14-67,37.89-71"/><path class="cls-2" d="M316.84,208.77c5.43-.86,8.45,2.56,11.24,8.37,8.69,18-7.85,39.85-17.13,53.86-3.43,5.18-9.71,12.39-13,17.64l.15-.21c-5.63,6.51-13.94,13.75-23.09,10.6,5.38-6.43,2.87-3,7.51-10.17a16.42,16.42,0,0,1-11.51.5c6.81-7.5,3.42-3.06,8.44-9.64l0,0c9.47-16.47,14-67,37.89-71"/><path class="cls-3" d="M229.89,280.51c5.29-.13,10.18-3,15.35-2.86-2.62,4.35-6.23,7-10.76,9.11,2.9,3,6.85,3.06,10.2,5.44-16.87,15.3-28.1-3.33-14.25-15.94C230.15,279.47,230.17,277.3,229.89,280.51Z"/><path class="cls-2" d="M229.89,280.51c5.29-.13,10.18-3,15.35-2.86-2.62,4.35-6.23,7-10.76,9.11,2.9,3,6.85,3.06,10.2,5.44-16.87,15.3-28.1-3.33-14.25-15.94C230.15,279.47,230.17,277.3,229.89,280.51Z"/></g><path class="cls-12" d="M195.58,131.5A20.85,20.85,0,0,0,187,131c-4.23.73-3.6,7.52.66,6.78a16.5,16.5,0,0,1,6.85.48c1.74.43,3.56-1.24,3.83-2.94a3.39,3.39,0,0,0-2.76-3.84"/><path class="cls-13" d="M229,101l.19,0,.25.06.32.06.28,0,.35,0h.07l.06,0,.12,0,.12-.06.13-.09.12-.11.11-.12.08-.15.07-.14,0-.08v0h0v-.58l-.12-.4-.27-.47-.34-.39-.4-.33-.47-.25-.52-.16-.53,0-.52.07-.49.17-.46.27-.42.42-.26.49-.08.46,0,.34.08.3.11.27.14.23.2.25.32.31.43.29.49.19.52.07.51,0,.47-.13.46-.22.43-.35.3-.42.14-.39.05-.31v-.28l0-.27L231,99l-.12-.3-.25-.42-.45-.43-.51-.24-.45-.07-.34,0-.29.07-.27.11-.24.14-.25.19-.33.33-.29.47-.14.49,0,.6.26.47.33.27.27.12.24.07.21,0,.28,0h.24l.18,0a1.1,1.1,0,0,0,.19-2.2l-.24,0h-.37l.12.06L229,99l.19.36,0,.44h0l.09-.08,0,0h-.11l-.2,0,0,0-.05,0,0,.07,0,0h0v-.07l.06-.15h0l-.06,0-.1,0h-.09l-.05,0-.08,0-.11-.11h0v.15l0,.21,0,0,0,0,.08-.05.11,0,.1,0h.05l.09,0,.12.06.11.1.1.1,0,.08,0,.17v-.58h0v0h0v0l.06-.12.07-.12.09-.1.09-.09.1-.07.1,0,.08,0h0l.35,0h-.15l-.18,0-.25,0-.23,0A1,1,0,0,0,229,101Z"/><path class="cls-13" d="M223.75,86.28l.33-.5.36-.43.41-.42.45-.4.48-.37.52-.34.53-.3.54-.25.55-.21.53-.17.51-.11.49-.06h.45l.4,0,.34.09.28.12.23.15.22.24,0,.08.08.13.06.16.07.18,0,.2,0,.23,0,.27v.29l0,.32,0,.35-.06.38-.08.4-.1.35-.11.3-.13.26-.15.24-.16.21-.19.21-.2.2-.22.2-.23.19-.26.2-.26.2-.29.22-.56.47-.57.58-.47.67-.24.46-.17.46-.12.49-.08.53,0,.57,0,.56a1.1,1.1,0,1,0,2.2-.07V93l.05-.31.07-.28.09-.23.08-.17.3-.43.35-.37.46-.38.25-.18.27-.21.28-.23.3-.24.29-.27.3-.29.28-.33.27-.37.25-.41.22-.44.18-.5.14-.51.11-.52.07-.49,0-.47,0-.45v-.44l0-.41-.06-.4-.1-.38-.13-.36-.15-.34-.18-.32-.25-.33-.46-.47-.58-.39-.63-.26-.65-.16-.68-.07-.69,0-.68.09-.7.15-.69.22-.68.27-.68.32-.65.37-.63.42-.61.46-.57.5-.52.54-.48.59-.39.57a1,1,0,0,0,.29,1.45A1,1,0,0,0,223.75,86.28Z"/><path class="cls-27" d="M102.55,5.25c.37,30.23-.07,58.26-.63,90.58-.42,24-.54,171.51-.08,257.22.09,16.4-.39,33.7.27,51.6,2.34.69,7.42-.39,7.47-.25s-.57-43.84-.6-61.13c-.11-72.46-2-144.91-1.72-217.37.09-20.61,1-40.35.72-61-.68-45.5,1.09-37.58.09-60.3Z"/><path class="cls-28" d="M102.55,5.25c.37,30.23-.07,58.26-.63,90.58-.42,24-.54,171.51-.08,257.22.09,16.4-.39,33.7.27,51.6,2.34.69,7.42-.39,7.47-.25s-.57-43.84-.6-61.13c-.11-72.46-2-144.91-1.72-217.37.09-20.61,1-40.35.72-61-.68-45.5,1.09-37.58.09-60.3Z"/><path class="cls-27" d="M185.26,89.76C146.61,94,105.37,97.75,66.58,102c.42,3.15,2.63,26.11,3.86,26,6.67-.43,24.2-2.32,32.79-3.39,19-2.35,38-4.34,57.06-6.5q13.44-1.52,26.87-3.2l-.31.17c6.5-3,21-13.46,22.31-15-4.38-2.58-17.45-7-24.62-10.54"/><path class="cls-28" d="M185.26,89.76C146.61,94,105.37,97.75,66.58,102c.42,3.15,2.63,26.11,3.86,26,6.67-.43,24.2-2.32,32.79-3.39,19-2.35,38-4.34,57.06-6.5q13.44-1.52,26.87-3.2l-.31.17c6.5-3,21-13.46,22.31-15-4.38-2.58-17.45-7-24.62-10.54"/><path class="cls-27" d="M25.67,169.22c38.61-4.6,79.81-8.72,118.56-13.37-.47-3.14-3.09-26.06-4.31-26-6.66.49-24.18,2.55-32.76,3.69-19,2.52-38,4.69-57,7Q36.74,142.23,23.33,144l.31-.18C17.19,147,2.84,157.5,1.57,159.07c4.43,2.54,17.59,6.85,24.82,10.31"/><path class="cls-28" d="M25.67,169.22c38.61-4.6,79.81-8.72,118.56-13.37-.47-3.14-3.09-26.06-4.31-26-6.66.49-24.18,2.55-32.76,3.69-19,2.52-38,4.69-57,7Q36.74,142.23,23.33,144l.31-.18C17.19,147,2.84,157.5,1.57,159.07c4.43,2.54,17.59,6.85,24.82,10.31"/><path class="cls-27" d="M180.34,57.16c-38.66,4.25-79.89,8-118.68,12.28.41,3.16,2.63,26.11,3.86,26,6.66-.43,24.19-2.32,32.78-3.38,19-2.35,38-4.35,57.06-6.5,9-1,17.93-2.07,26.88-3.21l-.31.17c6.49-3,21-13.45,22.31-15-4.39-2.59-17.46-7-24.62-10.55"/><path class="cls-29" d="M180.34,57.16c-38.66,4.25-79.89,8-118.68,12.28.41,3.16,2.63,26.11,3.86,26,6.66-.43,24.19-2.32,32.78-3.38,19-2.35,38-4.35,57.06-6.5,9-1,17.93-2.07,26.88-3.21l-.31.17c6.49-3,21-13.45,22.31-15-4.39-2.59-17.46-7-24.62-10.55"/><path class="cls-27" d="M74.53,58c13.38-2.28,20-2.74,34.51-4.73,6.76-.93,21.71-4.59,28.13-4.59-.11-9-1.39-17.89-2.46-26.79-7.43.38-24.13,1.93-30.9,2.66C90.44,26,84,25.86,70.61,28.12,72.52,38,74.28,48,74.53,58Z"/><path class="cls-29" d="M74.53,58c13.38-2.28,20-2.74,34.51-4.73,6.76-.93,21.71-4.59,28.13-4.59-.11-9-1.39-17.89-2.46-26.79-7.43.38-24.13,1.93-30.9,2.66C90.44,26,84,25.86,70.61,28.12,72.52,38,74.28,48,74.53,58Z"/><path class="cls-30" d="M104.23,1.25c.08,0,.29-.09.21-.12-.8-.27-2.09.73-2.8,1a6.66,6.66,0,0,0-4,4c-.13.3-.77,2.49-.5,2.68s1.06-.64,1.23-.78c.64-.51,1.87-1.2,2.74-.93.64.19,2,1.77,2.23,1.74.69-.08,1.18-1,2-1,.57,0,1.92.54,2.16.51s.62-.93,1.2-1a18.05,18.05,0,0,1,3.23.59.13.13,0,0,0,.12,0c.12-.19,0-.59.1-.81.95-2.91-2.65-4.53-4.66-5.67A6,6,0,0,0,105.14,1C104.86,1.06,103.69,1.38,104.23,1.25Z"/><path class="cls-28" d="M104.23,1.25c.08,0,.29-.09.21-.12-.8-.27-2.09.73-2.8,1a6.66,6.66,0,0,0-4,4c-.13.3-.77,2.49-.5,2.68s1.06-.64,1.23-.78c.64-.51,1.87-1.2,2.74-.93.64.19,2,1.77,2.23,1.74.69-.08,1.18-1,2-1,.57,0,1.92.54,2.16.51s.62-.93,1.2-1a18.05,18.05,0,0,1,3.23.59.13.13,0,0,0,.12,0c.12-.19,0-.59.1-.81.95-2.91-2.65-4.53-4.66-5.67A6,6,0,0,0,105.14,1C104.86,1.06,103.69,1.38,104.23,1.25Z"/><path class="cls-9" d="M93.91,73.68l.14,1.71.2,1.75.26,1.75.31,1.74.37,1.72.4,1.67a1.1,1.1,0,0,0,2.14-.52l-.4-1.64L97,80.2l-.33-1.68-.28-1.67-.22-1.67L96,73.51a1,1,0,1,0-2.08.17Z"/><path class="cls-9" d="M93.92,75l.43-.16.48-.17.51-.18.51-.18.53-.15.51-.13.49-.09.46,0,.4,0,.33.06.26.1.25.19.2.2.14.19.1.17,0,.15,0,.12v.14l0,.15,0,.16-.09.19-.11.2-.15.21-.18.22-.21.23-.22.22-.25.22-.26.22-.27.2-.27.19L97,78l-.51.3-.46.25A1.09,1.09,0,0,0,95.53,80a1.1,1.1,0,0,0,1.49.46l.5-.27.6-.36.63-.42.34-.24.33-.25.33-.27.31-.29.31-.3.29-.33.27-.34.25-.36.21-.39.17-.41.13-.45.06-.47v-.48l-.09-.5-.18-.47-.26-.46-.34-.43-.43-.42-.59-.4-.69-.27-.69-.13-.69,0-.67.06-.65.11-.64.16-.6.18-.58.2-.53.19-.47.18-.42.15a1,1,0,0,0-.64,1.33A1.06,1.06,0,0,0,93.92,75Z"/><path class="cls-9" d="M106.27,73.11,106,74.28l-.3,1.17-.33,1.15L105,77.74l-.38,1.13L104.26,80l0,.09-.09.19-.12.23-.12.24-.14.26-.13.26-.12.25-.1.27-.06.21,0,.31h0v.18l0,.06v.07l0,.06,0,.07,0,.07,0,.08.05.07.06.07.07.07.07.06.08,0,.08,0,0,0h0l.9-1.91-.06,0-.9,1.91h0l.1,0,.18,0,.16,0h.25l.09,0,.08,0,.06,0h.1l.18-.1.39-.26.4-.37.33-.4.26-.43.21-.45.16-.45.12-.46.09-.47.07-.47,0-.47,0-.46,0-.46,0-1.7.17-1.36.53-1,0,.09.08-.06.06,0h0l0,0,0,0,.05,0,.22.21.22.27L109,75l.24.41.23.46.23.5.22.54.21.54.2.56.18.56.17.54.16.53.14.49.12.45.11.41.09.35.07.28,0,.21a1.11,1.11,0,0,0,2.15-.54l-.06-.21-.07-.29-.09-.36L113.2,80l-.14-.48-.14-.52-.17-.55-.18-.57-.2-.6-.22-.6-.23-.6-.25-.59-.26-.58-.28-.56-.31-.52-.32-.49-.37-.45-.38-.36-.26-.2-.25-.16L109,72l-.3-.1-.33-.06H108l-.33,0-.33.1-.3.14-.28.17-.26.22-.39.43-.73,1.45-.25,1.82,0,1.8v.42l0,.41,0,.39,0,.36-.06.34-.08.31-.09.28-.11.24-.13.2-.14.18-.16.16-.26.17.18-.1h0l.05,0h.27l.14,0,.16,0,.09,0h0l-.9,1.91.06,0,.9-1.91h0l0,0,.07,0,.07,0,.07.06.06.06.06.06,0,.07,0,.06,0,.07,0,.06,0,.06,0,.06v.19h0l0,.31v-.07l0-.11.08-.18.11-.23.13-.24.13-.26.13-.25.12-.26.11-.27.38-1.16.39-1.17.33-1.2.33-1.17.31-1.18.3-1.17a1,1,0,1,0-2-.53Z"/><path class="cls-9" d="M106.35,79.89l.93-.32.91-.31.89-.28.88-.25.88-.22.94-.17a1.11,1.11,0,0,0,.87-1.3,1.1,1.1,0,0,0-1.29-.87l-1,.19-1,.26-.95.31-.93.32-.91.33-.93.33a1,1,0,0,0,.69,2Z"/><path class="cls-9" d="M120.58,70.75l-.63.08-.66.17-.61.24-.59.31-.54.37-.49.41-.45.45-.41.5-.35.53-.3.55-.25.58-.19.6-.13.61-.07.62v.63L115,78l.17.62.26.59.34.56.44.52.53.46.6.4.7.33.75.24.51.1.53,0h.55l.57-.06.58-.12.58-.18.56-.24.54-.34.45-.4.25-.31.19-.3.14-.33.11-.35.06-.38v-.41l-.07-.48-.17-.47-.22-.39-.24-.34-.26-.29-.27-.28-.29-.22-.3-.14-.26-.09-.22-.06-.2,0-.12,0-.28-.08.31.14h-.07l0,0h0l.06,0,.06.06.06.08,0,.08,0,.09,0,.1,0,.09v0h0l-2.19.27,0,.21,2.19-.27h0v-.08h0v.13l0,.12-.08.25-.12.19h0l-.32.28h0l.09,0,.12,0,.32-.07.38-.08.4-.07.81-.14.65-.1.29,0a1.11,1.11,0,0,0-.33-2.19l-.3,0-.67.1-.83.15-.44.08-.41.08-.37.08-.19,0-.17,0-.16,0-.18.08-.13.07-.32.28h0l-.13.2-.08.26,0,.14v.41h0l2.19-.27,0-.21-2.18.27h0v.15l0,.14,0,.14.07.14.09.13.09.11.1.1.1.09.07,0h0l0,0h0l.3.14.33.09.21,0,.16,0,.11,0h0l-.07-.05.15.15.15.17.11.16.08.13,0,.09,0,.09v.15l0,.07,0,.07,0,.06,0,0-.21.2-.23.15-.32.14-.35.11-.38.08-.38,0h-.35l-.3,0-.21,0-.55-.18-.44-.2-.36-.23-.3-.26-.23-.26-.18-.3-.14-.31-.09-.33,0-.36v-.38l0-.38.08-.4.13-.41.17-.39.21-.38.24-.37.28-.35.31-.31.33-.28.36-.24.38-.2.39-.16.4-.1.49-.06a1,1,0,0,0-.25-2.08Z"/><path class="cls-9" d="M128.15,70.89l-.13.2-.14.27-.14.3-.15.33-.16.36-.16.39-.15.41-.16.44-.15.45-.14.47-.14.48-.13.5-.21,1-.15,1,0,.9,0,.49.07.46.11.44.19.43.27.41.35.34.4.27.4.2.41.15.41.09.42.05h.41l.41,0,.4-.07.38-.09.38-.1.37-.13.38-.15.68-.31.66-.34.62-.35.57-.33.51-.29.45-.23a1.11,1.11,0,0,0-1-2l-.48.26-.54.31-.56.32-.57.33-.58.3-.6.27-.27.11-.27.1-.27.08-.25.06-.24,0-.22,0h-.21l-.19,0-.17,0-.17,0-.15-.07-.14-.09,0,0,0,0,0-.12-.05-.17,0-.24,0-.25,0-.73.11-.79.18-.87.11-.42.12-.43.13-.43.14-.41.14-.4.14-.37.14-.35.13-.32.13-.28.12-.24.09-.19.1-.15a1,1,0,0,0-1.79-1.08Z"/><path class="cls-9" d="M127.63,76.75l2-.52,2-.57,1.93-.64a1.1,1.1,0,1,0-.7-2.09l-1.9.65L129,74.2l-1.92.54a1,1,0,1,0,.55,2Z"/><path class="cls-9" d="M128.52,71.55l1-.15,1-.21,1-.23,1-.24,1-.26,1-.26a1.1,1.1,0,1,0-.56-2.13l-1,.26-1,.28-.94.27-.93.25-.93.2-1,.15a1.06,1.06,0,0,0-.88,1.2A1,1,0,0,0,128.52,71.55Z"/><path class="cls-9" d="M114.3,106.53l-.1.92-.14.89-.17.92-.19.93-.18,1-.15,1,0,.16,0,.21,0,.23-.05.26,0,.28,0,.28,0,.29v.31l0,.24.11.33h0l0,0,0,.08.06.08.07.08.08.07.1.08.1.06.11,0,.06,0h.75l.29-.12.36-.27.27-.35.16-.35.09-.33,0-.31v-1.15l0-.27.12-.58.13-.61.15-.62.16-.65.14-.65.13-.66,0-.16v-.53l0-.36,0-.41,0-.43.07-.83.1-.63-.08.28h0v0h0l0,0v0l0,0,0,0,0,0-.05.05,0,0-.06,0-.08,0-.09,0-.09,0-.11,0-.1,0h-.18l-.31-.09h0l-.07-.05h0l0,.05,0,.09.13.36.17.45.23.44.22.34.23.35.25.41.29.44.31.48.33.5.69,1,.75,1,.75.85.42.41.42.34.45.28.53.21.65.05.58-.16.38-.25.25-.25.18-.27.15-.29.11-.3.09-.32.07-.34,0-.36,0-.4,0-.42v-.92l0-.5,0-.55v-1.23l0-.37,0-.43,0-.47,0-.92,0-.76,0-.39a1.1,1.1,0,1,0-2.2.14l0,.39,0,.76.06.92,0,.47,0,.43,0,.37v.47l0,.52,0,.54,0,.59v.85l0,.35,0,.29,0,.25,0,.2,0,.16,0,.1,0,0h0l0,0,.16-.09h.2l-.07,0-.17-.11-.24-.19-.27-.26-.66-.75-.68-.89-.67-.95-.31-.47-.3-.46-.28-.44-.26-.4-.23-.37-.17-.25-.13-.23-.12-.34-.16-.4-.12-.27-.16-.26-.22-.28-.3-.26-.27-.14-.31-.09H116l-.13,0-.12,0-.12,0-.1.06-.09.06-.08.07-.07.07-.06.06,0,.07,0,.06,0,.06,0,0,0,.06,0,0v0H115l-.08.28-.09.7-.08.89,0,.46,0,.43,0,.37v.55l0-.13-.12.62-.13.61-.15.63-.15.64-.14.65-.13.7,0,.54,0,.49v.61l.06-.07.07,0,0,0h.68l0,0,.09,0,.08.05.08.06.06.06.06.06,0,.06,0,.06v0h0l.11.33v-.11l0-.16,0-.2,0-.23,0-.24.05-.24,0-.24,0-.2.14-.92.18-.91.18-.94.18-1,.16-1,.1-1a1,1,0,1,0-2.08-.23Z"/><path class="cls-9" d="M129.87,103.36l-.32,0-.29.06-.28.06-.25.07-.24.08-.24.1-.22.12-.22.15-.2.19-.17.21-.13.23-.11.26-.09.35-.06.37,0,.37-.06.39-.1.45-.16.56-.08.33-.08.37,0,.39,0,.39v.4l0,.43.08.77.18.8.28.7.21.39.25.34.29.31.35.26.42.21.46.11.48,0,.49-.08.47-.16.46-.23.45-.31.45-.37.36-.36.31-.4.27-.43.23-.44.19-.47.15-.47.13-.49.09-.49.06-.5,0-.49v-.49l0-.49-.07-.47-.1-.47-.14-.45-.17-.43-.22-.42-.27-.38-.32-.35-.39-.31-.44-.23-.49-.16-.53-.06-.44,0a1.1,1.1,0,1,0,.17,2.2l.24,0h.1l.09,0,.09,0,.09.07.11.12.11.15.1.2.1.24.08.27.07.3,0,.32,0,.34v.35l0,.36,0,.36-.06.35-.09.34-.1.33L131,110l-.14.28-.15.25-.17.22-.18.19-.3.25-.25.17-.2.11-.15,0-.09,0h-.1l-.06,0-.07-.08-.09-.11-.07-.12-.19-.46-.12-.52-.07-.6V109l0-.28,0-.26.05-.24.06-.24.17-.62.12-.57.07-.47.05-.37,0-.24,0-.16v0l0,0,0,0,0,0h0l0,0,.07,0,.11,0,.15,0,.2,0,.24,0,.29,0a1,1,0,1,0-.34-2.06Z"/><path class="cls-9" d="M138.78,103.1l.19.76.11.7,0,.71v.7l0,.7-.09.71-.13.71-.15.73-.18.74-.2.75-.21.78-.21.78a1.11,1.11,0,1,0,2.14.57l.21-.79.2-.78.2-.79.18-.79.15-.81.13-.81.08-.82,0-.83v-.85l-.07-.85-.14-.88-.21-.85a1,1,0,1,0-2,.51Z"/><path class="cls-9" d="M135.25,104.29l.69-.09.68-.12.67-.13.66-.14.65-.15.64-.16,1.25-.33,1.24-.34,1.29-.34a1.1,1.1,0,0,0-.57-2.13l-1.3.35-1.25.36-1.23.36-.6.16-.6.16-.61.14-.62.13-.62.11-.66.09a1,1,0,0,0,.29,2.07Z"/><path class="cls-9" d="M42.41,150l.07.79,0,.77,0,.79-.06.79-.09.81-.11.82L42,156.47l-.25,1.7-.19,1.68a1.11,1.11,0,1,0,2.2.24l.17-1.65.23-1.66.23-1.7.09-.87.08-.87,0-.88,0-.88,0-.89-.08-.86a1,1,0,0,0-2.08.19Z"/><path class="cls-9" d="M43.17,151.3l.5-.33.48-.29.47-.26.46-.24.47-.2.47-.17.48-.15.48-.13.51-.11.52-.09.54-.07.6,0A1.11,1.11,0,0,0,49,147l-.65.06-.64.08-.63.12-.6.14-.59.17-.58.21-.56.23-.56.26-.54.28-.54.31-.54.34-.53.35a1,1,0,0,0,1.16,1.74Z"/><path class="cls-9" d="M42.53,156.12l1-.26,1-.25,1-.24,1-.24,1-.22,1-.23a1.1,1.1,0,1,0-.49-2.15l-1,.23-1,.25-1,.27-1,.28-1,.27-1,.27a1,1,0,1,0,.53,2Z"/><path class="cls-9" d="M53.9,148.65l-.25.16-.23.14-.21.15-.21.14-.18.14-.2.16-.3.29-.28.37-.21.39-.13.41-.09.4-.06.42-.06.46-.06.52-.09.64-.06.49,0,.48v.46l0,.43.08.42.11.39.14.37.18.34.21.32.24.28.27.25.29.21.3.18.32.13.33.1.33.07.34,0h.37l.62-.07.64-.17.62-.27.57-.34.54-.44.47-.51.39-.59.31-.67.17-.68,0-.43v-.4l0-.41-.07-.4L59,152.6l-.16-.41-.19-.41-.23-.41-.28-.4-.31-.4-.36-.4-.38-.38-.27-.27-.32-.32-.41-.35-.52-.32-.79-.18-.61.13a1.1,1.1,0,1,0,.62,2.12v0h-.14l.11.08.23.2.27.27.27.27.34.32.26.3.22.29.19.27.15.26.12.25.09.24.06.22,0,.21,0,.2v.32l-.09.4-.14.32-.2.3-.25.28-.29.24-.33.19-.33.15-.34.1-.36,0h-.11l-.13,0-.13,0-.12,0-.11,0-.09,0-.1-.07-.08-.07-.08-.09-.08-.12-.07-.13-.06-.17-.06-.19,0-.23,0-.27v-.31l0-.34,0-.4.08-.63.06-.54,0-.43.05-.33,0-.23,0-.13.05-.09.06-.08.16-.15.07-.06.13-.1.15-.1.18-.12.21-.13.24-.15a1,1,0,0,0-1.11-1.78Z"/><path class="cls-9" d="M62.58,149.05l0,.17,0,.23,0,.28,0,.32,0,.35,0,.38-.07.82,0,.88,0,.89.09.88.22.86.37.71.37.43.43.3.51.17.53.05.53-.07.53-.18.56-.28.54-.36.49-.42.48-.45.44-.5.42-.51.4-.53.37-.54.33-.53.31-.52.27-.5.23-.46.15-.35.14-.37.12-.38.1-.38.1-.38.09-.38.14-.65.09-.47h0l0,.08-2.14-.43v0h0l0,.12,0,.2,0,.25,0,.3,0,.34-.08.72-.06.76v.68l0,.43,0,.37,0,.34.05.32,0,.31.06.3.13.56.16.6.17.69A1.11,1.11,0,0,0,72,153.8l-.18-.69-.15-.57-.12-.51,0-.22,0-.24,0-.26,0-.28,0-.31,0-.32v-.55l.05-.65.07-.67,0-.31,0-.27,0-.24,0-.18,0-.12h0v0l-2.14-.43,0,.08v0h0l-.08.44-.13.61-.08.33-.08.34-.09.33-.1.31-.09.26-.09.21-.19.39-.24.44-.26.46-.3.47-.32.47-.33.47-.36.44-.35.4-.37.36-.35.3-.33.23-.31.16-.2.07h-.11l0,0-.18-.32-.12-.49-.07-.65v-.74l0-.77.06-.75,0-.34,0-.32,0-.29,0-.26,0-.22,0-.17a1,1,0,1,0-2.06-.33Z"/><path class="cls-9" d="M76.18,146.77l0,.12,0,.18,0,.22,0,.26-.05.31-.07.33-.06.36-.07.38-.07.4-.08.42-.07.42-.07.43-.25,1.63-.14,1.29v.22h0v.32l0,.09v.09l0,.09,0,.11,0,.12.09.17.19.24.18.14h0l.69.14h.1l.11,0,.11,0,.1-.05.1,0,.08-.06.07-.07.07-.06,0,0h0l.17-.29.08-.22.06-.28,0-.27,0-.45,0-.41,0-.3v0l0-.13,0-.17,0-.2,0-.22,0-.26.11-.56.12-.62.12-.64.24-1.22.19-.93v0h0v-.16h0v0l0,0,0,.06,0,.07-.07.08-.1.09,0,0,0,0h0l-.13.08.08,0h-.07l-.07,0,.1,0,.09.07.14.13.16.19.17.22.17.23.16.24.18.24.2.22.15.13.15.13.18.15.22.17.25.2.28.21.3.24.32.25.34.26.35.26.36.27.37.28,1.41,1,1.13.75.19.1h.08l0,0,0,0,.06,0,.08,0,.09,0,.1,0,.12,0,.13,0h.38l.3-.09.19-.1h0l.14-.11.16-.15.19-.24.15-.25.11-.27.08-.3.06-.44v-.46l0-.44-.07-.41-.08-.4-.08-.37-.07-.33,0-.29,0-.26,0-.59,0-.6v-.58l0-1.06.06-1.07,0-1.09a1.11,1.11,0,0,0-2.21-.1l0,1.08,0,1.11,0,1.11v.66l0,.63,0,.64,0,.41.07.41.08.39.08.37.07.34.06.32,0,.26v.2l0,.17v0h0v0l0,0,.13-.1H86l.15-.08.26-.07h.31l-.05,0-.06,0-.05,0,0,0h-.08l.19.1-1.09-.72-1.38-1-.35-.25-.35-.27-.35-.26-.33-.25L82.5,149l-.3-.23-.27-.21-.24-.19-.21-.16-.17-.14-.12-.09h0l-.05-.06-.11-.14-.16-.23-.19-.27-.24-.3-.28-.31-.33-.31-.41-.28-.44-.19-.36-.07-.32,0-.31,0-.32.09-.23.11-.13.07h-.07l-.09.06-.13.12-.11.13-.08.12-.06.11,0,.1,0,.1,0,.1,0,.06v.13h0v0h0v0l-.19.94-.23,1.23-.12.65-.12.62-.11.56,0,.25-.05.23,0,.19,0,.17,0,.12,0,.14-.05.4,0,.46,0,.41v.18l.17-.29h0v0l0-.05.06,0,.07-.05.07,0,.09,0,.09,0,.09,0h0l.7.15h-.05l.16.13.17.2.06.12,0,.07v0h0v-.35h0v.23l.13-1.23.24-1.59.07-.4.07-.41.07-.41.07-.4.07-.37.06-.36.06-.33.06-.31.05-.26,0-.23,0-.19,0-.13a1,1,0,0,0-2.07-.35Z"/><path class="cls-9" d="M90.25,145.13l.26,1.77.15,1.73,0,1.75v0l0,.1,0,.14-.07.16-.09.21-.1.32,0,.34h0v0h0v.13l0,.12,0,.12,0,.12.05.13.07.11.07.11.09.1.05.06h0v0h0l.44.26.29.07h.44l.36-.11.29-.16.24-.19.22-.23.28-.37.23-.42.17-.44.14-.59.06-.61v-.57l0-.54,0-.52,0-.51-.05-.33-.08-.33-.09-.31-.09-.28-.07-.25,0-.22,0-.18v-.2l0,0,0,0,.14-.11,0,0h0l.09,0,.12,0,.15,0,.16,0h.44l.47,0,.49,0,.5.08.48.09.44.11.38.12.27.1.16.09.18.12.17.13.13.13.11.11.07.1.06.09,0,.09,0,.06v.27l-.06.26-.12.25-.18.3-.24.32-.3.32-.34.34-.38.34-.41.34L96,150l-.44.32-.44.3-.44.3-.43.27-.41.26-.37.23-.35.22-.3.19-.25.16a1.11,1.11,0,1,0,1.23,1.84l.22-.15.28-.17.33-.21.39-.24.42-.27.45-.29.46-.31.49-.33.48-.36.48-.37.48-.39.45-.4.43-.43.4-.45.35-.47.31-.5.24-.55.15-.53,0-.35V147l0-.32-.07-.32-.11-.32-.14-.3-.17-.28-.21-.28-.24-.25-.26-.24-.3-.23-.34-.23-.39-.21-.46-.17-.51-.16-.54-.13-.58-.11-.6-.09-.6-.06-.6,0h-.56l-.31,0-.28,0-.28.06-.27.08-.28.12-.31.19-.4.35-.34.46-.19.49-.09.49v.46l.06.4.08.37.1.34.09.29.08.25,0,.19,0,.15,0,.46,0,.48,0,.44v.41l0,.36-.08.35,0,.13-.1.18-.13.17h0l0,0,.12,0h.21l.44.25h0l0,0h0l.05.06,0,.07,0,.07,0,.07,0,.07v.14h0v-.08h0l0,.34.08-.26,0-.09.06-.15.08-.18.07-.21.07-.26,0-.34v-1.88l-.16-1.88-.27-1.83a1,1,0,0,0-2.07.3Z"/><path class="cls-9" d="M107,32l-.23-.12-.32-.12-.31-.07-.3,0h-.3l-.33,0-.51.11-.52.21-.46.27-.36.32-.26.35-.2.38-.16.4-.14.43-.11.45-.1.47-.08.5-.06.51,0,.53,0,.53,0,.55v1.07l.07,1,.14,1,.1.47.12.44.14.4.19.39.26.37.33.32.44.3.44.24.43.18.44.13.44.07h.44l.42,0,.41-.11.38-.15.35-.2.32-.23.29-.26.26-.28.24-.3.21-.32.19-.33.17-.34.16-.37.23-.69.18-.74.11-.72.06-.73,0-.69,0-.67-.07-.66-.14-.63-.2-.61-.27-.58-.33-.56-.41-.52-.47-.48-.53-.46-.56-.4a1.1,1.1,0,0,0-1.54.25,1.12,1.12,0,0,0,.25,1.55l.49.34.38.33.32.32.25.33.21.33.16.36.13.38.09.41,0,.47,0,.51v.56l0,.61-.08.55-.13.54-.18.54-.1.22-.11.23-.12.21-.12.19-.13.17-.13.14-.13.12-.12.09-.12.07-.12,0-.12,0-.13,0h-.14l-.16,0-.19-.06-.23-.09-.25-.13-.26-.18h0l0-.06-.08-.15-.08-.23-.09-.29-.07-.32-.12-.82-.07-.9V37.25l0-.47,0-.46,0-.44.07-.42.07-.38.09-.34.09-.29.09-.23.08-.16,0-.06h0l.19-.11.21-.09.27-.05h.31l.08,0A1,1,0,0,0,107,32Z"/><path class="cls-9" d="M89.48,34.29l0,.64,0,.63-.08.66-.11.69-.14.71-.16.74-.28,1.5-.16,1.56.14,1.48.1.4.11.3.15.28.18.25.21.23.29.23.46.25.55.17.54.06.54,0,.55-.07.55-.12.55-.17L94,44.5l.55-.22.54-.25.54-.27.53-.28.51-.28.49-.3.46-.29.44-.29.4-.28.36-.26.32-.25.29-.24.21-.2a1.1,1.1,0,1,0-1.51-1.61l-.16.15-.21.18-.27.21-.31.23-.36.25-.4.26L96,41l-.44.26-.46.27-.48.25-.47.24-.47.22-.47.19-.44.16-.43.13-.39.09-.33,0h-.29l-.21,0-.13,0-.12-.07h0l0,0,0,0,0-.06h0l-.13-1.22.12-1.26.26-1.4.15-.72.14-.76.13-.76.09-.79,0-.8,0-.74a1,1,0,1,0-2.09.1Z"/><path class="cls-9" d="M94.29,34.87v1l0,1,.07,1,.09,1,.1,1,.12,1L95,42.77l.26,1.92.24,1.94a1.12,1.12,0,0,0,1.23,1,1.1,1.1,0,0,0,1-1.23l-.24-2-.29-1.94-.28-1.92-.13-.94-.12-1-.09-.95-.08-1,0-.94,0-1a1,1,0,1,0-2.09,0Z"/><path class="cls-9" d="M115.08,30.64v.48l0,.33,0,.38,0,.43,0,.47,0,.5,0,.53,0,.54,0,.56,0,.57,0,.58,0,1.12,0,1.08.11.95.09.49.13.44.19.42.27.41.43.38.51.2.41,0h.34l.33,0,.31-.07.3-.08.32-.12.57-.24.57-.29.57-.31,1.07-.61.93-.5L123,39a1.11,1.11,0,0,0-.76-2.08l-1,.35-1.09.59-1.08.62-.51.28-.48.25-.46.19-.18.07-.17,0-.14,0-.12,0H117l.11.06.09.07,0,0-.06-.14-.06-.22-.06-.28-.11-.81,0-.94V35.51l0-.54,0-.54,0-.53,0-.52,0-.49,0-.47,0-.43,0-.39,0-.36v-.55a1,1,0,1,0-2.09-.05Z"/><path class="cls-9" d="M118.35,31.75l.08.58,0,.54,0,.57V34l0,.59,0,.61-.07,1.24v1.29l.13,1.29.1.53.1.44.11.39.1.36.1.33.08.28.14.58.06.58,0,.82a1.11,1.11,0,0,0,2.21.09l0-1-.09-.89-.17-.76-.11-.37-.1-.33-.11-.33-.09-.34-.09-.35-.07-.35-.14-1.12V36.5l0-1.19,0-.61,0-.63v-1.3l-.06-.68-.09-.64a1.06,1.06,0,0,0-1.19-.89A1,1,0,0,0,118.35,31.75Z"/></g></g></svg>