<svg xmlns="http://www.w3.org/2000/svg" viewBox="0 0 445.05 469.13"><defs><style>.cls-1,.cls-21{fill:#ffdde0;}.cls-15,.cls-17,.cls-19,.cls-2,.cls-20,.cls-4,.cls-7{fill:none;}.cls-17,.cls-19,.cls-2,.cls-21,.cls-4{stroke:#776f8a;}.cls-15,.cls-17,.cls-18,.cls-19,.cls-2,.cls-20,.cls-21,.cls-4{stroke-miterlimit:10;}.cls-2{stroke-width:2.91px;}.cls-3{fill:#dee1f4;}.cls-4{stroke-width:2.09px;}.cls-10,.cls-11,.cls-16,.cls-5,.cls-8{isolation:isolate;}.cls-5{opacity:0.4;}.cls-6{fill:#25144d;}.cls-8{opacity:0.65;}.cls-9{fill:#fff;}.cls-10{opacity:0.25;}.cls-11{opacity:0.9;}.cls-12{fill:#f6f6fb;}.cls-13{fill:#776f8a;}.cls-14,.cls-18{fill:#c8cce9;}.cls-15,.cls-18{stroke:#c8cce9;}.cls-15,.cls-17{stroke-width:2.87px;}.cls-16{opacity:0.33;}.cls-18,.cls-19,.cls-20{stroke-width:1.45px;}.cls-20{stroke:#25144d;}.cls-21{stroke-width:2.06px;}</style></defs><g id="Layer_2" data-name="Layer 2"><g id="Layer_1-2" data-name="Layer 1"><g id="wings_background" data-name="wings background"><path class="cls-1" d="M275.06,155.55a47,47,0,0,0,2.13-8.36.94.94,0,0,0-1.56-.91c-18.29,17.86-37.17,34.94-59.59,47.5a.55.55,0,0,0-.27.32.6.6,0,0,0-.29.55c0,2.3,1.52,3.73,3.67,4.46a28.29,28.29,0,0,0,5.21,1.14A22.69,22.69,0,0,0,233,202.4c5.32.17,10.75.21,16.12,0,2.87.37,6.13.78,8.39-.57.05,0,.07-.07.12-.1a1.09,1.09,0,0,0,1.08-.42c2.93-3.82,7.67-5.15,12.3-5.37,5.23-.25,8.64,2.5,13,4.79a1,1,0,0,0,.55.41c.14-6.92,5.56-14.38,11.4-16.93a17.26,17.26,0,0,1,12.35-.44c-1.18-3.47-.33-7.19,1.12-10.47,2.58-5.88,7.26-12.37,13.27-15.58-15.35-5.23-31.88-5.58-47.65-2.17"/><path class="cls-2" d="M275.06,155.55a47,47,0,0,0,2.13-8.36.94.94,0,0,0-1.56-.91c-18.29,17.86-37.17,34.94-59.59,47.5a.55.55,0,0,0-.27.32.6.6,0,0,0-.29.55c0,2.3,1.52,3.73,3.67,4.46a28.29,28.29,0,0,0,5.21,1.14A22.69,22.69,0,0,0,233,202.4c5.32.17,10.75.21,16.12,0,2.87.37,6.13.78,8.39-.57.05,0,.07-.07.12-.1a1.09,1.09,0,0,0,1.08-.42c2.93-3.82,7.67-5.15,12.3-5.37,5.23-.25,8.64,2.5,13,4.79a1,1,0,0,0,.55.41c.14-6.92,5.56-14.38,11.4-16.93a17.26,17.26,0,0,1,12.35-.44c-1.18-3.47-.33-7.19,1.12-10.47,2.58-5.88,7.26-12.37,13.27-15.58C307.36,152.49,290.83,152.14,275.06,155.55Z"/><path class="cls-3" d="M269.35,161.05c2.82-3.66,5.41-7.58,6.36-11.93a3.79,3.79,0,0,1,0-1c-.1-.48-15.51,14.44-23.07,20.29l-2,1.53a72.29,72.29,0,0,1-6.52,6.1c-7,5.68-23.31,15.94-23.71,16.18a15.23,15.23,0,0,0,3.37.41c.84.07,34.15-19.62,45.6-31.63"/><path class="cls-1" d="M223.7,146.3a20.62,20.62,0,0,0-1.58-5c-.22-.48-1.16-.3-1.4.41-6.08,18.13-12.85,36.21-23.7,54.08a.46.46,0,0,0-.07.3.36.36,0,0,0,0,.41c.83,1.07,2.39.92,4.13.11a35.48,35.48,0,0,0,4-2.27,27.33,27.33,0,0,0,6.73-3.65c3.73-2.77,7.47-5.67,11.09-8.65,2.1-1.37,4.49-2.92,5.55-4.77a.54.54,0,0,0,0-.11,1.2,1.2,0,0,0,.59-.77c.63-3.36,3.4-6.52,6.51-9.11,3.49-2.91,6.84-3.47,10.66-4.73a.91.91,0,0,0,.52-.11c-2.41-3.29-1.4-9.67,1.69-14a21.87,21.87,0,0,1,8.33-6.83c-2.08-1-2.84-3.16-3-5.47a24.06,24.06,0,0,1,3.46-14.37A113.63,113.63,0,0,0,223.7,146.3"/><path class="cls-4" d="M223.7,146.3a20.62,20.62,0,0,0-1.58-5c-.22-.48-1.16-.3-1.4.41-6.08,18.13-12.85,36.21-23.7,54.08a.46.46,0,0,0-.07.3.36.36,0,0,0,0,.41c.83,1.07,2.39.92,4.13.11a35.48,35.48,0,0,0,4-2.27,27.33,27.33,0,0,0,6.73-3.65c3.73-2.77,7.47-5.67,11.09-8.65,2.1-1.37,4.49-2.92,5.55-4.77a.54.54,0,0,0,0-.11,1.2,1.2,0,0,0,.59-.77c.63-3.36,3.4-6.52,6.51-9.11,3.49-2.91,6.84-3.47,10.66-4.73a.91.91,0,0,0,.52-.11c-2.41-3.29-1.4-9.67,1.69-14a21.87,21.87,0,0,1,8.33-6.83c-2.08-1-2.84-3.16-3-5.47a24.06,24.06,0,0,1,3.46-14.37A113.63,113.63,0,0,0,223.7,146.3Z"/><path class="cls-3" d="M221.67,152c.61-3.22,1-6.43,0-9a1.79,1.79,0,0,1-.35-.43,6.72,6.72,0,0,0-.78-.47c-.93,7-4.63,15.51-7.7,22.29-.28.61-.56,1.19-.83,1.79a60.3,60.3,0,0,1-2.27,6.34c-2.77,6.42-6.72,12.47-10.29,18.72a11,11,0,0,1-.52,1,20.77,20.77,0,0,0,2.59-1.72c.6-.41,1.2-.79,1.81-1.14.36-.47.72-.95,1.07-1.44,5.52-11.89,13.73-24.27,17.24-36"/></g><g id="wings_detail" data-name="wings detail"><g class="cls-5"><path class="cls-6" d="M220.67,170.75c7.87-5.58,16.44-9,26.19-8.22.37,0,.37-.54,0-.57l-.72-.05c-.25,0-.29.36-.06.42a14.48,14.48,0,0,0-5.53-.58,33.53,33.53,0,0,0-6.86,1.46,39.72,39.72,0,0,0-13.17,7.34c-.11.09,0,.28.15.2"/><rect class="cls-7" x="220.48" y="161.68" width="26.66" height="9.08"/><rect class="cls-7" x="219.61" y="160.24" width="27.63" height="11.64"/></g><g class="cls-5"><path class="cls-6" d="M214.17,174.17A151.86,151.86,0,0,1,257,141.68c.42-.21.06-.82-.36-.62a137.25,137.25,0,0,0-42.58,33c-.06.07,0,.17.1.1"/><rect class="cls-7" x="214.05" y="141.02" width="43.15" height="33.17"/><rect class="cls-7" x="213.8" y="139.88" width="43.63" height="34.91"/></g><g class="cls-5"><path class="cls-6" d="M203.26,189.24a291.51,291.51,0,0,0,17.6-34.39c0-.14-.14-.26-.21-.12-6,11.33-11.87,22.91-17.5,34.45,0,.07.07.13.11.06"/><rect class="cls-7" x="203.14" y="154.67" width="17.72" height="34.6"/><rect class="cls-7" x="202.16" y="154.42" width="18.91" height="34.91"/></g><g class="cls-5"><path class="cls-6" d="M226.3,191.54a293.06,293.06,0,0,0,40.23-27.61c.14-.12,0-.37-.21-.27-13.52,8.86-27,18.26-40.11,27.73-.09.07,0,.21.09.15"/><rect class="cls-7" x="226.17" y="163.64" width="40.41" height="27.92"/><rect class="cls-7" x="225.43" y="163.15" width="42.18" height="29.09"/></g><g class="cls-5"><path class="cls-6" d="M246.79,182.8A117.64,117.64,0,0,1,308.35,184a.51.51,0,0,0,.28-1,109.18,109.18,0,0,0-61.89-.41.1.1,0,0,0,0,.19"/><rect class="cls-7" x="246.67" y="178.33" width="62.32" height="5.71"/><rect class="cls-7" x="245.79" y="177.69" width="64" height="7.27"/></g><g class="cls-5"><path class="cls-6" d="M255.09,185c12.31.62,22.1,6.34,29.29,16.21a.42.42,0,1,0,.67-.51l-.66-.84c-.23-.28-.61.08-.47.37-.4-.84,0-1.06-.83-2.48a21,21,0,0,0-3.58-3.89,35.71,35.71,0,0,0-7.26-5.19,33.57,33.57,0,0,0-17.16-4,.18.18,0,0,0,0,.35"/><rect class="cls-7" x="254.92" y="184.63" width="30.24" height="16.78"/><rect class="cls-7" x="254.52" y="183.51" width="32" height="18.91"/></g></g><g id="body-colour"><path class="cls-3" d="M421,208.42a98.23,98.23,0,0,0-17.17-25c-3-3.17-6.48-6.64-10.1-9.9l0,0a12.29,12.29,0,0,0-1.54-.77,50.38,50.38,0,0,1,1.87,9.5,63.24,63.24,0,0,1-4.94,32.74c-9.83,23.08-27.84,37.67-51.18,43.87a.13.13,0,0,1-.12,0c-1.35-1.56-2.77-3.05-4.28-4.48h0a54.72,54.72,0,0,0-3.92-4.67,161.75,161.75,0,0,0-12.86-12.93,190.39,190.39,0,0,0-25-18.92c-1.44-.94-3.06-1.92-4.68-2.93h0a32.3,32.3,0,0,0-5.34-3.18l0,0c-5.78-4.64-14-7.52-19.9-9.69-12.91-4.66-26.45-6.79-40-8.68S195.57,191,185.16,180.7C179.28,175,170.71,161,170.71,161c-.68-2.1-2.12-7.48-2.21-8-1.05-6.44-10.24-26.42-10.77-24.2a.08.08,0,0,1,0,.07,15.5,15.5,0,0,0-2.08,1.71c0-.78-.13-1.56-.17-2.33C155.26,123.74,79,98.25,80,153A195.46,195.46,0,0,0,93.08,219C99.55,235.73,104,253.78,111.82,270a.12.12,0,0,1-.09.17A34.58,34.58,0,0,0,96.66,277c-8.36,6.31-9.76,13.71-13.52,23.58-8.66,22.1-6.57,41.58,2.14,62.83,8.41,20.52,16.52,40.43,37.38,52.75,10.28,6.07,21,7.47,29.81,8.08.05,0-.39,5.32-.5,7.07-.3,3.19-2.1,5.54-3.45,8.44,0,0-2.37-.25-2.4-.24a13.4,13.4,0,0,0-2.84,1.69c-.05,0,2.94-1.7,2.91-1.75-4-5.51-11.92-4.73-17,.22,0,.05-4.91-9.35-23.21,2.11-3.83,2.39-5.53,7.17-6.66,11.58v0a33.08,33.08,0,0,0,0,4.67l4.78,4.42c1.47,2.72,5,3.91,5,3.91,20.48.21,39.51,2.57,60,1.38,4.8-.27,9.6-.39,14.42-.46h0a21.76,21.76,0,0,0,10.9-9,0,0,0,0,1,0,0c1.09-3,2-6.13,2.88-8.92,3.07-9.41,5.56-19.06,10.4-27.69,2.29-4.08,5.12-8,7.18-12.17a.12.12,0,0,1,.14-.06c5.91,1.44,12.76,1.34,17.24,1.44,8.9.29,18.24,1,27.4.59a.11.11,0,0,1,.08,0,64.45,64.45,0,0,0,26.91,13.16v.35c2.76.87,2.59,4,1.45,6.82-.16.57-.34,1.13-.55,1.68-.57,1.38-2,3.36-3.47,3.64a.6.6,0,0,1,0,.19,13.78,13.78,0,0,0-4.18.66,19,19,0,0,0-7.51,4.65.14.14,0,0,1-.17,0,18.18,18.18,0,0,0-13.58-5.11c-9.29.63-14.32,8.93-15.89,17.44a31.92,31.92,0,0,0-.72,6.75.07.07,0,0,0,0,.05,15.74,15.74,0,0,0,2,3.3l0,0a19,19,0,0,0,4.16,2.25h.05c12.87,0,25.73.41,38.59.81h0a27.38,27.38,0,0,1,10.48-.3c1.05.19,17.32,1.88,24.58-.66a.18.18,0,0,0,.07-.05c.87-1.53,27.22-48,26.75-53.89a.08.08,0,0,0,0-.05,29.51,29.51,0,0,0-2.35-4.13s0,0,0,0a47.13,47.13,0,0,1-6.18-4h0q-2-1.05-3.79-2.29a.12.12,0,0,1,0-.22c12.54-2.87,25.17-11.28,34.86-17.33a126.63,126.63,0,0,0,25.92-21.4h0A144.49,144.49,0,0,0,407,350.22c2.67-4.23,5.33-8.54,7.84-12.92h0c1.37-3.24,2.88-6.44,4.32-9.62h0A196.11,196.11,0,0,0,431.56,273c1.6-21.78-1-44.84-10.57-64.62M205.47,218.51c-1,2.75-1.89,5.51-2.8,8.28a.08.08,0,0,1,0,0,75,75,0,0,0-5.65,7.28.13.13,0,0,1-.21,0L192.31,226a7.48,7.48,0,0,0-4.64-3.8.12.12,0,0,1-.07,0l-1-1.7a7.23,7.23,0,0,0-.32-1c-.55-1.45-1.13-2.9-1.72-4.34a.12.12,0,0,1,.17-.15A17.87,17.87,0,0,0,194.94,217a8.44,8.44,0,0,0,7.69-7.21.12.12,0,0,1,.14-.09q3.21.75,6.43,1.4a.11.11,0,0,1,.07.18,25,25,0,0,0-3.8,7.28"/></g><g id="body_detail" data-name="body detail"><g class="cls-8"><path class="cls-9" d="M419.85,218c3.55,13.23,7.12,26.71,6.77,40.46-.22,9,0,21.39-2,30.13-3.82,16.35-6.65,30.86-13.27,46.18s-19.27,27.94-31.28,39c-11.81,10.86-26.1,18.16-40.21,25.33l.93.44c-6.9-.6-12.84-6.38-15.06-13.32s-1.1-14.75,1.93-21.34,7.82-12.11,13-17c10.65-9.95,23.14-17.45,34.11-27,29.64-25.81,46.72-67,44.61-107.54"/><rect class="cls-7" x="324.54" y="213.39" width="102.11" height="186.19"/><rect class="cls-7" x="324.33" y="212.6" width="103.27" height="187.62"/></g><g class="cls-8"><path class="cls-9" d="M261.55,410.78c-28.16-1.71-64.88-3.42-85.94-22.21-15.47-13.82-23.54-30.62-31.68-49.7-15.38-36.07-27.88-73.61-43.44-110.8C85.36,191.9,79.11,150.69,85.31,112c.74-4.58,4.51-8.32,7.54-11.83,4-4.64,10.88-6.07,16.88-4.8s6.2,3.31,8.4,9c5.35,13.92,4.45,10.71,10.63,26.56,7.4,19,23.52,41.36,35.66,52.74,8.85,8.29,57.49,72.19,72.28,88.41,11.76,12.9,17.27,14.79,24.35,20.55-8.8-4.79-19.91,5.61-26.08,13.5s-4.95,18.61-5.41,28.62c-1.38,29.78,7.38,59.19,32,76"/><rect class="cls-7" x="82.94" y="94.9" width="178.61" height="315.88"/><rect class="cls-7" x="82.9" y="94.79" width="178.9" height="317.07"/></g><g class="cls-10"><path class="cls-6" d="M151.1,172.91c-16,14.6-36.62,21.33-57.38,26-.5.11-.29.88.21.77,20.91-4.72,41.6-11.52,57.73-26.22.38-.34-.19-.9-.56-.56"/><rect class="cls-7" x="93.43" y="172.8" width="58.35" height="26.89"/><rect class="cls-7" x="93.08" y="171.88" width="59.63" height="29.09"/></g><g class="cls-10"><path class="cls-6" d="M230.3,274.15c-29,18.47-63.15,23-96.55,27.06-.5.06-.51.86,0,.8,33.53-4.08,67.89-8.64,96.95-27.18.43-.27,0-1-.4-.68"/><rect class="cls-7" x="133.37" y="274.08" width="97.52" height="27.93"/><rect class="cls-7" x="132.35" y="273.69" width="98.9" height="29.09"/></g><g class="cls-10"><path class="cls-6" d="M244.24,281.05c-16.37,7.72-31,18.85-48.49,24.15-18.38,5.58-37.92,10.17-57.12,11.23-.51,0-.51.83,0,.8C158,316.16,177.47,311.57,196,306c17.54-5.32,32.26-16.48,48.68-24.24.47-.22.06-.9-.4-.68"/><rect class="cls-7" x="138.25" y="281" width="106.6" height="36.22"/><rect class="cls-7" x="138.16" y="280.96" width="107.63" height="36.36"/></g><g class="cls-10"><path class="cls-6" d="M242.13,297.75a201.35,201.35,0,0,1-46.08,23.47,197.71,197.71,0,0,1-23.14,6.64c-9.5,2.1-20.07,4.67-29.78,3-.5-.09-.72.68-.21.76,7.55,1.28,15.28-.17,22.75-1.52a197.6,197.6,0,0,0,28.2-7.3,202.4,202.4,0,0,0,48.66-24.39c.42-.29,0-1-.4-.68"/><rect class="cls-7" x="142.63" y="297.68" width="100.08" height="34.46"/><rect class="cls-7" x="142.53" y="296.96" width="100.36" height="36.36"/></g><g class="cls-10"><path class="cls-6" d="M232.46,316.83c-25.26,17.62-54.68,29.09-85.82,28.05-.51,0,2.35.84,2.86.86,31.25,1,58-10.53,83.36-28.22.42-.29,0-1-.4-.69"/><rect class="cls-7" x="146.26" y="316.76" width="86.78" height="28.98"/><rect class="cls-7" x="145.44" y="315.87" width="88.72" height="30.54"/></g><g class="cls-10"><path class="cls-6" d="M228.81,332.24c-11,7.88-21.55,14.22-34.69,17.85-13.58,3.76-23.86,6.33-37.58,9.53-.5.11,0,.8.54.69,14.51-3.38,25.32-6,39.64-10.11,12.18-3.51,22.25-9.95,32.49-17.28.41-.29,0-1-.4-.68"/><rect class="cls-7" x="152.85" y="332.16" width="76.54" height="29.03"/><rect class="cls-7" x="152.71" y="331.86" width="77.09" height="30.54"/></g><g class="cls-10"><path class="cls-6" d="M233.37,361.36c-16,14.59-36.62,21.32-57.38,26-.5.12-.29.88.21.77,20.91-4.72,41.6-11.52,57.73-26.21.38-.35-.19-.91-.56-.56"/><rect class="cls-7" x="175.7" y="361.25" width="58.35" height="26.89"/><rect class="cls-7" x="174.53" y="360.95" width="59.63" height="27.63"/></g><g class="cls-10"><path class="cls-6" d="M236.08,374.38c-14,9.41-28.08,18.25-44.69,22.05-.46.11-.27.82.2.71,16.66-3.81,30.85-12.68,44.86-22.13.39-.26,0-.9-.37-.63"/><rect class="cls-7" x="191.13" y="374.31" width="45.49" height="22.84"/><rect class="cls-7" x="190.52" y="374.04" width="46.54" height="23.27"/></g><g class="cls-10"><path class="cls-6" d="M242.6,390.79a83.54,83.54,0,0,1-33.82,15.3c-.5.1-.29.86.21.76a83.6,83.6,0,0,0,34-15.38c.4-.3,0-1-.4-.68"/><rect class="cls-7" x="208.49" y="390.71" width="34.68" height="16.15"/><rect class="cls-7" x="207.98" y="390.04" width="36.36" height="17.45"/></g><g class="cls-10"><path class="cls-6" d="M251.87,400.28a150.86,150.86,0,0,1-19.36,8.28c-.48.17-.27.93.21.77A151.85,151.85,0,0,0,252.27,401c.46-.23,0-.91-.4-.68"/><rect class="cls-7" x="232.24" y="400.23" width="20.23" height="9.12"/><rect class="cls-7" x="231.25" y="400.22" width="21.82" height="10.18"/></g><g class="cls-10"><path class="cls-6" d="M339.41,351.61c6.67,12.42,10,28.43,12.84,42.2.09.46.79.27.7-.19-2.82-13.89-6.16-29.82-12.91-42.38-.22-.41-.85,0-.63.37"/><rect class="cls-7" x="339.36" y="351.06" width="13.6" height="43.01"/><rect class="cls-7" x="338.88" y="350.77" width="14.54" height="43.63"/></g><g class="cls-10"><path class="cls-6" d="M347.06,345a182.53,182.53,0,0,1,12.23,44.46c.07.47.77.27.71-.19a183.08,183.08,0,0,0-12.24-44.47c-.17-.42-.88-.23-.7.2"/><rect class="cls-7" x="347.03" y="344.6" width="12.97" height="45.16"/><rect class="cls-7" x="346.15" y="343.5" width="14.54" height="46.54"/></g><g class="cls-10"><path class="cls-6" d="M353,341.07a123.29,123.29,0,0,1,16.38,44.26c.08.46.78.27.7-.19a123.47,123.47,0,0,0-16.45-44.43c-.24-.4-.87,0-.63.36"/><rect class="cls-7" x="352.93" y="340.53" width="17.14" height="45.06"/><rect class="cls-7" x="351.97" y="339.14" width="18.91" height="46.54"/></g><g class="cls-10"><path class="cls-6" d="M359.46,335.68c3.88,6.82,8.12,13.55,11.57,20.61,3.54,7.25,5.09,15.29,7.09,23.06a.36.36,0,0,0,.7-.19c-1.81-7-3.2-14.37-6.12-21-3.48-7.9-8.35-15.32-12.61-22.81a.37.37,0,0,0-.63.37"/><rect class="cls-7" x="359.41" y="335.13" width="19.43" height="44.48"/><rect class="cls-7" x="359.24" y="334.77" width="20.36" height="45.09"/></g><g class="cls-10"><path class="cls-6" d="M367.16,330.25c4.15,5.44,9.38,9.85,13.3,15.52a67,67,0,0,1,9.34,20.71.36.36,0,0,0,.7-.2,68.5,68.5,0,0,0-8.1-18.9c-4.14-6.52-10-11.41-14.61-17.5-.28-.37-.92,0-.63.37"/><rect class="cls-7" x="367.08" y="329.73" width="23.43" height="37.01"/><rect class="cls-7" x="366.51" y="328.96" width="24.73" height="37.82"/></g><g class="cls-10"><path class="cls-6" d="M375.07,324.66c10.86,8,21.47,16.27,28.7,27.88.25.4.88,0,.63-.36-7.29-11.71-18-20.07-29-28.15-.37-.28-.74.35-.36.63"/><rect class="cls-7" x="374.91" y="323.96" width="29.55" height="28.75"/><rect class="cls-7" x="373.78" y="323.14" width="32" height="30.54"/></g><g class="cls-10"><path class="cls-6" d="M384.36,315.5c9.91,6.17,19.62,12.6,26.27,22.42.26.39.89,0,.63-.37-6.73-9.93-16.51-16.44-26.53-22.68-.4-.25-.77.38-.37.63"/><rect class="cls-7" x="384.19" y="314.81" width="27.13" height="23.28"/><rect class="cls-7" x="383.96" y="314.41" width="27.63" height="24.73"/></g><g class="cls-10"><path class="cls-6" d="M391.53,306c8,6,17.1,10.55,24.26,17.69.33.33.85-.18.51-.51-7.2-7.19-16.32-11.74-24.4-17.81-.38-.28-.74.35-.37.63"/><rect class="cls-7" x="391.38" y="305.29" width="25.04" height="18.5"/><rect class="cls-7" x="391.24" y="304.23" width="26.18" height="20.36"/></g><g class="cls-10"><path class="cls-6" d="M397.91,299.4c5.71,6.59,14.41,8,21.57,12.4.4.25.76-.38.36-.63-7.09-4.38-15.75-5.75-21.41-12.29-.31-.35-.82.16-.52.52"/><rect class="cls-7" x="397.82" y="298.76" width="22.2" height="13.1"/><rect class="cls-7" x="397.05" y="298.41" width="23.27" height="14.54"/></g><g class="cls-10"><path class="cls-6" d="M406,289.89c4.39,4.94,10.24,7.66,16.22,10.2.42.18.8-.44.36-.63-5.91-2.51-11.71-5.19-16.07-10.09-.31-.35-.82.17-.51.52"/><rect class="cls-7" x="405.87" y="289.26" width="16.87" height="10.87"/><rect class="cls-7" x="405.78" y="288.23" width="17.45" height="13.09"/></g><g class="cls-10"><path class="cls-6" d="M408.31,279.28c5,3.77,10.17,7.56,16.62,7.8.46,0,.46-.71,0-.73-6.32-.23-11.41-4-16.25-7.7-.37-.29-.73.35-.37.63"/><rect class="cls-7" x="408.16" y="278.58" width="17.12" height="8.5"/><rect class="cls-7" x="407.24" y="278.05" width="18.91" height="10.18"/></g><g class="cls-10"><path class="cls-6" d="M410.71,270.33a52.3,52.3,0,0,0,16.86,7.95.36.36,0,0,0,.19-.7,51.86,51.86,0,0,1-16.68-7.88c-.39-.27-.75.36-.37.63"/><rect class="cls-7" x="410.55" y="269.64" width="17.47" height="8.66"/><rect class="cls-7" x="410.14" y="269.32" width="18.91" height="10.18"/></g><g class="cls-10"><path class="cls-6" d="M414,263.29a44,44,0,0,0,12.76,4.64c.46.1.65-.61.19-.7a43.46,43.46,0,0,1-12.58-4.57c-.41-.22-.78.41-.37.63"/><rect class="cls-7" x="413.84" y="262.62" width="13.4" height="5.33"/><rect class="cls-7" x="413.05" y="262.05" width="14.54" height="7.27"/></g><g class="cls-10"><path class="cls-6" d="M416.5,253.26q5.55,1.22,11.14,2.24c.46.09.66-.61.19-.7q-5.58-1-11.14-2.24c-.45-.11-.65.6-.19.7"/><rect class="cls-7" x="416.24" y="252.54" width="11.86" height="2.97"/><rect class="cls-7" x="415.96" y="251.87" width="13.09" height="4.36"/></g><g class="cls-10"><path class="cls-6" d="M420.43,244a13.19,13.19,0,0,0,5.89-.34.36.36,0,0,0-.2-.7,12.29,12.29,0,0,1-5.49.33c-.46-.07-.66.63-.2.71"/><rect class="cls-7" x="420.17" y="242.96" width="6.4" height="1.24"/><rect class="cls-7" x="418.87" y="241.69" width="8.73" height="2.91"/></g><g class="cls-10"><path class="cls-6" d="M424.38,232.45a11.92,11.92,0,0,1-4.07.5c-.47,0-.46.71,0,.73a12.51,12.51,0,0,0,4.26-.53c.45-.14.26-.84-.19-.7"/><rect class="cls-7" x="419.96" y="232.43" width="4.87" height="1.27"/><rect class="cls-7" x="418.87" y="231.51" width="7.27" height="2.91"/></g><g class="cls-10"><path class="cls-6" d="M211.35,251.48c-26.19,16.66-57,20.78-87.21,24.45-.45.05-.46.77,0,.71,30.31-3.68,61.29-7.82,87.57-24.55.39-.24,0-.86-.36-.61"/><rect class="cls-7" x="123.8" y="251.42" width="88.08" height="25.23"/><rect class="cls-7" x="123.62" y="250.42" width="88.72" height="27.63"/></g><g class="cls-10"><path class="cls-6" d="M224.79,265.32c-15,5.33-28.93,13.78-44.65,17.05-17.38,3.62-35.81,5.92-53.57,5.13-.46,0-.46.7,0,.72,17.09.76,34.52-1.59,51.31-4.68S209.12,271.64,225,266c.43-.16.25-.85-.19-.69"/><rect class="cls-7" x="126.22" y="265.29" width="99" height="23.07"/><rect class="cls-7" x="125.07" y="264.96" width="100.36" height="24.73"/></g><g class="cls-10"><path class="cls-6" d="M135.81,158.84c-15.7,6.07-31.42,11.54-48.47,11.56a.37.37,0,0,0,0,.74c17.09,0,32.9-5.5,48.67-11.59.44-.17.25-.88-.2-.71"/><rect class="cls-7" x="86.98" y="158.82" width="49.27" height="12.32"/><rect class="cls-7" x="85.81" y="158.79" width="50.91" height="13.09"/></g><g class="cls-10"><path class="cls-6" d="M180.62,205.81c-10.81,9.11-21,16.16-34.41,21q-19.25,6.9-38.72,13c-.49.15-.28.92.21.77,14.59-4.64,29.22-9.36,43.53-14.81,11.42-4.35,20.7-11.61,30-19.41.39-.33-.17-.89-.56-.56"/><rect class="cls-7" x="107.21" y="205.71" width="74.11" height="34.89"/><rect class="cls-7" x="106.17" y="205.33" width="75.63" height="36.36"/></g><g class="cls-10"><path class="cls-6" d="M187.45,221.7c-11,7.88-21.54,14.22-34.69,17.86-13.58,3.75-27.27,7.12-41,10.32-.49.11-.28.88.21.76,14.52-3.38,29.06-6.85,43.38-11,12.19-3.5,22.26-9.95,32.49-17.28.42-.29,0-1-.4-.68"/><rect class="cls-7" x="111.49" y="221.63" width="76.54" height="29.03"/><rect class="cls-7" x="110.53" y="221.33" width="78.54" height="30.54"/></g><g class="cls-10"><path class="cls-6" d="M183.67,241.32c-20.55,12.13-43.84,17-67,21.6-.5.1-.29.87.21.77,23.2-4.61,46.56-9.52,67.16-21.69a.39.39,0,0,0-.4-.68"/><rect class="cls-7" x="116.41" y="241.26" width="67.85" height="22.44"/><rect class="cls-7" x="116.35" y="240.24" width="68.36" height="24.73"/></g><g class="cls-10"><path class="cls-6" d="M167.77,197c-19.24,14.09-42,21.26-64.51,28.1a.39.39,0,0,0,.21.76c22.64-6.86,45.39-14,64.7-28.17.41-.3,0-1-.4-.69"/><rect class="cls-7" x="102.98" y="196.96" width="65.36" height="28.95"/><rect class="cls-7" x="101.8" y="196.6" width="66.9" height="30.54"/></g><g class="cls-10"><path class="cls-6" d="M157.78,184.87c-18.41,13.57-40.15,20.54-61.76,27.21-.47.15-.27.88.2.73,21.69-6.69,43.47-13.67,61.94-27.28.39-.29,0-.95-.38-.66"/><rect class="cls-7" x="95.76" y="184.8" width="62.57" height="28.03"/><rect class="cls-7" x="94.53" y="183.51" width="64" height="30.54"/></g><g class="cls-10"><path class="cls-6" d="M148.19,157.92c-16,14.6-36.62,21.33-57.38,26-.5.12-.29.88.21.77,20.91-4.72,41.6-11.52,57.73-26.21.38-.35-.19-.91-.56-.57"/><rect class="cls-7" x="90.52" y="157.82" width="58.35" height="26.89"/><rect class="cls-7" x="90.17" y="157.33" width="59.63" height="27.63"/></g><g class="cls-11"><path class="cls-12" d="M247.89,299.31c-8.67,8.61-11.49,22.92-10.73,34.67.3,4.61,7.52,4.64,7.22,0-.64-9.85,1.26-22.28,8.61-29.56,3.3-3.28-1.8-8.38-5.1-5.11"/><rect class="cls-7" x="243.43" y="298.59" width="17.02" height="39.19"/><rect class="cls-7" x="242.88" y="298.41" width="18.91" height="40.72"/></g><g class="cls-11"><rect class="cls-7" x="308.84" y="356.15" width="17.72" height="51.78"/><rect class="cls-7" x="308.33" y="355.14" width="18.91" height="53.81"/></g><path class="cls-6" d="M268.24,412.29s0,0,0,0,0,0,0,0"/><path class="cls-13" d="M262.07,294.12c-8.66-6.21-19.62-.81-25,7.15-7.77,11.51-8.49,27.89-7.76,41.27,1.43,26.51,12.2,51.53,32.15,69.32,1,.85,2.38-.54,1.43-1.43A95.7,95.7,0,0,1,233,355.71a103.82,103.82,0,0,1-.27-35.73c2.49-13.68,11.53-32.4,28.68-24.66a.69.69,0,0,0,.7-1.2"/><path class="cls-13" d="M221.56,408c-11.56-1.75-22.46-5.8-33-10.74-11.41-5.31-19.38-11.92-26.32-22.46a.24.24,0,0,0-.42.25c6.37,10.64,13.83,17.13,25,22.53,10.41,5,22.94,11.1,34.71,10.66.12,0,.17-.21,0-.24"/><path class="cls-13" d="M333.09,400.49c-4.69-2.67-7.39-9.89-8.85-15-2.33-8.17-.85-16.22,3.45-23.49,6.5-11,20.51-18.21,30.22-26.35.48-.4-.21-1.07-.68-.68-12.55,10.33-30.41,18.88-34.44,36.06-1.58,6.69-.3,13.1,2.3,19.32,2,4.75,2.78,8.48,7.7,10.65.34.15.64-.32.3-.52"/><path class="cls-13" d="M414.27,209.17c8.44,18.72,4.54,38.49-2.71,56.89-6.65,16.9-14.6,33.09-25.3,47.8a.15.15,0,0,0,.24.19c12.78-14.37,20.82-33.49,27.36-51.39,6.23-17,9.77-36.93.65-53.63-.09-.16-.31,0-.24.14"/><path class="cls-13" d="M263.1,292.62c-4.31-3.61-9.11-6.6-13.4-10.25a169,169,0,0,1-12.15-11.79c-.31-.32-.76.15-.48.49,6.83,8.22,16.13,17.1,25.91,21.7.09,0,.21-.08.12-.15"/><path class="cls-13" d="M153.79,439.55c5.84-.19,13.92.51,16.68,6.67.23.51.91.12.83-.35-1.08-6.53-12.48-8.29-17.6-6.92a.31.31,0,0,0,.09.6"/><path class="cls-13" d="M307.5,436.67A13.67,13.67,0,0,0,295,442.1c-2.9,3.7-5,10.27-3.2,14.85a.4.4,0,0,0,.77-.21c-1.62-10.05,4.59-18.91,14.86-19.69.21,0,.29-.35.06-.38"/><g class="cls-11"><path class="cls-12" d="M210.55,225.82a54.24,54.24,0,0,1-9,25.79c-2.56,3.9,3.69,7.52,6.23,3.65a61.71,61.71,0,0,0,9.93-29.44c.37-4.63-6.85-4.61-7.21,0"/><rect class="cls-7" x="201" y="222.36" width="16.78" height="34.55"/><rect class="cls-7" x="200.71" y="221.33" width="17.45" height="36.36"/></g><g class="cls-10"><path class="cls-6" d="M328.74,364.47c1.29,10.9.51,21.76-.41,32.66,0,.46.67.59.71.13.93-11,1.73-21.88.42-32.86,0-.46-.78-.4-.72.07"/><rect class="cls-7" x="312.37" y="377.8" width="33.03" height="6.02" transform="translate(-103.25 638.58) rotate(-80)"/><rect class="cls-7" x="310.84" y="377.55" width="34.91" height="7.27" transform="matrix(0.17, -0.98, 0.98, 0.17, -104.1, 638.3)"/></g><g class="cls-10"><path class="cls-6" d="M335,355.54c4.42,13.39,4.95,29.74,5.32,43.79,0,.47.73.4.72-.07-.37-14.17-.89-30.44-5.36-44-.14-.45-.83-.2-.68.25"/><rect class="cls-7" x="316.49" y="370.55" width="43.01" height="13.6" transform="translate(-92.31 644.69) rotate(-80)"/><rect class="cls-7" x="316.17" y="370.1" width="43.63" height="14.54" transform="translate(-92.35 644.69) rotate(-80)"/></g><path class="cls-12" d="M89.8,322.85c-1.66,12.7,1.91,37.7,16,62.14,2.12,3.67-1.25,3.18-3.76-.2-15.65-21.12-21.11-49.6-16.3-66.27"/><g class="cls-10"><path class="cls-6" d="M227.19,347.24c-16,14.59-36.62,21.32-57.37,26-.5.12-.29.88.21.77,20.91-4.72,41.6-11.52,57.73-26.21.37-.35-.19-.91-.57-.56"/><polygon class="cls-7" points="166.24 376.21 227.88 374.02 227.88 347.13 169.53 347.13 166.24 376.21"/><rect class="cls-7" x="168.35" y="346.83" width="59.63" height="27.63"/></g></g><g id="body-shadow"><path class="cls-14" d="M118.38,274.27c8.78,27.54,19.35,49.63,29.46,73.53,10.52,24.86,33.61,55.91,67,61.47-11.15,15.38-19.7,47.55-19.7,47.55s-5.57,8.37-14.26,6.79c.71-3.92-.27-13.13,1.12-21.71s1.76-17-1.53-20.16c-6.5-6.28-14.45-11.26-22.43-16.34s-16-10.28-22.59-17c-9.91-10.07-17.37-23.67-22.13-38.24s-7.78-27.58-6.91-41.51a129.15,129.15,0,0,1,2.42-16.41C110,286.41,112.05,280.11,118.38,274.27Z"/><path class="cls-15" d="M118.38,274.27c8.78,27.54,17.22,56.22,28.23,78.25,12.07,24.15,34.84,51.19,68.24,56.75-11.15,15.38-19.7,47.55-19.7,47.55s-5.57,8.37-14.26,6.79c.71-3.92-.27-13.13,1.12-21.71s1.76-17-1.53-20.16c-6.5-6.28-14.45-11.26-22.43-16.34s-16-10.28-22.59-17c-9.91-10.07-17.37-23.67-22.13-38.24s-7.78-27.58-6.91-41.51a129.15,129.15,0,0,1,2.42-16.41C110,286.41,112.05,280.11,118.38,274.27Z"/><path class="cls-14" d="M212.18,193.65c11.13,3,31.79-1.59,72.07,20.69,7.43,4.11,21.95,14.86,28.24,20.55,11,10,25.15,25.69,25.29,25.95.23.42,10.71-4,17.7-7.15,9.15-4.1,23.15-18.79,23.16-18.7,0-.09-8.43,15-13.16,19.59-10.31,9.95-28.92,28.44-43.42,15.26-10.16-9.22-19.42-19.42-29.72-28.48-11.75-10.35-29.48-20.27-45.22-28.89-6-3.26-12.35-6-17.33-8.32-16.08-7.46-50.43-12.06-57-35.21,1.38.91,2.92.16,4.31,1.07C196.37,192.88,195.66,189.12,212.18,193.65Z"/><path class="cls-14" d="M355.1,336.35c-9.15,9.56-42.5,24.39-30.66,52.36,8.65,20.43,23.08,16.77,23.36,23.29.57,13.68-12.85,22.54-14.57,34l-12.47,18.29a7.8,7.8,0,0,1-5.35,3.34c-12.2,1.76-63.87-.47-66.08-1.34-.6-.24,11.94-.84,20-6.24.59-.39,19.94,1.42,19.21,1.41-2.1,0,9.17,3.3,9.66,3.29,9.22-.11,17.2-2.89,17.89-3.4,6.6-4.8,5.42-16.13,9.94-22.44,5.61-7.81,5.6-18.44,5.56-21.48-.09-7.19-15.93-5.2-20.66-11.34-10.73-13.94-8.41-40.3-.25-54.5,9.86-17.19,30.3-16.31,46.59-21.62,4.84-1.57,13.25-5.73,13.48-5.73S359.78,331.45,355.1,336.35Z"/><path class="cls-14" d="M183,465c-4.8-.35-11.41.2-16.13.53-5,.35-10.12.59-15.1.52-3.12,0-6.65.49-9.81.12-3.69-.43-7.42-.09-11.09-.14s-7.46-.41-11.17-.46c-2.47,0-4.69.53-7.13,0-1.76-.35-4.4-2.22-5.08-3.86-.06-.16-.73-2.19-.44-2.24s1.1.93,1.25,1c.86.51,1.75,1,2.59,1.52,2.59,1.62,6.12,1.73,9,2.07a9.4,9.4,0,0,0,4.7-.9c.24-.16.45-.47.76-.53s2.93,1.86,3.56,1.44-.2-2.92.55-3.06c.33-.07,1,.52,1.34.62a30.76,30.76,0,0,0,5.56,1.29c2.59.18,6.43.6,8.89-.41.78-.32,2-1.5,2.74-1.65.09,0,.2.12.23.17.6,1,2.5,2.81,3.92,2.72.82,0,.42-3.21.71-3.29s1.62.83,2,.92a29.48,29.48,0,0,0,6.06.76c7.64.11,15.81-2.47,20.94-8.38"/><path class="cls-14" d="M178.39,172.23c-9.24,2.5-11.57,8.05-16.06,16.09-9.19-21.87-21.72-7-37.6-7.16-13.41-.17-26.15-5.32-39.16-6.77-.92-9.69-.92-9.69-1.85-19.38C111.52,159,162.08,131.84,178.39,172.23Z"/><g class="cls-16"><path class="cls-14" d="M418.55,214.46c4.92,19.71,10.15,41.73-.14,80.73-11.51,43.63-50.56,69.84-94,79.81a23,23,0,0,1-.59,4.13c-.18.77-.3,1.28-.64,2.46,0,0,0,.13,0,.18a28.32,28.32,0,0,0,1.09,4.5c.28.86,1.47,4.26,2.13,6.14a34.78,34.78,0,0,0,4.41,7.9c.21.13.42.26.64.37,3.78-1.09,7.64-2.36,11.59-3.77,62.92-22.56,86.48-83.56,83.86-148.63C426.41,238.31,423,223.34,418.55,214.46ZM96.07,204.06c9.87,30.41,12.57,34.48,28.32,71.22,6.47,15.11,5.41,15.61,20.13,53.68,17.84,46.13,32.73,71.71,92.22,76,7.57.55,13.65.79,20.18,1.14-4.76-3.95-8.87-9.5-12.59-16.46A74.52,74.52,0,0,1,239.6,379a27.74,27.74,0,0,1-1.36-5.64v-.09C227,370,215.89,365.89,204.83,362c-35.42-12.47-52.73-53.55-68.9-82.18C118.12,248.28,112.36,236.41,96.07,204.06Z"/><path class="cls-15" d="M418.55,214.46c4.92,19.71,10.15,41.73-.14,80.73-11.51,43.63-50.56,69.84-94,79.81a23,23,0,0,1-.59,4.13c-.18.77-.3,1.28-.64,2.46,0,0,0,.13,0,.18a28.32,28.32,0,0,0,1.09,4.5c.28.86,1.47,4.26,2.13,6.14a34.78,34.78,0,0,0,4.41,7.9c.21.13.42.26.64.37,3.78-1.09,7.64-2.36,11.59-3.77,62.92-22.56,86.48-83.56,83.86-148.63C426.41,238.31,423,223.34,418.55,214.46ZM96.07,204.06c9.87,30.41,12.57,34.48,28.32,71.22,6.47,15.11,5.41,15.61,20.13,53.68,17.84,46.13,32.73,71.71,92.22,76,7.57.55,13.65.79,20.18,1.14-4.76-3.95-8.87-9.5-12.59-16.46A74.52,74.52,0,0,1,239.6,379a27.74,27.74,0,0,1-1.36-5.64v-.09C227,370,215.89,365.89,204.83,362c-35.42-12.47-52.73-53.55-68.9-82.18C118.12,248.28,112.36,236.41,96.07,204.06Z"/><rect class="cls-7" x="81.44" y="189.33" width="363.61" height="231.26"/></g></g><g id="body-outline"><path class="cls-17" d="M208.44,219.42c-.95,2.74-1.85,5.49-2.74,8.23a75.53,75.53,0,0,0-5.66,7.41l-4.48-8.25A7.29,7.29,0,0,0,191,223l-1-1.73a7,7,0,0,0-.3-1c-.58-1.54-1.19-3.08-1.81-4.61a17.26,17.26,0,0,0,10.3,2.2,8.32,8.32,0,0,0,7.54-7.28c2.19.53,4.38,1,6.59,1.46A24.77,24.77,0,0,0,208.44,219.42Zm210.8-10a97.62,97.62,0,0,0-16.78-24.86c-3-3.14-6.35-6.58-9.89-9.83a12.75,12.75,0,0,0-1.52-.77,52,52,0,0,1,1.83,9.43A63.53,63.53,0,0,1,388,215.86c-9.62,22.92-27.27,37.41-50.13,43.54a59.9,59.9,0,0,0-4.24-4.5,53.4,53.4,0,0,0-3.84-4.64,160.39,160.39,0,0,0-12.58-12.83,186.39,186.39,0,0,0-24.46-18.78c-1.41-.93-3-1.9-4.57-2.91a32.28,32.28,0,0,0-5.25-3.17c-5.65-4.61-13.65-7.47-19.47-9.63-12.63-4.62-25.87-6.73-39.09-8.61s-25.65-2.25-35.84-12.43a72.28,72.28,0,0,1-14.13-19.51c-.66-2.09-1.3-4.21-1.85-6.38-.1-.54-.23-1-.31-1.59-1-6.4,0-13.64-.93-20.15a28.31,28.31,0,0,1,2.2-6.08c3.51-7-6.84-11.64-9.78-4.25a47.22,47.22,0,0,0-2,6.51,15.49,15.49,0,0,0-2.07,1.72c0-.77-.12-1.54-.16-2.31a8,8,0,0,0-8.2-7.79,7.91,7.91,0,0,0-2.67.6,8,8,0,0,0-6.18.7,8.09,8.09,0,0,0-10.61-1.25c-3.06-2.4-7.7-2.54-10.11,1.08a7.22,7.22,0,0,0-3.17-2.32,75.06,75.06,0,0,0-2.25-12.27c-1.69-5.82-9.27-5.46-11.16-.52a6.17,6.17,0,0,0-8.11,3.55h0c-.52,1.45-1,2.91-1.41,4.26a3.73,3.73,0,0,0-4.37-.28l-.15.12a28.15,28.15,0,0,0-.78-8.48c-.68-2.36,9.44-12.75,7.23-11.08-14.45,11-15.86,4.52-14.93,58.82.37,22.68,6.07,46.13,13.66,66.06,6.35,16.62,12.93,33.45,20.6,49.53A33.65,33.65,0,0,0,102,277.41,55.44,55.44,0,0,0,83.88,302c-8.48,21.93-3.91,45.93,4.61,67,8.22,20.36,18.86,38.77,38.88,48.65a70.45,70.45,0,0,0,25.1,6.54,18.74,18.74,0,0,1,.42,5.28,27.84,27.84,0,0,1-2.46,9.18,12.59,12.59,0,0,0-2.91,1.77c-3.85-5.58-13.35-5.81-18.3-.8-4.73-4.18-13.53-2.9-18.07,1.3a24.94,24.94,0,0,0-6.51,11.5,32.94,32.94,0,0,0,0,4.66c.35,1.54.75,3.08,1.23,4.58v.07a10.27,10.27,0,0,0,6.92,5.24c20,.2,40.09.91,60.08-.26,4.71-.28,9.41-.4,14.13-.47a21.36,21.36,0,0,0,10.69-9c1.07-3,2-6.09,2.82-8.87,3-9.34,5.44-18.91,10.17-27.47,2.25-4.08,5-8,7.07-12.16,5.81,1.45,12.55,1.35,17,1.45,8.71.29,17.87,1,26.84.58,7.68,6.42,26.36,13.44,26.36,13.44,2.69.86,1.08,7.89.87,8.44-.55,1.36-6.15,4-7.47,4.45a18.6,18.6,0,0,0-7.44,4.7,17.58,17.58,0,0,0-13.36-5.15c-9.09.62-14,8.85-15.55,17.3a31.62,31.62,0,0,0-.7,6.72,15.51,15.51,0,0,0,2,3.32,18.74,18.74,0,0,0,4.12,2.25c12.6,0,25.19.41,37.78.8,3.37-.77,3-.18,6.42.39a170.08,170.08,0,0,0,17.59.07,63.55,63.55,0,0,0,8.62-1.44c.59-.09,28.45-47.71,27.9-53.53a30.53,30.53,0,0,0-2.33-4.14,47.34,47.34,0,0,1-6.08-4,44.35,44.35,0,0,1-3.94-2.43c12.35-2.79,24.82-11.22,34.37-17.27a124.53,124.53,0,0,0,25.35-21.23,146,146,0,0,0,9.46-13.38c2.62-4.21,5.22-8.48,7.67-12.83,1.35-3.21,2.83-6.4,4.24-9.56a196.77,196.77,0,0,0,12.16-54.2C431.15,251.91,428.58,229,419.24,209.4Z"/></g><g id="arm"><path class="cls-3" d="M221.06,232.42c0-.22,0-.44-.05-.65,0-8.44-1.06-17.06-5.91-24a46,46,0,0,0-3.8-4.73,27.29,27.29,0,0,0-2.84-2.85,12.4,12.4,0,0,0-2.27-1.53c-.53-.34-1.06-.65-1.61-.94a15.14,15.14,0,0,0-6.12-1.77,16.73,16.73,0,0,0-4.24.61c-.22,0-.45.07-.66.12s-.49.1-.74.17a.75.75,0,0,0-1.06.23c-6.63,9.69-10.86,21-14.73,31.85-3.72,10.49-7.82,21.22-9.93,32.17a52.92,52.92,0,0,0-1.41,7.26,38.06,38.06,0,0,0-1,5.12c-.89,5.38-1.27,11-1.63,16.38-.19,2.79-.28,5.58-.29,8.36.15.95.28,1.9.39,2.86,0,.14,0,.27,0,.4.35,2.08.73,4.14,1.09,6.22.29,1.21.59,2.42.91,3.62.39,1,.8,2,1.24,3.05a49.54,49.54,0,0,0,5.17,9.09,34.42,34.42,0,0,1,.44-8c.45-2.5,1.7-5,2.52-7.53,1.65,3.14,5.58,6,8.09,7.71a34.2,34.2,0,0,0,12.81,5.3A22.23,22.23,0,0,1,191,315.4c-2.54-4.52-3.49-10.23-1.32-14.87,0-.15,0-.3,0-.45C193.17,289.6,205,283.65,211.57,275c6.77-8.93,8.54-19.07,9.06-29.67a62,62,0,0,0,.43-12.87"/><path class="cls-2" d="M219.73,232.81l-.06-.64c0-8.44-1-17.06-5.52-24a42.4,42.4,0,0,0-3.56-4.73,25.58,25.58,0,0,0-2.66-2.85,11.19,11.19,0,0,0-2.12-1.53,15.8,15.8,0,0,0-1.51-.94,13.47,13.47,0,0,0-5.72-1.77c-1.16-.07-6,.71-6.27,1.12-6.21,9.7-10.16,21-13.78,31.86-3.49,10.49-7.32,21.22-9.29,32.16a56.11,56.11,0,0,0-1.32,7.27,40.25,40.25,0,0,0-.91,5.12c-.83,5.38-1.19,10.94-1.53,16.38-.17,2.79-.25,5.58-.27,8.36.15.95.27,1.9.37,2.86,0,.14,0,.27,0,.4.33,2.07.68,4.14,1,6.21.27,1.21.55,2.42.85,3.63.37,1,.75,2,1.16,3a49.73,49.73,0,0,0,4.84,9.1,36.71,36.71,0,0,1,.41-8c.42-2.5,1.59-5,2.36-7.53,1.54,3.14,5.22,6,7.57,7.7a30.74,30.74,0,0,0,12,5.3,21.81,21.81,0,0,1-4.21-5.54c-2.39-4.53-3.27-10.23-1.24-14.87,0-.15,0-.3,0-.45,3.32-10.48,14.37-16.43,20.54-25.12,6.33-8.93,8-19.07,8.47-29.67A66.55,66.55,0,0,0,219.73,232.81Z"/><path class="cls-3" d="M105.32,245.6c-2-4.91-3.83-9.8-5.46-14.75-.57-1.16-1.16-2.31-1.77-3.46C87.76,239.64,76.88,253,72.66,268.71a141.34,141.34,0,0,0-3.79,23.51c0,.46-.06.92-.09,1.38.1,2.56.22,5.11.36,7.67A65.76,65.76,0,0,0,72.55,314a30.88,30.88,0,0,1,7-18.64c2.9,7.62,9,13,16,17.19a1.13,1.13,0,0,0,.28.12,41.56,41.56,0,0,1-2.59-8.57c-.91-4.94-2.11-11.71,1-16.14,1.74-3.44,5.57-6.45,9-8.43a28.32,28.32,0,0,0,7.92-10.65,21.31,21.31,0,0,0,.77-6.61c-2.2-5.55-4.3-11.15-6.53-16.69"/><path class="cls-2" d="M105.32,245.6c-2-4.91-3.83-9.8-5.46-14.75-.57-1.16-1.16-2.31-1.77-3.46C87.76,239.64,76.88,253,72.66,268.71a141.34,141.34,0,0,0-3.79,23.51c0,.46-.06.92-.09,1.38.1,2.56.22,5.11.36,7.67A65.76,65.76,0,0,0,72.55,314a30.88,30.88,0,0,1,7-18.64c2.9,7.62,9,13,16,17.19a1.13,1.13,0,0,0,.28.12,41.56,41.56,0,0,1-2.59-8.57c-.91-4.94-2.11-11.71,1-16.14,1.74-3.44,5.57-6.45,9-8.43a28.32,28.32,0,0,0,7.92-10.65,21.31,21.31,0,0,0,.77-6.61C109.65,256.74,107.55,251.14,105.32,245.6Z"/><path class="cls-14" d="M205.05,200.11c18.32,36.51-20,71.12-17.25,107.16,1.33-16.78,9.59-18.34,21.75-32.44,10.25-11.9,10.12-36.23,8.26-50.18C216.2,212.56,213.8,207.64,205.05,200.11Z"/><path class="cls-14" d="M104.88,248.9c.16.38-3.21,8.63-5.62,12.85-2.83,4.95-6.53,9.41-8.67,14.75a33.45,33.45,0,0,0-1.67,4.81,39.68,39.68,0,0,0-1.06,5.14,23.21,23.21,0,0,0,1.3,9.74c.13.32,1.79,5.67,2.13,5.67a13.67,13.67,0,0,0-.24-2.72,27.48,27.48,0,0,1-.35-4.25,17.48,17.48,0,0,1,2.77-8.8c2-3.25,8.06-6.95,11.16-9.27s6.55-10.22,5.73-14.31C109.45,258,104.82,248.74,104.88,248.9Z"/></g><g id="head-background"><path class="cls-6" d="M145.58,164.31s0,0,0,0h0"/><path class="cls-6" d="M146.34,164.81l.51.51s0,0,0,0l-.5-.5h0"/><path class="cls-12" d="M115.85,65.63c4.56-9.36,5.87-21.06,7.08-31.36,1.17-9.88-.25-19.21-.78-29,0,0,0,0,0,0,3.9,6.12,8.29,12.3,11.83,18.83,1.4,3.16,2.73,6.34,3.92,9.57.1.39.21.78.31,1.17,2.76,11,4.37,22.54,1.72,33.72a1.48,1.48,0,0,1,0,.21,1.09,1.09,0,0,1-1.47,1c-1.39,1.84-4.59,1.77-6.75,1.65-5-.28-9.83-2.2-14.47-4a1.2,1.2,0,0,1-1.39-1.67"/><path class="cls-2" d="M115.85,65.63c4.56-9.36,5.87-21.06,7.08-31.36,1.17-9.88-.25-19.21-.78-29,0,0,0,0,0,0,3.9,6.12,8.29,12.3,11.83,18.83,1.4,3.16,2.73,6.34,3.92,9.57.1.39.21.78.31,1.17,2.76,11,4.37,22.54,1.72,33.72a1.48,1.48,0,0,1,0,.21,1.09,1.09,0,0,1-1.47,1c-1.39,1.84-4.59,1.77-6.75,1.65-5-.28-9.83-2.2-14.47-4A1.2,1.2,0,0,1,115.85,65.63Z"/><path class="cls-3" d="M1.68,124.89c.82-6.9.86-13.89,2.58-20.66a51.92,51.92,0,0,1,4.94-13c1.17-2.82,2.9-5.48,5.5-6.41,3.59-2.36,10-2.54,13.37-2.93,8.41-1,17.56-2.39,26-1.17,2.34-5.55,5.48-11.51,11.65-13.65,3.36-1.16,6.47-.54,9.84.2a74,74,0,0,1,7.52,1.6c1,.08,1.93.18,2.89.25,3.92-2.67,8-5.1,12.86-5.63,4-.44,9.3,0,12.77,2.3.28.07.54.15.78.23h0c2.69-.51,5.55-.17,8.28,0s5.22.29,7.83.47c2.93,0,5.93.09,8.85.29,1.42.18,2.84.35,4.27.5,3.29.37,6.32,1.2,9.42.37a.42.42,0,0,1,0,.1l.39.85a3.93,3.93,0,0,0,.46.76c.9,1.72,1.83,3.41,2.79,5.09.78,1.44,1.58,2.88,2.41,4.3.2.34.41.67.61,1,1.51,2.64,3,5.27,4.39,8a1.22,1.22,0,0,1,.07.17,12.7,12.7,0,0,0,1.82,2.78,2.7,2.7,0,0,0,.28.31c.14.14.26.29.4.42,1.59,3.17,3.18,6.35,4.62,9.58.38,1.08.75,2.15,1.11,3.2,1.94,5.58,3.91,11.19,4.16,17.13a48.31,48.31,0,0,1-.71,10.3,1.48,1.48,0,0,1,0,.21,26.51,26.51,0,0,1-1.25,5.21,47.7,47.7,0,0,1-8.53,16.63A41.72,41.72,0,0,1,136.35,169a64.62,64.62,0,0,1-18.47-.67c-5.32-.88-11.81-1.77-16.78-4.22-.48-.08-1-.24-1.3-.32-.62-.15-1.25-.33-1.86-.52-2.33-.37-4.65-1.06-7-1.43a32.57,32.57,0,0,0-13.62.33c-7.2,1.93-13.56,6.43-20.33,9.39-5.81,2.54-12.21,4.09-18.61,3.45-1.75-.18-3.57-.41-5.41-.71-.35-.05-.7-.11-1-.18a37.78,37.78,0,0,1-12-4A7,7,0,0,1,18,169c-5.32-2.47-5.22-8.81-6.23-13.78-.67-3.29-2.93-5.78-3.78-8.92A6.19,6.19,0,0,1,7.78,144a6.44,6.44,0,0,1-7.15-4.58c-1.31-4.16-.39-9.81,1-14.57"/></g><g id="head-detail"><path class="cls-18" d="M12.93,144.22a16.82,16.82,0,0,0-.16,2.8,13.69,13.69,0,0,0,.07,3.32c.21.84,2.33,1,2.61.72.61-.62,2.21,3.44,2.82,1.52.83-2.59,15-1.27,16.19,2.26.43,1.27,1.2.44,2.19,1.43s1-.82,2,.13c1.46,1.45,1.2,2.47,4.06,3.18,1.76.44,5.82-4.87,7-6,1.67-1.67,3-3.69,4.85-5.21,2.52-2,5.46-3,8.18-4.74,1.92-1.2,3.63-3.33,5.92-3.91,1.07-.26,2.89,2.7,5.09,2.25s2.81-2.81,4.74-3.19c1.47-.3,4.13.13,5.33-.83,1.89-1.52,2.8-4.6,5-5.57,2.44-1.09,4.93-.45,7.34-1.66.2-.1.5-.3.36-.59-.35-.68-3.51-.36-4.39-.36-1.73,0-5.48.2-5.61.43-.24.43-.18,2.91-1.49,4.4a7.6,7.6,0,0,1-3.91,2.16,4.66,4.66,0,0,1-2.42-.47c-.13-.13-1.46-1.35-1.48-1.35s-.24,2.35-.3,2.55a2.92,2.92,0,0,1-2.44,2.35c-1.41.24-3.74.21-4.76-.81a4.71,4.71,0,0,1-.59-2.34,15,15,0,0,0-1.6,1.17c-1.84,1.38-3.07,2-5,3.49-2.73,2.18-5.61,3.53-8.35,5.36a9.67,9.67,0,0,1-3.4,1.1c-.26,0-.43,2.26-1.69,4.23a19.18,19.18,0,0,1-5.57,5.33c-2.32,1.16-1.82-3.9-1.82-5.26a19.86,19.86,0,0,1,.37-2.89c.07-.25.1-1.15.12-1.1.11.22-4.32,5.19-5.21,4.74-1.39-.69-.73-7-1-8.52s-6.1-5.25-7.82-5.68-5.29-1.51-7-.24c-.74.55-2.85,1.81-2.86,1.82a6.54,6.54,0,0,0-.38,1.91c0,.25,0,2.61,0,3.23,0,.45,0,1.76-.06,2.94a17.92,17.92,0,0,1-.27,2.85A17.25,17.25,0,0,1,12.93,144.22Z"/><path class="cls-14" d="M154.18,126.08c-.46-.89-6.59,11.65-6.59,11.65s-4.91,7.82-11.38,11.72a60.69,60.69,0,0,1-7.06,2.74,86.08,86.08,0,0,1-9.74,1.95c-3.15.59-7-.14-10.23,0-9.79.47-20-4.25-29.86-1.82-7.53,1.86-14.72,5.8-21.59,9.44-3.07,1.63-6.39,4.55-10.07,4.59-2.18,0-4.84-2.34-6-4-.22-.32-2.73-5.93-3-6s-.56,5.88-.85,6.35c-1,1.59-3.75,5.23-7.44,4.68-6.58-1-10.09-1.8-12.78-4.5-1.23-1.24,1.38-11,1.63-11.7.17-.45-5.19-.55-5.67-.6-.73-.07,2.18,10,2.36,11.13,1.07,6.66,6,8.25,11.17,9.84a62,62,0,0,0,10,2.2c8.44.47,8.11.18,15.76-1.49,2.89-.63,6.79-3.13,9.35-4.68,3-1.81,6.17-3.29,9.31-4.87a32.87,32.87,0,0,1,11.94-3.2c6.33-.2,13.54,2.5,19.41,4.23A127.68,127.68,0,0,0,121.27,168a41.34,41.34,0,0,0,12.11.35c6.49-.74,7.37-1.18,12.75-3.83,6.92-3.4,10.13-10.14,11.51-13.06a46.85,46.85,0,0,0,1.66-7C159.94,138.09,156.67,131,154.18,126.08Z"/><path class="cls-14" d="M85.24,70.28c.48-.21-5.32-.18-6-.34-4.19-1-8.28-3.51-12.59-2.67-5.15,1-9.67,6.28-11.24,10.82-.26.76,0,4-.84,4a18.94,18.94,0,0,0,2.53.17c1.86-.36,3.86-.2,5.7-.66a45.49,45.49,0,0,0,14.72-6.33C79,74.31,84.13,70.75,85.24,70.28Z"/><path class="cls-6" d="M138.86,146.51h0s0,0,0,0"/><path class="cls-6" d="M138.1,147l-.51.5s0,0,0,0l.5-.51h0"/><g class="cls-11"><rect class="cls-7" x="9.87" y="85.43" width="30.35" height="22.16"/><rect class="cls-7" x="8.72" y="84.61" width="32" height="23.27"/></g><g class="cls-11"><path class="cls-12" d="M99.43,67.9a31.12,31.12,0,0,0-11.6,4.19c-5.17,3.32-.38,11.59,4.82,8.26A24.21,24.21,0,0,1,102,77.12c2.55-.42,4-3.58,3.34-5.88-.74-2.7-3.32-3.76-5.88-3.34"/><rect class="cls-7" x="85.61" y="67.81" width="19.85" height="13.32"/><rect class="cls-7" x="84.35" y="67.16" width="21.82" height="14.54"/></g><path class="cls-18" d="M111.22,67.91a8.39,8.39,0,0,1,1.9,1c.54.51,1,.67,1.52,1.18.83.76,1.66,1.53,2.43,2.34,2.13,2.21,4.09,4.5,6.41,6.54,5.3,4.64,12,8.13,18.31,11.1,3.43,1.6,8,2.2,11.65,2.77,1.37.21,2.72.32,4.08.46a5,5,0,0,1,1.09.2c.21.08.33,0,.26-.15-.34-.93-1.69-1.64-2.4-2.25-2.34-2-5-3.87-7.07-6.24-3-3.54-4.9-7.33-7.15-11.4a17.68,17.68,0,0,1-1-4.39s-1.36,0-1.67-.12a11.1,11.1,0,0,0-1.89-.3c-.75,0-6.5-.87-9-1.2a46.26,46.26,0,0,0-6.24-.14c-2.4.12-5,.22-7.36.11A32.12,32.12,0,0,0,111.22,67.91Z"/><path class="cls-19" d="M115.14,71.7A68.53,68.53,0,0,0,129.2,84.48"/><path class="cls-2" d="M3.44,125.14c.79-6.89.84-13.88,2.5-20.66a52.48,52.48,0,0,1,4.78-13c1.14-2.82,2.81-5.48,5.33-6.41,3.48-2.36,9.69-2.54,12.94-2.93,8.15-1,17-2.38,25.21-1.17,2.26-5.55,5.3-11.51,11.28-13.65,3.24-1.16,6.26-.54,9.53.21a67.14,67.14,0,0,1,7.27,1.59l2.8.26c3.79-2.67,7.74-5.11,12.46-5.64,3.88-.44,9,0,12.36,2.3.27.07.52.15.75.23h0c2.61-.51,5.38-.17,8,0s5.06.3,7.58.48c2.84,0,5.74.09,8.57.28,1.37.18,2.75.35,4.13.51,3.19.36,6.12,1.19,9.13.36,0,0,0,.07,0,.1.12.29.25.57.38.86a3.37,3.37,0,0,0,.44.75c.87,1.72,1.77,3.41,2.69,5.1.77,1.44,1.54,2.88,2.34,4.3.19.33.4.66.59,1,1.46,2.63,2.91,5.27,4.25,8a1.11,1.11,0,0,1,.07.16,13.23,13.23,0,0,0,1.76,2.78,4.12,4.12,0,0,0,.28.31c.13.14.24.29.38.43,1.55,3.16,3.08,6.34,4.47,9.58.37,1.07.73,2.15,1.08,3.19,1.88,5.59,3.79,11.19,4,17.13a50.32,50.32,0,0,1-.69,10.3,1.48,1.48,0,0,1,0,.21,27.85,27.85,0,0,1-1.2,5.22,48.55,48.55,0,0,1-8.27,16.62,40.09,40.09,0,0,1-26.9,15.39,60.94,60.94,0,0,1-17.88-.67c-5.15-.89-11.43-1.78-16.24-4.23-.47-.08-.94-.24-1.27-.32-.6-.15-1.2-.32-1.8-.52-2.26-.37-4.5-1.06-6.73-1.43a30.77,30.77,0,0,0-13.2.33c-7,1.94-13.12,6.43-19.68,9.39-5.62,2.54-11.82,4.1-18,3.45-1.69-.17-3.46-.41-5.24-.71l-1-.17a35.59,35.59,0,0,1-11.66-4,6.88,6.88,0,0,1-1.84-1.09c-5.15-2.48-5-8.82-6-13.79-.65-3.29-2.83-5.77-3.65-8.92a6.65,6.65,0,0,1-.24-2.28c-3,.61-6-1.5-6.92-4.58C1.16,135.55,2,129.91,3.44,125.14Z"/><g class="cls-11"><path class="cls-3" d="M31,151.18l-6-.54c-4.4-.39-9,3.15-9.22,7.45a8.19,8.19,0,0,0,7.64,8.67l6,.54c4.4.4,9-3.14,9.22-7.45A8.19,8.19,0,0,0,31,151.18"/><rect class="cls-7" x="18.62" y="154.03" width="19.27" height="15.9"/><rect class="cls-7" x="17.45" y="152.97" width="21.82" height="17.45"/></g><path class="cls-13" d="M96.47,128.06c-.92,0-1.94.17-2.73.19a56.79,56.79,0,0,0-12.13,1.27c-10,2.39-16.28,8.8-24.82,13.91-7.36,4.4-13.88,4.09-20.41-1.5-2.3-2-4.57-4.08-7.5-5.14-9-3.26-11.1,4.32-18.63,6.68-.45.14-.38.93.13.87,3.41-.4,4.81-2.57,7.46-4.46,10.36-7.36,14.61,2.57,22.31,6.73,8.43,4.54,16.86-1.86,23.37-6.73,6-4.48,12.16-8,19.59-9.54,4.54-1,9.34-.45,14-.91,0,0,0,0,0-.05C96.82,129,96.68,128.46,96.47,128.06Z"/><path class="cls-13" d="M86.94,68.91c.07.45-9.2,6.24-10.07,6.82a43.23,43.23,0,0,1-14,5.89c-.42.1-.34.81.11.77,9.13-.85,17.51-7.35,24.3-13a.3.3,0,0,0,.05-.38,1,1,0,0,0-.08-.14.14.14,0,0,0-.2,0l0,0s0,0,0,.07"/><path class="cls-13" d="M113.13,81.18c.53,1.23,1.33,2.31,1.83,3.57a15.75,15.75,0,0,1,.9,3.85c0,.16.27.23.31,0a8.72,8.72,0,0,0-2.68-7.74.23.23,0,0,0-.36.28"/><path class="cls-13" d="M113,92.25c-.27-.32-.51-.19-.7.37a12.66,12.66,0,0,1-1.07,1,13.58,13.58,0,0,1-3,2,16.6,16.6,0,0,1-6.9,1.52c-.21,0-.28.35,0,.38,4.56.62,10-1.52,12.31-5.66a.2.2,0,0,0-.35-.2l-.33.57s0,.08,0,.06"/><path class="cls-12" d="M76.21,119.75a15.18,15.18,0,0,0-1.6-6.53,1,1,0,0,1,1-.39c3.72.86,7,4.82,8.28,8.28,1.2,3.25,2.39,9.66.27,12.75-2,2.91-6,1.65-7.44-1.1-2-4,.16-8.79-.49-13"/><path class="cls-19" d="M76.21,119.75a15.18,15.18,0,0,0-1.6-6.53,1,1,0,0,1,1-.39c3.72.86,7,4.82,8.28,8.28,1.2,3.25,2.39,9.66.27,12.75-2,2.91-6,1.65-7.44-1.1C74.71,128.8,76.86,124,76.21,119.75Z"/><path class="cls-12" d="M71.13,125.72a4.29,4.29,0,0,1,2,1.52,0,0,0,0,0,0,0A6.45,6.45,0,0,1,74.48,129a8.24,8.24,0,0,1,1.76,6.16,4.66,4.66,0,0,1-1,2.76c-.81.76-2,.68-3,1.05a1.58,1.58,0,0,1-1.94-1.1,33,33,0,0,1-.5-5,47.65,47.65,0,0,0-.87-5.83,1.36,1.36,0,0,1,2.23-1.34"/><path class="cls-19" d="M71.13,125.72a4.29,4.29,0,0,1,2,1.52,0,0,0,0,0,0,0A6.45,6.45,0,0,1,74.48,129a8.24,8.24,0,0,1,1.76,6.16,4.66,4.66,0,0,1-1,2.76c-.81.76-2,.68-3,1.05a1.58,1.58,0,0,1-1.94-1.1,33,33,0,0,1-.5-5,47.65,47.65,0,0,0-.87-5.83A1.36,1.36,0,0,1,71.13,125.72Z"/><path class="cls-12" d="M42.6,150.68a2.1,2.1,0,0,1,.06-.24c0-.21,0-.43,0-.63a14.54,14.54,0,0,1,.93-4,1.81,1.81,0,0,1,.83-.94c.92.22,2,.47,3,.73l1.06.5a.85.85,0,0,1,.21.14,1,1,0,0,1,.88.93,5.25,5.25,0,0,1-.26,2.12,1.16,1.16,0,0,0-.21.49.29.29,0,0,0,0,.09,18.83,18.83,0,0,1-4,5.21c-.76.48-1.56.92-2.38,1.33l0,0a54.09,54.09,0,0,0-.06-5.69"/><path class="cls-19" d="M42.6,150.68a2.1,2.1,0,0,1,.06-.24c0-.21,0-.43,0-.63a14.54,14.54,0,0,1,.93-4,1.81,1.81,0,0,1,.83-.94c.92.22,2,.47,3,.73l1.06.5a.85.85,0,0,1,.21.14,1,1,0,0,1,.88.93,5.25,5.25,0,0,1-.26,2.12,1.16,1.16,0,0,0-.21.49.29.29,0,0,0,0,.09,18.83,18.83,0,0,1-4,5.21c-.76.48-1.56.92-2.38,1.33l0,0A54.09,54.09,0,0,0,42.6,150.68Z"/><path class="cls-12" d="M36.69,143.13a1,1,0,0,1,.22-.25q2.49.6,5,1.31a1.12,1.12,0,0,1,.46,1.2c-.47,2.27-2.6,4.56-4.41,5.9a1.08,1.08,0,0,1-.76.2,29.61,29.61,0,0,0-.48-8.36"/><path class="cls-19" d="M36.69,143.13a1,1,0,0,1,.22-.25q2.49.6,5,1.31a1.12,1.12,0,0,1,.46,1.2c-.47,2.27-2.6,4.56-4.41,5.9a1.08,1.08,0,0,1-.76.2A29.61,29.61,0,0,0,36.69,143.13Z"/><path class="cls-12" d="M16.66,140h.11l0,0,.13,0a29.06,29.06,0,0,0-.28,5.17c-.05,1.32-.07,2.64-.08,4a1.24,1.24,0,0,1-.28-.28,16.91,16.91,0,0,1-2.65-4.93,3.17,3.17,0,0,1,.81-3.16c.73-.26,1.48-.51,2.2-.79"/><path class="cls-19" d="M16.66,140h.11l0,0,.13,0a29.06,29.06,0,0,0-.28,5.17c-.05,1.32-.07,2.64-.08,4a1.24,1.24,0,0,1-.28-.28,16.91,16.91,0,0,1-2.65-4.93,3.17,3.17,0,0,1,.81-3.16C15.19,140.5,15.94,140.25,16.66,140Z"/><path class="cls-12" d="M8.71,146.22a5.15,5.15,0,0,1,0-1.36c.88-.66,1.79-1.33,2.74-2a1.33,1.33,0,0,0,.61-.22,63.13,63.13,0,0,0-.49,8.56,23.6,23.6,0,0,1-2.87-5"/><path class="cls-19" d="M8.71,146.22a5.15,5.15,0,0,1,0-1.36c.88-.66,1.79-1.33,2.74-2a1.33,1.33,0,0,0,.61-.22,53,53,0,0,0-.49,8.56A23.6,23.6,0,0,1,8.71,146.22Z"/><path class="cls-12" d="M108.59,95.77a23.4,23.4,0,0,0,6.59-7.06c2.41-4.19-3.91-8.6-6.34-4.37a18.28,18.28,0,0,1-5.34,5.56c-1.63,1.19-1.49,4-.22,5.45a3.79,3.79,0,0,0,5.31.42"/><path class="cls-13" d="M87.74,96.3c3.27-6.42,7.08-14,14.09-16.94,4.27-1.82,10.74-1.66,13,3,0,.62-.11,1.23-.19,1.84l0,0s0,.1,0,.15c-.06.43-.12.86-.2,1.29a37.7,37.7,0,0,1-1.16,4,27.79,27.79,0,0,1-4,6.19,12.5,12.5,0,0,1-1.38,1c-4.39,2.83-9.21,1.9-14.08,2A3.27,3.27,0,0,0,93,98.7,45.23,45.23,0,0,1,87.64,98a1.94,1.94,0,0,1,.1-1.67"/><path class="cls-13" d="M45.5,97.23c-.8.81-2.5.8-3.58,1.09A15.08,15.08,0,0,0,38,99.94l-.2.14a9.89,9.89,0,0,1,1.45-4.49,4.37,4.37,0,0,1,3-2,14.54,14.54,0,0,1,2.56-.4,1.08,1.08,0,0,1,.49.5A5.09,5.09,0,0,1,45.85,97a3.07,3.07,0,0,0-.35.28"/><path class="cls-13" d="M13.08,95.77c1.35-2.06,3.78-1.73,4.68.7a2.59,2.59,0,0,0,.14.29c0,.91,0,1.81,0,2.72,0,.39-.08.77-.14,1.16a17.08,17.08,0,0,0-5.18-3.83,7.26,7.26,0,0,1,.54-1"/><path class="cls-12" d="M97,85.13a2.7,2.7,0,0,1,.47-.3c1.75-.86,3.71.52,4.31,2.21a2.79,2.79,0,0,1-.45,2.64,2.55,2.55,0,0,1-.13.29A3.39,3.39,0,1,1,97,85.13"/></g><g id="ears_and_horn" data-name="ears and horn"><g class="cls-10"><path class="cls-6" d="M130.66,19.86a4.26,4.26,0,0,1-2.44,4.81c-.47.21-.07.9.4.69a5.07,5.07,0,0,0,2.81-5.72c-.12-.49-.88-.28-.77.22"/><rect class="cls-7" x="128.01" y="19.36" width="3.54" height="6.04"/><rect class="cls-7" x="127.98" y="19.16" width="4.36" height="7.27"/></g><g class="cls-10"><path class="cls-6" d="M135.41,30.76c-1.57,2.81-4.93,2.77-7.75,2.65-.51,0-.51.77,0,.79,3.12.14,6.73,0,8.43-3a.39.39,0,0,0-.68-.4"/><rect class="cls-7" x="127.28" y="30.57" width="8.87" height="3.67"/><rect class="cls-7" x="126.53" y="29.34" width="10.18" height="5.82"/></g><g class="cls-10"><path class="cls-6" d="M139,37.66c-1.62,4.79-6.93,5.61-11.29,6.09-.5.06-.5.85,0,.79C132.43,44,138,43,139.72,37.87c.16-.48-.61-.69-.77-.21"/><rect class="cls-7" x="127.29" y="37.39" width="12.45" height="7.16"/><rect class="cls-7" x="126.53" y="36.61" width="14.54" height="8.73"/></g><g class="cls-10"><path class="cls-6" d="M141.85,49.07c-4.74,2.59-9.72,4.51-15.2,3.37-.5-.11-.71.66-.21.76,5.69,1.19,10.87-.74,15.81-3.45.45-.24.05-.93-.4-.68"/><rect class="cls-7" x="126.16" y="49.02" width="16.29" height="4.54"/><rect class="cls-7" x="125.07" y="48.25" width="17.45" height="5.82"/></g><path class="cls-12" d="M143.67,68c13.55-5.3,27.23-10.69,35.59-23.35s8.25-26.6,4.39-40.7c0,0,0,0,0,0a8.34,8.34,0,0,0-.32-1.08h0V2.86l.32.17a3.44,3.44,0,0,0,.88.35l0,.06c7.3,3.33,12,9.93,14.91,17.61a47.2,47.2,0,0,1,2.3,6.45,46.47,46.47,0,0,1,2.13,14.55,58.32,58.32,0,0,1-.51,11.13,55.64,55.64,0,0,1-6.65,21.3c-4.57,9.16-11.64,18.59-20.39,21.75-.42.25-.82.52-1.24.76a.54.54,0,0,1-.49.36c-12.47.59-26.73-14.7-30.24-24.3-.43-.85-1.94-4.53-.72-5"/><path class="cls-2" d="M143.67,68c13.55-5.3,27.23-10.69,35.59-23.35s8.25-26.6,4.39-40.7c0,0,0,0,0,0a8.34,8.34,0,0,0-.32-1.08h0V2.86l.32.17a3.44,3.44,0,0,0,.88.35l0,.06c7.3,3.33,12,9.93,14.91,17.61a47.2,47.2,0,0,1,2.3,6.45,46.47,46.47,0,0,1,2.13,14.55,58.32,58.32,0,0,1-.51,11.13,55.64,55.64,0,0,1-6.65,21.3c-4.57,9.16-11.64,18.59-20.39,21.75-.42.25-.82.52-1.24.76a.54.54,0,0,1-.49.36c-12.47.59-26.73-14.7-30.24-24.3C144,72.2,142.45,68.52,143.67,68Z"/><path class="cls-9" d="M149.57,163.46c11.9-8.84,14.29-23.83,7.08-36.57-.18-.43-.36-.85-.56-1.27a1.35,1.35,0,0,1,0-.35,1.79,1.79,0,0,1-.23-1.75c5.55-9.62,7.71-20.81,4.67-31.51l.11-.05c10.34,3.63,23.85.81,33.88-1.62,9.21-2.23,19.86-5.69,28-11.65,1.7-1.13,3.33-2.35,5-3.44-3.88,6.18-5.16,14.44-4.43,21.23a37.6,37.6,0,0,0,7.48,18.29c-5.81,1.3-12.4,7-14.52,10.42-4.62,7.5-5.13,15.52-3.63,23.43a37.44,37.44,0,0,0-5.13.36,8.12,8.12,0,0,0-4.34,1.08,15,15,0,0,0-8.12,7.07,23,23,0,0,0-2.67,10.21,66.69,66.69,0,0,0-7.84-3l-.71-.18c-.34-.09-.69-.18-1-.25s-.42-.09-.63-.12a16.64,16.64,0,0,0-12.5,2.43,26.88,26.88,0,0,0-7.81,7.58,16.11,16.11,0,0,0-4.73-5.44,17,17,0,0,0-8.19-3.35,1.93,1.93,0,0,1,.8-1.54"/><path class="cls-20" d="M149.57,163.46c11.9-8.84,14.29-23.83,7.08-36.57-.18-.43-.36-.85-.56-1.27a1.35,1.35,0,0,1,0-.35,1.79,1.79,0,0,1-.23-1.75c5.55-9.62,7.71-20.81,4.67-31.51l.11-.05c10.34,3.63,23.85.81,33.88-1.62,9.21-2.23,19.86-5.69,28-11.65,1.7-1.13,3.33-2.35,5-3.44-3.88,6.18-5.16,14.44-4.43,21.23a37.6,37.6,0,0,0,7.48,18.29c-5.81,1.3-12.4,7-14.52,10.42-4.62,7.5-5.13,15.52-3.63,23.43a37.44,37.44,0,0,0-5.13.36,8.12,8.12,0,0,0-4.34,1.08,15,15,0,0,0-8.12,7.07,23,23,0,0,0-2.67,10.21,66.69,66.69,0,0,0-7.84-3l-.71-.18c-.34-.09-.69-.18-1-.25s-.42-.09-.63-.12a16.64,16.64,0,0,0-12.5,2.43,26.88,26.88,0,0,0-7.81,7.58,16.11,16.11,0,0,0-4.73-5.44,17,17,0,0,0-8.19-3.35A1.93,1.93,0,0,1,149.57,163.46Z"/><path class="cls-1" d="M149.57,163.37c11.9-8.84,14.29-23.83,7.08-36.58-.18-.42-.36-.85-.56-1.26a1.35,1.35,0,0,1,0-.35,1.8,1.8,0,0,1-.23-1.76c5.55-9.62,7.71-20.8,4.67-31.5l.11,0c10.34,3.62,23.85.8,33.88-1.63,9.21-2.22,19.86-5.68,28-11.65,1.7-1.13,3.33-2.34,5-3.44-3.88,6.19-5.16,14.45-4.43,21.23a37.56,37.56,0,0,0,7.48,18.29c-5.81,1.31-12.4,7-14.52,10.43-4.62,7.5-5.13,15.51-3.63,23.43a39.1,39.1,0,0,0-5.13.35A8.23,8.23,0,0,0,203,150a15,15,0,0,0-8.12,7.06,23.08,23.08,0,0,0-2.67,10.21,66.58,66.58,0,0,0-7.84-3c-.24-.08-.48-.12-.71-.19l-1-.25-.63-.11a16.64,16.64,0,0,0-12.5,2.43,26.76,26.76,0,0,0-7.81,7.58,16.11,16.11,0,0,0-4.73-5.44,17,17,0,0,0-8.19-3.35,1.93,1.93,0,0,1,.8-1.54"/><path class="cls-2" d="M149.57,163.37c11.9-8.84,14.29-23.83,7.08-36.58-.18-.42-.36-.85-.56-1.26a1.35,1.35,0,0,1,0-.35,1.8,1.8,0,0,1-.23-1.76c5.55-9.62,7.71-20.8,4.67-31.5l.11,0c10.34,3.62,23.85.8,33.88-1.63,9.21-2.22,19.86-5.68,28-11.65,1.7-1.13,3.33-2.34,5-3.44-3.88,6.19-5.16,14.45-4.43,21.23a37.56,37.56,0,0,0,7.48,18.29c-5.81,1.31-12.4,7-14.52,10.43-4.62,7.5-5.13,15.51-3.63,23.43a39.1,39.1,0,0,0-5.13.35A8.23,8.23,0,0,0,203,150a15,15,0,0,0-8.12,7.06,23.08,23.08,0,0,0-2.67,10.21,66.58,66.58,0,0,0-7.84-3c-.24-.08-.48-.12-.71-.19l-1-.25-.63-.11a16.64,16.64,0,0,0-12.5,2.43,26.76,26.76,0,0,0-7.81,7.58,16.11,16.11,0,0,0-4.73-5.44,17,17,0,0,0-8.19-3.35A1.93,1.93,0,0,1,149.57,163.37Z"/><path class="cls-3" d="M192.05,91.94c10.25-2.2,23.2-5.34,31.36-12.51l.34-.19c0,.12-.06.23-.1.35-.17.56-.33,1.12-.49,1.68-8.5,8.79-19.19,16.12-31.27,18.67-9.84,2.08-21.27,1.9-28.57-5.24a.8.8,0,0,1-.13-.13c-.46-.27-.9-.56-1.33-.85a90,90,0,0,0,30.19-1.78"/><g class="cls-5"><path class="cls-6" d="M162.41,94.71c6.16,8.68,17.63,7.22,26.82,5.63,12.44-2.14,23.87-7.62,32.68-16.73a.3.3,0,0,0-.43-.43c-8.08,7.11-17.1,12.5-27.64,15.07-11.61,2.83-21.44,3.68-31.28-3.69a.11.11,0,0,0-.15.15"/><rect class="cls-7" x="162.4" y="83.09" width="59.61" height="18.45"/><rect class="cls-7" x="161.44" y="81.7" width="61.09" height="20.36"/></g><g class="cls-5"><path class="cls-6" d="M163.4,95.74c10.53,16,31.46,24.13,50,19.78a.13.13,0,0,0,0-.26c-20.18,2.11-36.55-4.4-49.68-19.77-.14-.17-.43.06-.31.25"/><rect class="cls-7" x="163.37" y="95.43" width="50.15" height="21.26"/><rect class="cls-7" x="162.89" y="94.79" width="50.91" height="23.27"/></g><g class="cls-5"><path class="cls-6" d="M163.5,95.8c3,12.57,11.09,24.15,19.8,33.45.28.31.73-.15.46-.46-8.92-10.08-14.26-21.11-19.94-33.12-.09-.19-.37-.06-.32.13"/><rect class="cls-7" x="163.49" y="95.58" width="20.35" height="33.77"/><rect class="cls-7" x="162.89" y="94.79" width="21.82" height="34.91"/></g><g class="cls-10"><path class="cls-6" d="M200.08,20.76c-3.83,2-7.79.44-11.36-1.31-.46-.22-.86.46-.4.69,3.86,1.89,8.06,3.44,12.16,1.31.45-.24.05-.92-.4-.69"/><rect class="cls-7" x="188.11" y="19.41" width="12.56" height="3.07"/><rect class="cls-7" x="187.62" y="19.16" width="13.09" height="4.36"/></g><g class="cls-10"><path class="cls-6" d="M201.27,28.7a11.05,11.05,0,0,1-11.92-.59c-.42-.29-.82.4-.4.69a11.84,11.84,0,0,0,12.72.58.39.39,0,0,0-.4-.68"/><rect class="cls-7" x="188.77" y="28.04" width="13.1" height="2.92"/><rect class="cls-7" x="187.62" y="27.89" width="14.54" height="4.36"/></g><g class="cls-10"><path class="cls-6" d="M202.46,38.61a20.18,20.18,0,0,1-15,.35c-.48-.17-.69.6-.21.77a20.88,20.88,0,0,0,15.37-.35c.46-.2.26-1-.21-.77"/><rect class="cls-7" x="187.03" y="38.58" width="15.9" height="2.45"/><rect class="cls-7" x="186.16" y="38.07" width="17.45" height="4.36"/></g><g class="cls-10"><path class="cls-6" d="M201.65,49.7a14.21,14.21,0,0,1-15.82-2.93.4.4,0,0,0-.57.56,15,15,0,0,0,16.6,3.13c.47-.19.27-1-.21-.76"/><rect class="cls-7" x="185.15" y="46.65" width="16.98" height="5.05"/><rect class="cls-7" x="184.71" y="45.34" width="17.45" height="7.27"/></g><g class="cls-10"><path class="cls-6" d="M201.32,61.78c-8.13,3.2-18.41.41-23.53-7-.29-.42-1,0-.68.4,2.45,3.55,5.91,5.66,9.85,7.31,5.34,2.22,9.21,2.17,14.57,0,.47-.18.26-.95-.21-.76"/><rect class="cls-7" x="177.04" y="54.6" width="24.76" height="9.54"/><rect class="cls-7" x="175.98" y="54.07" width="26.18" height="10.18"/></g><g class="cls-10"><path class="cls-6" d="M195.9,73.55a25.44,25.44,0,0,1-27.28-9.25c-.3-.4-1,0-.68.4a26.23,26.23,0,0,0,28.17,9.62.4.4,0,0,0-.21-.77"/><rect class="cls-7" x="167.86" y="64.14" width="28.54" height="11.12"/><rect class="cls-7" x="167.25" y="62.79" width="30.54" height="13.09"/></g><g class="cls-10"><path class="cls-6" d="M183.92,89.24A31.28,31.28,0,0,1,160.1,68.71c-.16-.48-.93-.27-.76.21A32,32,0,0,0,183.71,90c.5.1.71-.67.21-.76"/><rect class="cls-7" x="159.31" y="68.44" width="24.89" height="21.57"/><rect class="cls-7" x="158.53" y="67.16" width="26.18" height="23.27"/></g><g class="cls-10"><path class="cls-6" d="M167.1,93.25A37.54,37.54,0,0,1,153,72a.39.39,0,0,0-.76.21A38.31,38.31,0,0,0,166.7,93.94c.41.3.8-.38.4-.69"/><rect class="cls-7" x="152.2" y="71.69" width="15.07" height="22.32"/><rect class="cls-7" x="151.25" y="71.52" width="17.45" height="23.27"/></g></g><g id="toes"><path class="cls-21" d="M244.16,457.24a15.29,15.29,0,0,0-3.22,5.9,1,1,0,0,1-1-.37c-2.18-3.14-1.93-8.29-.54-11.7,1.31-3.21,4.76-8.74,8.41-9.59,3.44-.8,5.58,2.87,4.74,5.83C251.38,451.58,246.53,453.69,244.16,457.24Z"/><path class="cls-21" d="M270.08,459.38a15.17,15.17,0,0,0-2.77,6.12,1,1,0,0,1-1-.3c-2.41-3-2.54-8.11-1.41-11.62,1.07-3.3,4.09-9.07,7.67-10.2,3.38-1.05,5.78,2.45,5.17,5.47C276.86,453.19,272.18,455.66,270.08,459.38Z"/><path class="cls-21" d="M291,459.3a15,15,0,0,0-2.86,6.08,1,1,0,0,1-1-.31c-2.36-3-2.43-8.15-1.24-11.64,1.12-3.28,4.22-9,7.81-10.09,3.39-1,5.74,2.53,5.09,5.54C297.87,453.21,293.15,455.61,291,459.3Z"/><path class="cls-21" d="M105.46,457a15.26,15.26,0,0,0-1.35,6.59,1,1,0,0,1-1-.07c-3-2.37-4.28-7.36-3.94-11,.31-3.45,2-9.75,5.22-11.64,3-1.77,6.17,1.11,6.25,4.18C110.69,449.42,106.68,452.87,105.46,457Z"/><path class="cls-21" d="M129.74,456.77a15.25,15.25,0,0,0-1.34,6.59,1,1,0,0,1-1.05-.07c-3-2.37-4.28-7.36-3.95-11,.31-3.45,2-9.75,5.22-11.64,3.06-1.77,6.17,1.11,6.25,4.19C135,449.23,131,452.68,129.74,456.77Z"/><path class="cls-21" d="M153.27,456.39a15.11,15.11,0,0,0-1.35,6.59,1,1,0,0,1-1-.07c-3-2.37-4.28-7.36-4-11,.32-3.45,2-9.75,5.23-11.64,3-1.77,6.17,1.11,6.24,4.18.11,4.43-3.91,7.88-5.12,12"/><path class="cls-12" d="M107.63,443.81c.39-.24-.31-1-.83-1a2.36,2.36,0,0,0-1.87.89,14.76,14.76,0,0,0-2.41,4.91c0,.08,0,1.29.41,1.45a.91.91,0,0,0,1.21-.53C105.05,446.44,106,444.83,107.63,443.81Z"/><path class="cls-12" d="M130.93,443.62c.37-.28-.39-1-.91-.95a2.31,2.31,0,0,0-1.78,1.05,14.8,14.8,0,0,0-2,5.1c0,.09.09,1.3.54,1.41a.89.89,0,0,0,1.15-.63C128.6,446.46,129.35,444.79,130.93,443.62Z"/><path class="cls-12" d="M153.41,445c.18-.42-.49-1-1-.86a2.36,2.36,0,0,0-1.68,1.22,15.08,15.08,0,0,0-1.46,5.27c0,.09.22,1.28.68,1.35a.93.93,0,0,0,1.09-.74A28.65,28.65,0,0,1,153.41,445Z"/><path class="cls-12" d="M246.31,446.29c.18-.41-.49-1-1-.85a2.36,2.36,0,0,0-1.68,1.22,14.76,14.76,0,0,0-1.46,5.26c0,.09.22,1.28.68,1.35a.94.94,0,0,0,1.09-.73A28.23,28.23,0,0,1,246.31,446.29Z"/><path class="cls-12" d="M270.77,449.34c.19-.42-.48-1-1-.86a2.34,2.34,0,0,0-1.68,1.22,14.79,14.79,0,0,0-1.46,5.27c0,.09.22,1.28.67,1.35a.93.93,0,0,0,1.09-.74A28.65,28.65,0,0,1,270.77,449.34Z"/><path class="cls-12" d="M293.08,449.34c.19-.42-.48-1-1-.86a2.36,2.36,0,0,0-1.68,1.22A14.79,14.79,0,0,0,289,455c0,.09.22,1.28.67,1.35a.93.93,0,0,0,1.09-.74A28.65,28.65,0,0,1,293.08,449.34Z"/></g><path class="cls-12" d="M33.23,86.45a29.21,29.21,0,0,0-12-.67c-5.93,1-5,10.52.92,9.48a23.13,23.13,0,0,1,9.58.67c2.43.61,5-1.74,5.34-4.11.44-2.77-1.42-4.76-3.85-5.37"/></g></g></svg>