<svg xmlns="http://www.w3.org/2000/svg" viewBox="0 0 298.62 322.4"><defs><style>.cls-1,.cls-3{fill:#ffdde0;}.cls-1,.cls-11,.cls-14,.cls-15,.cls-3,.cls-9{stroke:#776f8a;}.cls-1,.cls-11,.cls-14,.cls-15,.cls-16,.cls-3,.cls-9{stroke-miterlimit:10;}.cls-1,.cls-11,.cls-14{stroke-width:2px;}.cls-2{fill:#dee1f4;}.cls-3{stroke-width:1.43px;}.cls-4{opacity:0.4;}.cls-5{fill:#25144d;}.cls-6{opacity:0.65;}.cls-16,.cls-7{fill:#fff;}.cls-8{opacity:0.25;}.cls-11,.cls-9{fill:none;}.cls-9{stroke-width:1.97px;}.cls-10{fill:#776f8a;}.cls-12{opacity:0.9;}.cls-13,.cls-14,.cls-15{fill:#f6f6fb;}.cls-16{stroke:#25144d;}</style></defs><title>mascot</title><g id="Layer_2" data-name="Layer 2"><g id="behind_body" data-name="behind body"><path class="cls-1" d="M190.77,106.93a32.34,32.34,0,0,0,1.47-5.75.65.65,0,0,0-1.07-.63c-12.58,12.28-25.56,24-41,32.66a1.44,1.44,0,0,0-.38.6,3.21,3.21,0,0,0,2.52,3.06,19.08,19.08,0,0,0,3.58.79,15.73,15.73,0,0,0,6,1.48c3.66.12,7.39.14,11.08,0,2,.25,4.21.54,5.77-.39l.08-.08a.74.74,0,0,0,.75-.28c2-2.63,5.27-3.54,8.45-3.69,3.59-.18,5.94,1.72,8.93,3.29a.71.71,0,0,0,.38.28c.1-4.75,3.82-9.88,7.84-11.64a11.87,11.87,0,0,1,8.49-.3,10,10,0,0,1,.77-7.2c1.77-4,5-8.51,9.12-10.71A61.29,61.29,0,0,0,190.77,106.93Z"/><g id="Layer_14" data-name="Layer 14"><path class="cls-2" d="M186.76,110.67a21.35,21.35,0,0,0,4.37-8.2,2.82,2.82,0,0,1,0-.65c-.08-.33-.16-.66-.26-1-4,5.75-10.4,10.92-15.61,14.94-.46.36-.92.7-1.38,1a49.46,49.46,0,0,1-4.49,4.19c-4.84,3.91-10.22,6.63-15.47,9.81-.28.21-.55.41-.83.58a11.77,11.77,0,0,0,2.44.27,15.09,15.09,0,0,1,1.68.25l1.36-.55C167.77,124.41,178.89,118.93,186.76,110.67Z"/></g><path class="cls-3" d="M155.46,100.57a14.11,14.11,0,0,0-1.09-3.46c-.15-.33-.79-.21-1,.28-4.18,12.46-8.84,24.89-16.29,37.19a.27.27,0,0,0-.05.2.24.24,0,0,0,0,.28c.58.73,1.65.63,2.85.07a21.89,21.89,0,0,0,2.74-1.56,18.82,18.82,0,0,0,4.63-2.5c2.56-1.91,5.14-3.9,7.62-5.95,1.45-.94,3.09-2,3.82-3.28a.36.36,0,0,0,0-.07.83.83,0,0,0,.41-.54c.43-2.3,2.34-4.48,4.47-6.26,2.41-2,4.71-2.38,7.34-3.25a.7.7,0,0,0,.36-.08c-1.66-2.26-1-6.65,1.16-9.62a15,15,0,0,1,5.72-4.7c-1.42-.67-1.95-2.17-2.09-3.76a16.56,16.56,0,0,1,2.38-9.88A78,78,0,0,0,155.46,100.57Z"/><path class="cls-2" d="M154.06,104.46c.42-2.21.66-4.42,0-6.16a1,1,0,0,1-.24-.3,5.89,5.89,0,0,0-.54-.32c-.64,4.81-3.19,10.66-5.3,15.32l-.57,1.24a39.83,39.83,0,0,1-1.56,4.35c-1.9,4.42-4.62,8.58-7.07,12.87q-.17.38-.36.72a14.91,14.91,0,0,0,1.78-1.19c.41-.28.83-.54,1.24-.78l.74-1C146,121,151.65,112.53,154.06,104.46Z"/><g class="cls-4"><path class="cls-5" d="M141.4,130.09a200.1,200.1,0,0,0,12.1-23.64c0-.1-.09-.19-.14-.09-4.15,7.79-8.16,15.76-12,23.69,0,0,0,.09.07,0Z"/></g><g class="cls-4"><path class="cls-5" d="M148.91,119.73a104.38,104.38,0,0,1,29.45-22.34c.29-.14,0-.56-.24-.42a94.21,94.21,0,0,0-29.28,22.69,0,0,0,1,0,.07.07Z"/></g><g class="cls-4"><path class="cls-5" d="M153.37,117.37c5.41-3.83,11.31-6.2,18-5.65.25,0,.25-.37,0-.38l-.5,0c-.16,0-.19.25,0,.29a10,10,0,0,0-3.8-.4,22.3,22.3,0,0,0-4.72,1,27.19,27.19,0,0,0-9.06,5c-.07.06,0,.19.1.13Z"/></g></g><g id="body"><path class="cls-2" d="M291,142.58a67.42,67.42,0,0,0-11.8-17.23c-2.07-2.17-4.46-4.56-6.95-6.81a8.73,8.73,0,0,0-1.06-.53,35.25,35.25,0,0,1,1.28,6.53,43.44,43.44,0,0,1-3.4,22.51c-6.76,15.88-19.17,25.92-35.24,30.17a39.76,39.76,0,0,0-3-3.12,37.71,37.71,0,0,0-2.7-3.22,112.22,112.22,0,0,0-8.84-8.88,130.63,130.63,0,0,0-17.19-13c-1-.65-2.11-1.32-3.22-2a23.25,23.25,0,0,0-3.68-2.2c-4-3.19-9.6-5.18-13.69-6.67-8.88-3.2-18.19-4.66-27.48-6s-18-1.57-25.19-8.62A49.89,49.89,0,0,1,119,110c-.47-1.46-.92-2.93-1.3-4.43-.07-.37-.16-.72-.22-1.1-.73-4.43,0-9.45-.66-14a19.07,19.07,0,0,1,1.55-4.22c2.46-4.86-4.81-8.06-6.87-2.94A31.21,31.21,0,0,0,110,87.88a10.37,10.37,0,0,0-1.45,1.18c0-.53-.09-1.06-.12-1.6a5.57,5.57,0,0,0-5.76-5.39,5.76,5.76,0,0,0-1.88.41,5.72,5.72,0,0,0-4.34.49A5.75,5.75,0,0,0,89,82.1c-2.15-1.66-5.41-1.76-7.11.75a5,5,0,0,0-2.23-1.61,52.13,52.13,0,0,0-1.57-8.5,4.16,4.16,0,0,0-7.85-.36,4.35,4.35,0,0,0-5.7,2.46h0c-.37,1-.68,2-1,3a2.62,2.62,0,0,0-3.06-.19l-.11.08a19.08,19.08,0,0,0-.55-5.88c-.48-1.63,6.63-8.84,5.09-7.68-10.17,7.65-11.16,3.14-10.5,40.76.25,15.72,4.27,32,9.6,45.77,4.46,11.52,9.09,23.18,14.48,34.32a23.84,23.84,0,0,0-10.47,4.72,38.49,38.49,0,0,0-12.74,17c-6,15.2-2.75,31.82,3.24,46.44,5.78,14.11,13.26,26.86,27.33,33.71a50.08,50.08,0,0,0,17.64,4.53,12.51,12.51,0,0,1,.3,3.66,19.27,19.27,0,0,1-1.73,6.36,8.34,8.34,0,0,0-2,1.23c-2.72-3.87-9.39-4-12.87-.56-3.32-2.9-9.51-2-12.7.9a17.16,17.16,0,0,0-4.58,8,24.87,24.87,0,0,0,0,3.23c.25,1.06.53,2.13.87,3.17v.05A7.17,7.17,0,0,0,75.63,321c14.09.14,28.18.63,42.23-.18,3.31-.19,6.62-.27,9.94-.33a15,15,0,0,0,7.51-6.22c.75-2.1,1.39-4.23,2-6.15,2.11-6.47,3.83-13.1,7.15-19,1.58-2.82,3.55-5.54,5-8.42,4.08,1,8.82.94,11.92,1,6.13.2,12.56.69,18.87.4a44.32,44.32,0,0,0,18.52,9.07v.24c1.9.6,1.78,2.77,1,4.69a12.08,12.08,0,0,1-.38,1.16c-.39.94-1.37,2.3-2.39,2.5a.28.28,0,0,1,0,.13,9.35,9.35,0,0,0-2.87.45,13.19,13.19,0,0,0-5.22,3.25,12.45,12.45,0,0,0-9.4-3.56c-6.38.43-9.84,6.13-10.92,12a22.09,22.09,0,0,0-.5,4.66,10.77,10.77,0,0,0,1.41,2.29h0a13,13,0,0,0,2.89,1.56c8.86,0,17.71.29,26.56.56a18.62,18.62,0,0,1,7.21-.21c.73.13,1.44.28,2.16.45,2.5.05,5,.08,7.51.07a39.15,39.15,0,0,1,5-1.69l.21-.24.36.12a8.67,8.67,0,0,1,1.25-.12c4.06-.11,7.33,1.91,11.58.56a12.37,12.37,0,0,0,2.79-1.28c.33-.58.66-1.15,1-1.72,1.54-4.49,1.8-10.08,2.2-14.43.19-2,.28-4.38.41-6.84a.85.85,0,0,1-.08-.35c-.16-4.08,1.38-8.06,1-12.09a20.86,20.86,0,0,0-1.64-2.87,34.12,34.12,0,0,1-4.27-2.75,28.07,28.07,0,0,1-2.77-1.69c8.68-1.93,17.44-7.77,24.16-12a87.2,87.2,0,0,0,17.81-14.71,101.05,101.05,0,0,0,6.66-9.27c1.84-2.92,3.66-5.88,5.39-8.89.95-2.23,2-4.44,3-6.62A134.56,134.56,0,0,0,298.31,187C299.42,172,297.61,156.18,291,142.58Zm-148.18,6.94c-.66,1.89-1.3,3.8-1.92,5.7a53.28,53.28,0,0,0-4,5.13l-3.14-5.71A5.14,5.14,0,0,0,130.6,152l-.73-1.2a4.48,4.48,0,0,0-.22-.71c-.4-1.06-.83-2.13-1.27-3.19a12.29,12.29,0,0,0,7.24,1.52,5.82,5.82,0,0,0,5.31-5c1.54.37,3.08.71,4.63,1A17.28,17.28,0,0,0,142.86,149.52Z"/><g id="new_belly" data-name="new belly"><g class="cls-6"><path class="cls-7" d="M290.32,149.88c2.44,9.1,4.9,18.37,4.66,27.83-.16,6.18,0,14.7-1.4,20.71-2.63,11.24-4.57,21.22-9.12,31.75S271.2,249.38,263,257,245,269.47,235.31,274.4l.64.3c-4.75-.41-8.83-4.38-10.36-9.16s-.75-10.14,1.33-14.67a38,38,0,0,1,8.94-11.66c7.33-6.85,15.92-12,23.46-18.57,20.38-17.75,32.13-46.06,30.67-73.95"/></g></g><g id="belly_lines" data-name="belly lines"><g class="cls-6"><path class="cls-7" d="M181.48,282.41c-19.36-1.17-44.61-2.35-59.08-15.27-10.64-9.5-16.19-21.06-21.78-34.18-10.58-24.8-19.18-50.6-29.87-76.17C60.34,131.92,56.05,103.58,60.31,77c.51-3.14,3.1-5.72,5.18-8.13,2.76-3.19,7.48-4.17,11.61-3.3s4.26,2.28,5.78,6.22c3.67,9.56,3.05,7.36,7.3,18.26,5.09,13,16.17,28.43,24.52,36.26,6.08,5.7,39.53,49.63,49.7,60.78,8.08,8.87,11.87,10.18,16.74,14.13-6-3.29-13.69,3.86-17.93,9.28s-3.41,12.8-3.73,19.68c-.94,20.48,5.08,40.7,22,52.27"/></g><g class="cls-8"><path class="cls-5" d="M160,188.47c-19.91,12.7-43.42,15.82-66.39,18.61-.34,0-.35.59,0,.54,23.06-2.8,46.68-5.94,66.66-18.68.3-.19,0-.66-.27-.47Z"/></g><g class="cls-8"><path class="cls-5" d="M169.58,193.21c-11.25,5.32-21.32,13-33.34,16.61-12.64,3.84-26.07,7-39.27,7.72-.35,0-.35.57,0,.55,13.29-.74,26.7-3.89,39.42-7.74,12.06-3.66,22.17-11.33,33.47-16.67.32-.15,0-.62-.28-.47Z"/></g><g class="cls-8"><path class="cls-5" d="M168.13,204.69a136.35,136.35,0,0,1-47.59,20.71c-6.53,1.44-13.8,3.21-20.48,2.07-.34-.06-.49.47-.14.53,5.19.88,10.51-.12,15.64-1.05a135,135,0,0,0,19.39-5,138.92,138.92,0,0,0,33.46-16.77c.29-.19,0-.67-.28-.47Z"/></g><g class="cls-8"><path class="cls-5" d="M161.48,217.82c-17.36,12.11-37.6,20-59,19.28-.35,0-.35.54,0,.55,21.49.71,41.84-7.2,59.28-19.36.28-.2,0-.68-.28-.47Z"/></g><g class="cls-8"><path class="cls-5" d="M159,228.41c-7.56,5.42-14.81,9.78-23.85,12.28-9.34,2.58-18.75,4.89-28.18,7.09-.34.08-.2.6.14.53,10-2.33,20-4.72,29.83-7.55,8.37-2.41,15.3-6.84,22.34-11.88.28-.2,0-.68-.28-.47Z"/></g><g class="cls-8"><path class="cls-5" d="M159.2,237.51C146,247.29,130.45,252.32,115,257.13a.28.28,0,0,0,.15.53c15.53-4.83,31.15-9.86,44.35-19.67.28-.21,0-.68-.27-.48Z"/></g><g class="cls-8"><path class="cls-5" d="M162.1,248.43c-11,10-25.17,14.66-39.45,17.88-.34.08-.19.6.15.53,14.38-3.25,28.6-7.92,39.69-18,.26-.23-.13-.62-.39-.38Z"/></g><g class="cls-8"><path class="cls-5" d="M164,257.38c-9.59,6.47-19.31,12.55-30.73,15.17-.31.07-.18.56.14.48,11.45-2.62,21.21-8.72,30.85-15.21.26-.18,0-.62-.26-.44Z"/></g><g class="cls-8"><path class="cls-5" d="M168.45,268.66a57.25,57.25,0,0,1-23.25,10.52c-.35.07-.2.6.14.53a57.41,57.41,0,0,0,23.39-10.58c.27-.2,0-.68-.28-.47Z"/></g><g class="cls-8"><path class="cls-5" d="M174.83,275.19a104,104,0,0,1-13.31,5.69c-.33.12-.19.65.14.53a105.46,105.46,0,0,0,13.44-5.75c.32-.16,0-.63-.27-.47Z"/></g><g class="cls-8"><path class="cls-5" d="M230.45,247.78c2.18,7.23,3,14.68,3.62,22.17,0,.32.53.32.51,0-.69-7.54-1.45-15-3.64-22.3-.1-.31-.58-.18-.49.13Z"/></g><g class="cls-8"><path class="cls-5" d="M235,241.73c4.58,8.54,6.9,19.55,8.82,29,.07.32.55.18.49-.13-2-9.55-4.24-20.5-8.88-29.14-.15-.28-.59,0-.43.26Z"/></g><g class="cls-8"><path class="cls-5" d="M240.28,237.21a126.18,126.18,0,0,1,8.41,30.57c0,.32.52.18.48-.13a125.72,125.72,0,0,0-8.41-30.57c-.12-.3-.61-.17-.48.13Z"/></g><g class="cls-8"><path class="cls-5" d="M244.35,234.48a84.93,84.93,0,0,1,11.26,30.43c0,.32.54.19.48-.13a85,85,0,0,0-11.31-30.55c-.17-.27-.6,0-.43.25Z"/></g><g class="cls-8"><path class="cls-5" d="M248.8,230.77c2.67,4.69,5.59,9.32,8,14.17s3.49,10.52,4.87,15.86a.25.25,0,0,0,.48-.13c-1.24-4.83-2.2-9.88-4.21-14.47-2.39-5.43-5.74-10.53-8.67-15.68a.25.25,0,0,0-.43.25Z"/></g><g class="cls-8"><path class="cls-5" d="M254.09,227c2.86,3.74,6.46,6.78,9.15,10.67A46.23,46.23,0,0,1,269.66,252a.25.25,0,0,0,.48-.13,46.94,46.94,0,0,0-5.57-13c-2.84-4.48-6.84-7.84-10-12-.2-.26-.63,0-.44.25Z"/></g><g class="cls-8"><path class="cls-5" d="M259.53,223.2c7.47,5.51,14.76,11.18,19.74,19.17.17.27.6,0,.43-.25-5-8.05-12.39-13.8-19.92-19.36-.26-.19-.51.25-.25.44Z"/></g><g class="cls-8"><path class="cls-5" d="M265.92,216.9c6.81,4.24,13.49,8.66,18.06,15.42.18.26.62,0,.43-.26-4.62-6.83-11.34-11.3-18.24-15.59-.27-.18-.52.26-.25.43Z"/></g><g class="cls-8"><path class="cls-5" d="M270.85,210.36c5.52,4.15,11.76,7.25,16.68,12.16a.25.25,0,0,0,.35-.35c-4.95-4.94-11.22-8.07-16.78-12.24-.25-.19-.5.24-.25.43Z"/></g><g class="cls-8"><path class="cls-5" d="M275.24,205.83c3.92,4.53,9.9,5.49,14.82,8.53.28.17.53-.27.26-.44-4.88-3-10.84-3.95-14.73-8.45-.21-.24-.56.12-.35.36Z"/></g><g class="cls-8"><path class="cls-5" d="M280.78,199.29c3,3.39,7,5.27,11.15,7,.29.12.55-.31.25-.44-4.07-1.73-8.05-3.57-11.05-6.93-.21-.25-.57.11-.35.35Z"/></g><g class="cls-8"><path class="cls-5" d="M282.39,192c3.41,2.6,7,5.21,11.42,5.37.32,0,.32-.49,0-.5-4.34-.16-7.84-2.77-11.17-5.3-.25-.19-.5.24-.25.43Z"/></g><g class="cls-8"><path class="cls-5" d="M283,185.85a36.05,36.05,0,0,0,11.59,5.46.25.25,0,0,0,.13-.48,35.45,35.45,0,0,1-11.47-5.42c-.26-.18-.51.25-.25.44Z"/></g><g class="cls-8"><path class="cls-5" d="M286.31,181a30.82,30.82,0,0,0,8.78,3.19c.31.06.45-.42.13-.49a30,30,0,0,1-8.65-3.14c-.29-.15-.54.28-.26.44Z"/></g><g class="cls-8"><path class="cls-5" d="M288,174.1c2.54.57,5.1,1.08,7.66,1.55.31.06.45-.43.13-.48q-3.84-.71-7.66-1.55c-.31-.07-.45.42-.13.48Z"/></g><g class="cls-8"><path class="cls-5" d="M290.72,167.74a9.09,9.09,0,0,0,4-.22.26.26,0,0,0-.14-.49,8.44,8.44,0,0,1-3.77.23c-.32,0-.46.43-.14.48Z"/></g><g class="cls-8"><path class="cls-5" d="M293.43,159.8a8,8,0,0,1-2.79.34c-.32,0-.32.49,0,.51a8.81,8.81,0,0,0,2.93-.37.25.25,0,0,0-.14-.48Z"/></g><g class="cls-8"><path class="cls-5" d="M147,172.88c-18,11.45-39.21,14.29-60,16.81-.31,0-.31.53,0,.49,20.85-2.53,42.14-5.38,60.21-16.87.27-.17,0-.6-.24-.43Z"/></g><g class="cls-8"><path class="cls-5" d="M156.21,182.4c-10.33,3.66-19.89,9.48-30.7,11.73-12,2.48-24.62,4.06-36.83,3.52-.32,0-.32.48,0,.49,11.74.52,23.73-1.09,35.28-3.21s21.48-8.19,32.38-12.06c.29-.1.17-.58-.13-.47Z"/></g><g class="cls-8"><path class="cls-5" d="M95,109.19c-10.8,4.17-21.61,7.93-33.33,8a.25.25,0,0,0,0,.5c11.75,0,22.62-3.77,33.47-8,.3-.12.17-.61-.14-.49Z"/></g><g class="cls-8"><path class="cls-5" d="M125.84,141.48c-7.43,6.27-14.45,11.11-23.66,14.41-8.82,3.17-17.7,6.14-26.62,9-.34.1-.2.63.14.52,10-3.18,20.09-6.43,29.93-10.18,7.86-3,14.23-8,20.6-13.34.26-.23-.12-.61-.39-.39Z"/></g><g class="cls-8"><path class="cls-5" d="M130.54,152.41c-7.57,5.42-14.82,9.78-23.85,12.28-9.34,2.58-18.75,4.89-28.19,7.09-.34.08-.19.6.15.53,10-2.33,20-4.72,29.82-7.55,8.38-2.41,15.3-6.84,22.34-11.88.29-.2,0-.68-.27-.47Z"/></g><g class="cls-8"><path class="cls-5" d="M127.93,165.9c-14.12,8.34-30.13,11.69-46,14.85-.34.07-.2.59.15.53,15.95-3.17,32-6.55,46.17-14.91a.27.27,0,0,0-.28-.47Z"/></g><g class="cls-8"><path class="cls-5" d="M117,135.45c-13.23,9.68-28.84,14.61-44.35,19.31-.34.11-.2.63.14.53,15.57-4.72,31.21-9.65,44.49-19.37.28-.21,0-.68-.28-.47Z"/></g><g class="cls-8"><path class="cls-5" d="M110.14,127.09c-12.66,9.32-27.61,14.12-42.47,18.7-.32.1-.18.61.14.51,14.91-4.6,29.89-9.4,42.59-18.76.27-.2,0-.65-.26-.45Z"/></g><g class="cls-8"><path class="cls-5" d="M103.54,108.56c-11,10-25.18,14.66-39.45,17.88-.34.08-.2.6.14.53,14.38-3.25,28.61-7.92,39.7-18,.26-.23-.13-.62-.39-.38Z"/></g><g class="cls-8"><path class="cls-5" d="M105.54,118.86c-11,10-25.18,14.66-39.45,17.89-.34.07-.2.6.14.52,14.38-3.24,28.61-7.92,39.7-18,.26-.24-.13-.62-.39-.39Z"/></g></g><path class="cls-9" d="M289.9,144a66.76,66.76,0,0,0-11.54-17.09c-2-2.16-4.36-4.53-6.8-6.76a7.82,7.82,0,0,0-1-.53,35.85,35.85,0,0,1,1.26,6.48,43.7,43.7,0,0,1-3.33,22.34c-6.61,15.76-18.75,25.72-34.47,29.94a40.45,40.45,0,0,0-2.91-3.1,36.62,36.62,0,0,0-2.64-3.19,110.79,110.79,0,0,0-8.65-8.82A127.9,127.9,0,0,0,203,150.31c-1-.64-2.06-1.31-3.14-2a22.5,22.5,0,0,0-3.61-2.18c-3.88-3.17-9.38-5.14-13.39-6.62-8.68-3.18-17.78-4.63-26.88-5.92S138.31,132,131.31,125a49.47,49.47,0,0,1-9.72-13.41c-.46-1.44-.89-2.9-1.27-4.39-.07-.37-.16-.72-.22-1.09-.7-4.4,0-9.38-.64-13.86A19.9,19.9,0,0,1,121,88.11a3.68,3.68,0,1,0-6.72-2.92,30.59,30.59,0,0,0-1.4,4.48,10.71,10.71,0,0,0-1.42,1.18c0-.53-.09-1.06-.12-1.59a5.48,5.48,0,0,0-5.63-5.35,5.58,5.58,0,0,0-1.84.41,5.46,5.46,0,0,0-4.24.48,5.58,5.58,0,0,0-7.3-.86c-2.11-1.65-5.3-1.75-7,.74a4.82,4.82,0,0,0-2.17-1.59,52.66,52.66,0,0,0-1.55-8.44A4,4,0,0,0,74,74.29a4.25,4.25,0,0,0-5.58,2.45h0c-.36,1-.66,2-1,2.93a2.56,2.56,0,0,0-3-.19l-.11.08a19.37,19.37,0,0,0-.53-5.83c-.47-1.62,6.49-8.77,5-7.62-9.94,7.59-10.91,3.11-10.27,40.44.25,15.6,4.18,31.72,9.4,45.42C72.23,163.4,76.76,175,82,186a23.19,23.19,0,0,0-10.24,4.68A38.09,38.09,0,0,0,59.33,207.6c-5.83,15.08-2.69,31.58,3.16,46.08,5.66,14,13,26.66,26.74,33.45a48.31,48.31,0,0,0,17.25,4.5,13,13,0,0,1,.3,3.63,19.37,19.37,0,0,1-1.7,6.31,8.58,8.58,0,0,0-2,1.22c-2.65-3.84-9.18-4-12.58-.55-3.25-2.88-9.3-2-12.42.89A17.1,17.1,0,0,0,73.6,311a24.41,24.41,0,0,0,0,3.2c.24,1.06.51,2.12.84,3.15v.05A7.06,7.06,0,0,0,79.2,321c13.78.14,27.57.63,41.31-.18,3.24-.19,6.47-.27,9.72-.32a14.64,14.64,0,0,0,7.34-6.18c.74-2.08,1.36-4.19,2-6.1,2-6.42,3.74-13,7-18.89,1.54-2.8,3.47-5.5,4.86-8.36,4,1,8.62.93,11.66,1,6,.2,12.29.69,18.45.4a43.09,43.09,0,0,0,18.12,9v.24c1.86.59,1.74,2.75,1,4.65a11,11,0,0,1-.36,1.15c-.38.94-1.35,2.29-2.34,2.48a.29.29,0,0,1,0,.13,9.17,9.17,0,0,0-2.8.45,12.87,12.87,0,0,0-5.11,3.23,12.14,12.14,0,0,0-9.19-3.54c-6.25.43-9.63,6.09-10.69,11.9a21.78,21.78,0,0,0-.49,4.62A11,11,0,0,0,171,319h0a12.58,12.58,0,0,0,2.83,1.55c8.67,0,17.32.28,26,.55a18.19,18.19,0,0,1,7.05-.21c.71.13,1.41.28,2.11.45,2.45.05,4.86.08,7.34.07a38.23,38.23,0,0,1,4.86-1.68l.21-.24.34.12q.62-.09,1.23-.12c4-.11,7.17,1.9,11.33.56a12.31,12.31,0,0,0,2.73-1.27c.31-.57.64-1.14,1-1.71,1.51-4.45,1.77-10,2.15-14.32.19-2,.28-4.34.4-6.78a1,1,0,0,1-.07-.35c-.16-4.05,1.35-8,1-12a21,21,0,0,0-1.61-2.85,30.82,30.82,0,0,1-4.17-2.73,25.93,25.93,0,0,1-2.71-1.67c8.49-1.92,17.06-7.71,23.62-11.87A85.09,85.09,0,0,0,274,249.9a100.42,100.42,0,0,0,6.51-9.2c1.8-2.89,3.59-5.83,5.28-8.82.92-2.21,1.94-4.4,2.91-6.57A135.44,135.44,0,0,0,297,188C298.09,173.18,296.33,157.45,289.9,144ZM145,150.84c-.66,1.88-1.28,3.77-1.89,5.66a50.7,50.7,0,0,0-3.89,5.09l-3.08-5.67a5,5,0,0,0-3.14-2.6l-.71-1.19a5.68,5.68,0,0,0-.22-.7c-.39-1.06-.81-2.12-1.24-3.17a11.87,11.87,0,0,0,7.08,1.51,5.71,5.71,0,0,0,5.19-5c1.51.36,3,.7,4.53,1A17.24,17.24,0,0,0,145,150.84Z"/></g><g id="body_lineart" data-name="body lineart"><path class="cls-5" d="M186.08,283.45s0,0,0,0Z"/><path class="cls-10" d="M181.84,202.2c-6-4.23-13.47-.57-17.18,4.92-5.33,7.92-5.83,19.17-5.33,28.37,1,18.23,8.39,35.43,22.11,47.65.65.59,1.61-.36,1-1a65.91,65.91,0,0,1-20.58-37.64,71.33,71.33,0,0,1-.19-24.56c1.7-9.37,8-22.35,19.73-16.95a.48.48,0,0,0,.48-.83Z"/><path class="cls-10" d="M154,280.49a83.09,83.09,0,0,1-22.71-7.38,40.71,40.71,0,0,1-18.09-15.45c-.12-.18-.41,0-.3.17,4.38,7.32,9.52,11.78,17.22,15.49,7.16,3.44,15.78,7.64,23.86,7.33.09,0,.12-.14,0-.16Z"/><path class="cls-10" d="M230.67,275.33c-3.23-1.82-5.09-6.8-6.09-10.3A20.2,20.2,0,0,1,227,248.88c4.47-7.56,14.11-12.53,20.78-18.12.33-.27-.14-.73-.46-.47-8.63,7.11-20.9,13-23.68,24.8-1.08,4.6-.2,9,1.58,13.28,1.37,3.27,1.92,5.82,5.29,7.32.24.11.45-.22.21-.36Z"/><path class="cls-10" d="M286.49,143.8c5.8,12.86,3.12,26.45-1.86,39.11-4.58,11.62-10.05,22.74-17.41,32.86-.07.1.09.23.17.13,8.79-9.88,14.31-23,18.81-35.33,4.28-11.71,6.72-25.39.45-36.87-.06-.11-.21,0-.16.1Z"/><path class="cls-10" d="M182.55,201.17c-3-2.49-6.27-4.54-9.22-7A116,116,0,0,1,165,186c-.21-.23-.52.1-.33.33,4.71,5.65,11.09,11.76,17.82,14.92.06,0,.14-.05.08-.1Z"/><path class="cls-10" d="M107.39,302.19c4-.15,9.58.36,11.47,4.59.16.34.62.08.57-.24-.75-4.5-8.58-5.68-12.1-4.76a.21.21,0,0,0,.06.41Z"/><path class="cls-10" d="M213.07,300.21c-6.82-1-13.31,7.48-10.78,14a.28.28,0,0,0,.53-.15c-1.17-6.91,3.19-13,10.22-13.54.14,0,.19-.24,0-.26Z"/><g class="cls-4"><path class="cls-5" d="M157.24,131.67a201,201,0,0,0,27.66-19c.11-.09,0-.26-.14-.19-9.29,6.1-18.57,12.56-27.58,19.07-.06,0,0,.14.06.1Z"/></g><g class="cls-4"><path class="cls-5" d="M171.34,125.66a81,81,0,0,1,42.33.82c.42.13.6-.53.18-.66a75,75,0,0,0-42.55-.29.07.07,0,1,0,0,.13Z"/></g><g class="cls-4"><path class="cls-5" d="M177,127.17c8.47.43,15.2,4.34,20.15,11.14.21.29.7,0,.48-.28l-.45-.6a.21.21,0,0,0-.36.21c-.26-.54,0-.78-.58-1.7a14.48,14.48,0,0,0-2.46-2.67,24.41,24.41,0,0,0-5-3.57A23,23,0,0,0,177,126.93a.12.12,0,0,0,0,.24Z"/></g></g><g id="top_of_body" data-name="top of body"><path class="cls-2" d="M151.72,159.86l0-.45c0-5.8-.68-11.72-3.8-16.46a28.62,28.62,0,0,0-2.45-3.26,18.7,18.7,0,0,0-1.82-2,8,8,0,0,0-1.46-1c-.34-.23-.68-.45-1-.65a9.25,9.25,0,0,0-3.93-1.21,6.93,6.93,0,0,0-2.4.23l-.33.18-.43.09-.47.11a.47.47,0,0,0-.68.16c-4.27,6.67-7,14.43-9.48,21.9-2.4,7.21-5,14.59-6.39,22.12a40.66,40.66,0,0,0-.91,5,28.33,28.33,0,0,0-.62,3.52c-.57,3.7-.82,7.53-1,11.27-.12,1.91-.17,3.83-.19,5.74.1.65.19,1.31.26,2a1.31,1.31,0,0,1,0,.28c.23,1.42.48,2.84.71,4.27.19.83.38,1.66.58,2.49s.52,1.4.8,2.09a34.34,34.34,0,0,0,3.33,6.26,24.94,24.94,0,0,1,.28-5.52,42.91,42.91,0,0,1,1.62-5.18c1.06,2.16,3.59,4.12,5.2,5.29a21.33,21.33,0,0,0,8.25,3.65,15.13,15.13,0,0,1-2.9-3.81c-1.64-3.12-2.25-7-.85-10.22,0-.11,0-.21,0-.32,2.28-7.2,9.88-11.29,14.12-17.27,4.36-6.14,5.49-13.11,5.83-20.4A45,45,0,0,0,151.72,159.86Z"/><path class="cls-11" d="M153.38,160.13l0-.44c0-5.8-.68-11.73-3.8-16.47A28.62,28.62,0,0,0,147.1,140a17.66,17.66,0,0,0-1.82-2,8,8,0,0,0-1.46-1.06c-.34-.23-.68-.45-1-.65a9.25,9.25,0,0,0-3.93-1.21,6.93,6.93,0,0,0-2.4.23l-.33.19-.43.08-.47.12a.46.46,0,0,0-.68.15c-4.27,6.67-7,14.43-9.48,21.9-2.4,7.22-5,14.6-6.39,22.12a41,41,0,0,0-.91,5,28.66,28.66,0,0,0-.62,3.52c-.57,3.7-.82,7.53-1,11.27-.12,1.92-.17,3.83-.19,5.75.1.65.19,1.3.26,2a1.29,1.29,0,0,1,0,.28c.23,1.42.48,2.84.71,4.27.19.83.38,1.66.58,2.49s.52,1.41.8,2.09a34,34,0,0,0,3.33,6.26,24.94,24.94,0,0,1,.28-5.52,42.91,42.91,0,0,1,1.62-5.18c1.06,2.16,3.59,4.12,5.2,5.3a21.31,21.31,0,0,0,8.25,3.64,14.78,14.78,0,0,1-2.9-3.81c-1.64-3.11-2.25-7-.85-10.22,0-.11,0-.21,0-.32,2.28-7.2,9.88-11.29,14.12-17.26,4.36-6.14,5.49-13.12,5.83-20.41A45,45,0,0,0,153.38,160.13Z"/><path class="cls-2" d="M74.72,168.93c-1.36-3.38-2.63-6.74-3.75-10.14-.39-.8-.8-1.6-1.22-2.39-7.1,8.43-14.58,17.61-17.48,28.41A97.14,97.14,0,0,0,49.66,201c0,.31,0,.63-.06,1,.07,1.76.15,3.51.25,5.27A44.47,44.47,0,0,0,52.19,216,21.24,21.24,0,0,1,57,203.15c2,5.24,6.22,8.95,11,11.82a.84.84,0,0,0,.2.08,27.82,27.82,0,0,1-1.78-5.89c-.63-3.4-1.46-8,.66-11.1,1.2-2.36,3.83-4.43,6.19-5.79A19.44,19.44,0,0,0,78.68,185a14.86,14.86,0,0,0,.54-4.55C77.7,176.59,76.26,172.74,74.72,168.93Z"/><path class="cls-11" d="M74.72,168.93c-1.36-3.38-2.63-6.74-3.75-10.14-.39-.8-.8-1.6-1.22-2.39-7.1,8.43-14.58,17.61-17.48,28.41A97.14,97.14,0,0,0,49.66,201c0,.31,0,.63-.06,1,.07,1.76.15,3.51.25,5.27A44.47,44.47,0,0,0,52.19,216,21.24,21.24,0,0,1,57,203.15c2,5.24,6.22,8.95,11,11.82a.84.84,0,0,0,.2.08,27.82,27.82,0,0,1-1.78-5.89c-.63-3.4-1.46-8,.66-11.1,1.2-2.36,3.83-4.43,6.19-5.79A19.44,19.44,0,0,0,78.68,185a14.86,14.86,0,0,0,.54-4.55C77.7,176.59,76.26,172.74,74.72,168.93Z"/></g><g id="highlights"><g class="cls-12"><path class="cls-13" d="M146.42,155.24A37.22,37.22,0,0,1,140.26,173c-1.76,2.68,2.54,5.17,4.29,2.51a42.54,42.54,0,0,0,6.83-20.24c.25-3.18-4.72-3.17-5,0Z"/></g><g class="cls-12"><path class="cls-13" d="M171.73,145.5c18.14,3.8,35.56,10.52,44.11,28.17,1.32,2.74,5.4.35,4.08-2.38C210.87,152.61,192.23,145,173,141c-3-.62-4.23,3.93-1.25,4.55Z"/></g><g class="cls-12"><path class="cls-13" d="M271.3,148a21.08,21.08,0,0,1,.8,3c0,.23.09.47.12.71-.05-.34-.05-.35,0,0q.07.84.09,1.68a4.56,4.56,0,0,0,9.11,0,26.4,26.4,0,0,0-1.31-7.79c-.76-2.25-3.17-4-5.6-3.18-2.24.73-4,3.19-3.19,5.6Z"/></g><g class="cls-12"><path class="cls-13" d="M176.48,206c-6,5.91-7.9,15.76-7.37,23.83.2,3.17,5.16,3.19,5,0-.44-6.77.87-15.31,5.92-20.32,2.27-2.26-1.24-5.76-3.51-3.51Z"/></g><g class="cls-12"><path class="cls-13" d="M222.7,312.79c6.39,0,6.4-9.92,0-9.92s-6.39,9.92,0,9.92Z"/></g><g class="cls-12"><path class="cls-13" d="M215.72,247.37c-3.76,10-.73,21.08,3,30.59,1.74,4.4,8.94,2.48,7.18-2-3.28-8.33-6.32-17.88-3-26.64,1.69-4.48-5.5-6.42-7.18-2Z"/></g></g><g id="ear"><polygon class="cls-5" points="97.13 100.71 97.13 100.7 97.13 100.71 97.13 100.71"/><path class="cls-5" d="M96.6,101.05l-.35.35h0l.35-.34Z"/><g class="cls-8"><path class="cls-5" d="M138.62,12.91c-2.24.11-5.44,1.72-7.13-.49-.21-.27-.69,0-.47.28,1.9,2.48,5.08.87,7.6.76.35,0,.35-.56,0-.55Z"/></g><g class="cls-8"><path class="cls-5" d="M139.26,18.13a.28.28,0,0,0,0-.55.28.28,0,0,0,0,.55Z"/></g><polygon class="cls-5" points="101.75 112.95 101.75 112.94 101.75 112.95 101.75 112.95"/><path class="cls-5" d="M102.27,113.29l.35.35h0l-.35-.35Z"/><path class="cls-14" d="M81.3,45.1c3.14-6.43,4-14.48,4.88-21.56.8-6.79-.18-13.21-.54-20v0c2.69,4.21,5.7,8.46,8.14,13,1,2.17,1.88,4.36,2.69,6.58.07.27.15.54.22.81,1.89,7.56,3,15.49,1.18,23.18v.14a.76.76,0,0,1-1,.66c-.95,1.27-3.16,1.22-4.64,1.13-3.46-.19-6.75-1.51-9.95-2.75A.83.83,0,0,1,81.3,45.1Z"/><path class="cls-2" d="M1.15,85.85c.57-4.75.6-9.55,1.78-14.21a35.27,35.27,0,0,1,3.4-8.94c.8-1.94,2-3.77,3.78-4.41,2.47-1.62,6.88-1.75,9.19-2,5.78-.68,12.07-1.64,17.9-.8,1.61-3.82,3.77-7.92,8-9.39,2.3-.79,4.45-.37,6.76.15a46.84,46.84,0,0,1,5.17,1.09l2,.18C61.82,45.66,64.62,44,68,43.62c2.76-.3,6.39,0,8.78,1.58l.53.16h0a24.69,24.69,0,0,1,5.7,0c1.79.09,3.59.21,5.38.33,2,0,4.07.06,6.08.19,1,.13,2,.24,2.94.35,2.26.25,4.34.82,6.48.25,0,0,0,0,0,.07l.27.59a2.41,2.41,0,0,0,.32.52c.61,1.18,1.26,2.34,1.91,3.5.54,1,1.09,2,1.66,3,.14.23.29.45.42.69,1,1.8,2.07,3.62,3,5.47l0,.12a8.74,8.74,0,0,0,1.25,1.91,1.29,1.29,0,0,0,.19.21c.1.1.18.2.28.29,1.09,2.18,2.18,4.37,3.17,6.59l.77,2.2c1.33,3.84,2.69,7.69,2.86,11.78a33.84,33.84,0,0,1-.49,7.08.66.66,0,0,1,0,.14,19,19,0,0,1-.85,3.59,33.12,33.12,0,0,1-5.87,11.43,28.74,28.74,0,0,1-19.1,10.58,44.68,44.68,0,0,1-12.7-.47c-3.66-.61-8.12-1.22-11.54-2.9a8.27,8.27,0,0,1-.89-.22c-.43-.1-.86-.22-1.28-.36-1.6-.25-3.2-.73-4.78-1a22.41,22.41,0,0,0-9.37.23c-4.95,1.33-9.32,4.42-14,6.45a25.78,25.78,0,0,1-12.8,2.38c-1.2-.13-2.45-.28-3.71-.49L22,119.7a25.86,25.86,0,0,1-8.27-2.76,4.74,4.74,0,0,1-1.31-.75c-3.66-1.7-3.59-6.06-4.29-9.48-.46-2.26-2-4-2.6-6.13A4.25,4.25,0,0,1,5.35,99,4.44,4.44,0,0,1,.43,95.86C-.47,93,.16,89.12,1.15,85.85Z"/><path class="cls-11" d="M4,86c.54-4.74.57-9.55,1.72-14.21A36.06,36.06,0,0,1,9,62.87c.78-1.94,1.93-3.77,3.66-4.41,2.39-1.62,6.66-1.74,8.89-2,5.61-.68,11.69-1.64,17.34-.81,1.55-3.82,3.65-7.91,7.75-9.38,2.23-.8,4.31-.37,6.55.14a49.13,49.13,0,0,1,5,1.09l1.92.18c2.61-1.84,5.32-3.51,8.57-3.87,2.66-.3,6.18,0,8.5,1.58a3.4,3.4,0,0,1,.51.16h0a23.07,23.07,0,0,1,5.51,0c1.74.09,3.48.21,5.21.33,2,0,4,.06,5.89.2l2.84.35c2.2.24,4.21.81,6.28.24,0,0,0,0,0,.08l.27.58a2.36,2.36,0,0,0,.3.52c.6,1.18,1.22,2.35,1.85,3.5.53,1,1.06,2,1.61,3,.13.23.28.46.41.69,1,1.81,2,3.62,2.92,5.48a1.17,1.17,0,0,0,0,.11,8.36,8.36,0,0,0,1.21,1.91,1.3,1.3,0,0,0,.19.22c.09.09.16.2.26.29,1.06,2.18,2.12,4.36,3.07,6.59q.39,1.11.75,2.19c1.29,3.84,2.6,7.7,2.76,11.78a33.73,33.73,0,0,1-.47,7.08.61.61,0,0,1,0,.14,18.55,18.55,0,0,1-.82,3.59,33.15,33.15,0,0,1-5.69,11.43,27.5,27.5,0,0,1-18.49,10.58,41.61,41.61,0,0,1-12.3-.46c-3.54-.61-7.85-1.22-11.16-2.9-.32-.06-.65-.17-.87-.22-.42-.11-.83-.23-1.24-.37-1.55-.25-3.09-.72-4.63-1a21,21,0,0,0-9.07.22c-4.8,1.33-9,4.42-13.53,6.46a24.37,24.37,0,0,1-12.39,2.37c-1.17-.12-2.38-.28-3.61-.49-.23,0-.46-.07-.68-.12a24.59,24.59,0,0,1-8-2.75,4.71,4.71,0,0,1-1.27-.76c-3.54-1.7-3.47-6.06-4.15-9.47-.44-2.27-1.94-4-2.51-6.14a4.45,4.45,0,0,1-.16-1.57A4.28,4.28,0,0,1,3.32,96C2.45,93.18,3.06,89.3,4,86Z"/><g class="cls-12"><path class="cls-13" d="M24.35,59c-3.53-.44-7.29-.54-10.5,1.29A10.45,10.45,0,0,0,8.45,69a5,5,0,0,0,9.92,0c0,.34.76-.26,1.2-.34a16.34,16.34,0,0,1,4.78.25c2.66.33,5-2.51,5-5,0-2.95-2.29-4.63-5-5Z"/></g><g class="cls-12"><path class="cls-13" d="M70,46.66a21.23,21.23,0,0,0-8,2.89c-3.55,2.27-.26,8,3.31,5.67A16.77,16.77,0,0,1,71.77,53c1.75-.29,2.73-2.46,2.29-4a3.36,3.36,0,0,0-4-2.3Z"/></g><g class="cls-12"><path class="cls-13" d="M24.1,107.07l-3.4-1a5,5,0,0,0-6.1,3.46,5.06,5.06,0,0,0,3.46,6.11l3.4,1a5,5,0,1,0,2.64-9.56Z"/></g><path class="cls-10" d="M75.83,77.38c.41,2.91.5,6-1.45,8.54-1.78,2.3-5.72,2.18-8.29,2.24a39.47,39.47,0,0,0-8.33.87c-6.9,1.64-11.19,6-17.06,9.55-5.06,3-9.56,2.83-14.05-1A17.09,17.09,0,0,0,21.52,94c-6.18-2.24-7.63,3-12.81,4.59-.3.1-.27.63.08.59,2.34-.27,3.3-1.75,5.12-3C21,91.1,24,97.92,29.26,100.77c5.79,3.13,11.59-1.27,16.07-4.62a33.74,33.74,0,0,1,13.45-6.56c4.14-.87,8.61,0,12.64-1.21,5.32-1.62,6.13-6.27,4.9-11.14-.08-.33-.54-.18-.49.14Z"/><path class="cls-10" d="M61.43,47.36c0,.31-6.33,4.29-6.93,4.69a29.7,29.7,0,0,1-9.64,4.05c-.29.06-.24.55.07.52,6.28-.59,12-5,16.71-8.94a.21.21,0,0,0,0-.26l-.05-.1s-.1-.07-.14,0l0,0a0,0,0,0,0,0,0Z"/><path class="cls-10" d="M79.44,55.79c.36.85.91,1.59,1.25,2.46a10.36,10.36,0,0,1,.62,2.64c0,.11.19.16.22,0a6,6,0,0,0-1.85-5.32.15.15,0,0,0-.24.19Z"/><path class="cls-10" d="M79.33,63.4c-.19-.21-.35-.13-.49.26a9.58,9.58,0,0,1-.73.69,9.22,9.22,0,0,1-2,1.34,11.23,11.23,0,0,1-4.74,1c-.14,0-.19.24,0,.26,3.14.43,6.88-1,8.47-3.89.08-.15-.15-.29-.24-.14l-.23.4s0,.05,0,0Z"/><path class="cls-15" d="M54.05,82.31A10.54,10.54,0,0,0,53,77.82a.66.66,0,0,1,.67-.26c2.57.58,4.83,3.31,5.7,5.69S61,89.89,59.5,92s-4.16,1.13-5.11-.76C53,88.54,54.5,85.21,54.05,82.31Z"/><path class="cls-15" d="M50.56,86.42a3,3,0,0,1,1.37,1h0a4.33,4.33,0,0,1,.93,1.18,5.64,5.64,0,0,1,1.21,4.24,3.21,3.21,0,0,1-.72,1.9c-.55.52-1.38.46-2.05.72A1.1,1.1,0,0,1,50,94.75a21.65,21.65,0,0,1-.34-3.41,33.86,33.86,0,0,0-.6-4A.93.93,0,0,1,50.56,86.42Z"/><path class="cls-15" d="M30.94,103.58a1.36,1.36,0,0,0,0-.17c0-.14,0-.29,0-.43a10.08,10.08,0,0,1,.64-2.76,1.21,1.21,0,0,1,.57-.64c.64.15,1.36.32,2,.5l.74.34a.5.5,0,0,1,.14.1.72.72,0,0,1,.61.63,3.77,3.77,0,0,1-.19,1.46,1.05,1.05,0,0,0-.14.34s0,0,0,.06a12.92,12.92,0,0,1-2.75,3.59,18.59,18.59,0,0,1-1.64.91l0,0A36.46,36.46,0,0,0,30.94,103.58Z"/><path class="cls-15" d="M26.88,98.39a.5.5,0,0,1,.15-.17q1.71.41,3.42.9a.77.77,0,0,1,.31.82,7.79,7.79,0,0,1-3,4.06.73.73,0,0,1-.52.13A20.54,20.54,0,0,0,26.88,98.39Z"/><path class="cls-15" d="M13.11,96.22h.1l.09,0a20.24,20.24,0,0,0-.19,3.55c0,.91,0,1.82-.06,2.72a.85.85,0,0,1-.19-.19A11.57,11.57,0,0,1,11,98.93a2.22,2.22,0,0,1,.55-2.18C12.1,96.58,12.61,96.41,13.11,96.22Z"/><path class="cls-15" d="M7.64,100.51a3.6,3.6,0,0,1,0-.93c.6-.46,1.23-.92,1.88-1.36a.82.82,0,0,0,.42-.15A43.6,43.6,0,0,0,9.62,104,16.1,16.1,0,0,1,7.64,100.51Z"/><path class="cls-10" d="M62,66.19c2.24-4.41,4.87-9.61,9.68-11.65,3-1.25,7.39-1.14,8.93,2,0,.42-.08.84-.13,1.26,0,0,0,0,0,0a.41.41,0,0,1,0,.11c0,.3-.08.59-.13.88a25.82,25.82,0,0,1-.8,2.75,19.36,19.36,0,0,1-2.77,4.26,8.7,8.7,0,0,1-1,.71c-3,2-6.33,1.31-9.68,1.36a3.05,3.05,0,0,0-.54-.08,30,30,0,0,1-3.67-.5A1.34,1.34,0,0,1,62,66.19Z"/><path class="cls-10" d="M32.94,66.83c-.55.55-1.72.55-2.46.75a10.24,10.24,0,0,0-2.72,1.11.6.6,0,0,1-.13.09,6.87,6.87,0,0,1,1-3.08,3,3,0,0,1,2.06-1.35,10.27,10.27,0,0,1,1.76-.27.75.75,0,0,1,.34.34,3.56,3.56,0,0,1,.4,2.22A2,2,0,0,0,32.94,66.83Z"/><path class="cls-10" d="M10.65,65.83c.93-1.42,2.59-1.19,3.21.47,0,.08.07.14.1.21a16.49,16.49,0,0,1,0,1.86,7,7,0,0,1-.1.8,11.86,11.86,0,0,0-3.55-2.63A4.3,4.3,0,0,1,10.65,65.83Z"/><path class="cls-14" d="M100.43,46.76c9.32-3.65,18.72-7.35,24.48-16s5.67-18.29,3-28h0a3.81,3.81,0,0,0-.22-.75h0v0l.22.12a2.51,2.51,0,0,0,.6.24l0,0c5,2.29,8.25,6.83,10.26,12.11a31.86,31.86,0,0,1,1.58,4.44,33.67,33.67,0,0,1,1,4.35,33.59,33.59,0,0,1,.42,5.65,39.12,39.12,0,0,1-.35,7.65,38.16,38.16,0,0,1-4.57,14.65c-3.14,6.29-8,12.78-14,15-.29.17-.56.36-.85.52a.38.38,0,0,1-.34.25c-8.58.41-18.38-10.11-20.79-16.7C100.64,49.62,99.59,47.09,100.43,46.76Z"/><path class="cls-16" d="M104.49,112.36c8.18-6.07,9.82-16.38,4.87-25.14-.12-.3-.25-.59-.38-.87a.64.64,0,0,1,0-.24,1.25,1.25,0,0,1-.16-1.21c3.82-6.61,5.3-14.3,3.21-21.66l.07,0c7.11,2.49,16.4.55,23.3-1.12,6.33-1.53,13.66-3.91,19.25-8,1.16-.78,2.29-1.62,3.46-2.37a23.85,23.85,0,0,0-3.05,14.6,25.8,25.8,0,0,0,5.15,12.58c-4,.89-8.53,4.79-10,7.16-3.17,5.16-3.52,10.67-2.49,16.11a25.51,25.51,0,0,0-3.53.25,5.57,5.57,0,0,0-3,.74,10.35,10.35,0,0,0-5.59,4.86,15.8,15.8,0,0,0-1.83,7,47.05,47.05,0,0,0-5.39-2.07c-.16,0-.33-.08-.49-.12l-.71-.17-.43-.09a11.43,11.43,0,0,0-8.59,1.68,18.44,18.44,0,0,0-5.38,5.21,11.05,11.05,0,0,0-3.25-3.74,11.65,11.65,0,0,0-5.63-2.3A1.35,1.35,0,0,1,104.49,112.36Z"/><path class="cls-1" d="M104.49,112.3c8.18-6.07,9.82-16.38,4.87-25.15-.12-.29-.25-.58-.38-.87a.65.65,0,0,1,0-.24,1.23,1.23,0,0,1-.16-1.2c3.82-6.62,5.3-14.31,3.21-21.67l.07,0c7.11,2.49,16.4.55,23.3-1.12,6.33-1.53,13.66-3.9,19.25-8,1.16-.77,2.29-1.61,3.46-2.36a23.85,23.85,0,0,0-3.05,14.6,25.8,25.8,0,0,0,5.15,12.57c-4,.9-8.53,4.79-10,7.17-3.17,5.16-3.52,10.67-2.49,16.11a25.52,25.52,0,0,0-3.53.24,5.68,5.68,0,0,0-3,.75,10.31,10.31,0,0,0-5.59,4.86,15.73,15.73,0,0,0-1.83,7,45.27,45.27,0,0,0-5.39-2.07l-.49-.13-.71-.17-.43-.08a11.43,11.43,0,0,0-8.59,1.67,18.34,18.34,0,0,0-5.38,5.22,11.08,11.08,0,0,0-3.25-3.75,11.85,11.85,0,0,0-5.63-2.3A1.34,1.34,0,0,1,104.49,112.3Z"/><path class="cls-13" d="M68.32,58.51a1.85,1.85,0,0,1,.33-.21,2.28,2.28,0,0,1,3,1.52,1.91,1.91,0,0,1-.31,1.82c0,.06,0,.13-.09.2a2.33,2.33,0,1,1-2.89-3.33Z"/><path class="cls-2" d="M133.69,63.19c7.05-1.51,16-3.67,21.57-8.6l.24-.13a2.17,2.17,0,0,0-.07.24c-.12.38-.23.77-.34,1.15-5.85,6-13.2,11.09-21.5,12.84-6.77,1.43-14.63,1.31-19.65-3.6a.76.76,0,0,0-.09-.09c-.31-.19-.62-.38-.91-.59A61.81,61.81,0,0,0,133.69,63.19Z"/><g class="cls-4"><path class="cls-5" d="M113.32,65.09c4.24,6,12.11,5,18.44,3.88a40.37,40.37,0,0,0,22.47-11.51c.19-.19-.1-.47-.3-.29a44.5,44.5,0,0,1-19,10.36c-8,1.94-14.75,2.54-21.51-2.54a.07.07,0,0,0-.1.1Z"/></g><g class="cls-4"><path class="cls-5" d="M114,65.8c7.23,11,21.64,16.6,34.4,13.61.1,0,.08-.2,0-.18-13.88,1.44-25.13-3-34.15-13.6-.1-.11-.31,0-.22.17Z"/></g><g class="cls-4"><path class="cls-5" d="M114.07,65.85c2.06,8.64,7.63,16.6,13.61,23,.2.21.5-.1.31-.31-6.13-6.94-9.8-14.51-13.7-22.78-.06-.13-.26,0-.22.1Z"/></g><g class="cls-8"><path class="cls-5" d="M139.22,14.25c-2.63,1.37-5.36.31-7.81-.9-.32-.15-.59.32-.28.47,2.66,1.31,5.55,2.37,8.36.9.31-.16,0-.63-.27-.47Z"/></g><g class="cls-8"><path class="cls-5" d="M140,19.71a7.61,7.61,0,0,1-8.2-.4c-.29-.21-.56.27-.28.47a8.15,8.15,0,0,0,8.75.4.27.27,0,0,0-.27-.47Z"/></g><g class="cls-8"><path class="cls-5" d="M140.85,26.52a13.87,13.87,0,0,1-10.27.25c-.33-.12-.48.4-.15.52A14.3,14.3,0,0,0,141,27.05c.32-.13.18-.66-.15-.53Z"/></g><g class="cls-8"><path class="cls-5" d="M140.3,34.15a9.77,9.77,0,0,1-10.88-2,.28.28,0,0,0-.39.39,10.3,10.3,0,0,0,11.42,2.15c.32-.13.18-.66-.15-.52Z"/></g><g class="cls-8"><path class="cls-5" d="M140.07,42.45a13.91,13.91,0,0,1-16.17-4.81c-.2-.29-.68,0-.48.28a14.6,14.6,0,0,0,6.78,5,11.79,11.79,0,0,0,10,0c.32-.13.18-.66-.15-.53Z"/></g><g class="cls-8"><path class="cls-5" d="M136.35,50.55a17.5,17.5,0,0,1-18.76-6.36c-.21-.27-.69,0-.47.27a18,18,0,0,0,19.37,6.61.27.27,0,0,0-.14-.52Z"/></g><g class="cls-8"><path class="cls-5" d="M128.11,61.33a21.49,21.49,0,0,1-16.38-14.11c-.11-.33-.64-.19-.52.15A22,22,0,0,0,128,61.86c.35.06.49-.46.15-.53Z"/></g><g class="cls-8"><path class="cls-5" d="M116.54,64.09a25.71,25.71,0,0,1-9.7-14.63c-.09-.34-.61-.19-.53.15a26.35,26.35,0,0,0,10,15c.28.21.55-.27.27-.48Z"/></g><g class="cls-8"><path class="cls-5" d="M91.49,13.63a2.93,2.93,0,0,1-1.68,3.31c-.32.15,0,.62.27.47A3.47,3.47,0,0,0,92,13.48c-.08-.34-.61-.19-.53.15Z"/></g><g class="cls-8"><path class="cls-5" d="M94.75,21.13C93.68,23.06,91.36,23,89.43,23c-.35,0-.35.53,0,.54,2.14.1,4.62,0,5.79-2.09.17-.3-.3-.58-.47-.27Z"/></g><g class="cls-8"><path class="cls-5" d="M97.19,25.87c-1.11,3.29-4.76,3.86-7.76,4.19-.35,0-.35.58,0,.54,3.28-.35,7.09-1,8.29-4.58.11-.34-.42-.48-.53-.15Z"/></g><g class="cls-8"><path class="cls-5" d="M99.18,33.71C95.92,35.5,92.5,36.82,88.73,36c-.34-.07-.49.45-.14.53,3.91.81,7.47-.51,10.87-2.37.31-.17,0-.64-.28-.48Z"/></g><g class="cls-8"><path class="cls-5" d="M98.88,41.92c-3.65,2.55-8.57,2.79-12.79,1.86-.34-.08-.49.45-.15.52,4.36,1,9.45.72,13.21-1.91.29-.19,0-.67-.27-.47Z"/></g><path class="cls-15" d="M171.55,314.38a10.5,10.5,0,0,0-.92,4.53.67.67,0,0,1-.72-.05c-2.07-1.63-2.95-5.06-2.72-7.58.22-2.37,1.36-6.71,3.59-8s4.25.76,4.3,2.87C175.15,309.2,172.39,311.57,171.55,314.38Z"/><path class="cls-15" d="M189.12,315.81a10.51,10.51,0,0,0-.93,4.53.65.65,0,0,1-.72,0c-2.06-1.62-2.94-5.05-2.71-7.58.21-2.37,1.36-6.7,3.59-8s4.24.76,4.29,2.88C192.72,310.63,190,313,189.12,315.81Z"/><path class="cls-15" d="M209,315.46a10.52,10.52,0,0,0-.93,4.54.67.67,0,0,1-.72-.05c-2.06-1.63-2.94-5.06-2.71-7.58s1.36-6.71,3.59-8,4.24.76,4.29,2.88C212.59,310.28,209.83,312.65,209,315.46Z"/><path class="cls-15" d="M75.16,314.16a10.36,10.36,0,0,0-.92,4.53.69.69,0,0,1-.73-.05c-2.06-1.62-2.94-5.05-2.71-7.58.22-2.37,1.36-6.7,3.59-8s4.25.76,4.3,2.87C78.76,309,76,311.35,75.16,314.16Z"/><path class="cls-15" d="M90.86,314a10.51,10.51,0,0,0-.93,4.53.67.67,0,0,1-.72-.05c-2.07-1.62-2.94-5.05-2.71-7.58.21-2.37,1.36-6.71,3.59-8s4.24.76,4.29,2.87C94.46,308.85,91.7,311.22,90.86,314Z"/><path class="cls-15" d="M107,313.77a10.36,10.36,0,0,0-.92,4.53.69.69,0,0,1-.73-.05c-2.06-1.62-2.94-5.06-2.71-7.58s1.36-6.71,3.59-8,4.24.76,4.3,2.87C110.63,308.59,107.87,311,107,313.77Z"/></g></g></svg>