<svg viewBox="0 0 448 512" version="1.1" xmlns="http://www.w3.org/2000/svg" xmlns:xlink="http://www.w3.org/1999/xlink" xml:space="preserve" xmlns:serif="http://www.serif.com/" style="fill-rule:evenodd;clip-rule:evenodd;stroke-linejoin:round;stroke-miterlimit:2;"><path fill="currentColor" d="M400,0l-352,0c-26.5,0 -48,21.5 -48,48l0,352c0,26.5 21.5,48 48,48l352,0c26.5,0 48,-21.5 48,-48l0,-352c0,-26.5 -21.5,-48 -48,-48Zm-26.793,170.43c0,-67.691 -44.368,-87.538 -44.368,-87.538c-43.54,-19.987 -159.171,-19.778 -202.293,-0c0,-0 -44.375,19.847 -44.375,87.538c0,80.574 -4.596,180.648 73.562,201.332c28.211,7.451 52.453,9.053 71.96,7.939c35.384,-1.95 55.239,-12.605 55.239,-12.605l-1.184,-25.698c-0,0 -25.287,7.939 -53.707,7.034c-28.142,-0.975 -57.802,-3.064 -62.419,-37.606c-0.428,-3.209 -0.638,-6.443 -0.627,-9.68c59.633,14.555 110.485,6.337 124.483,4.666c39.082,-4.666 73.123,-28.762 77.461,-50.768c6.825,-34.681 6.268,-84.614 6.268,-84.614Z"/><path fill="currentColor" d="M320.893,257.62l-32.474,0l0,-79.529c0,-34.612 -44.57,-35.935 -44.57,4.805l0,43.525l-32.264,0l-0,-43.532c-0,-40.74 -44.57,-39.417 -44.57,-4.805l-0,79.529l-32.544,0c0,-85.031 -3.621,-102.998 12.821,-121.871c18.037,-20.126 55.588,-21.449 72.308,4.248l8.079,13.58l8.078,-13.58c16.79,-25.837 54.403,-24.235 72.308,-4.248c16.512,19.012 12.814,36.91 12.814,121.871l0.014,0.007Z"/></svg>