<?xml version="1.0" encoding="utf-8"?>
<!-- Generator: Adobe Illustrator 25.3.1, SVG Export Plug-In . SVG Version: 6.00 Build 0)  -->
<svg version="1.1" id="Layer_1" xmlns="http://www.w3.org/2000/svg" xmlns:xlink="http://www.w3.org/1999/xlink" x="0px" y="0px"
	 viewBox="0 0 240 240" style="enable-background:new 0 0 240 240;" xml:space="preserve">
<style type="text/css">
	.st0{fill:url(#SVGID_1_);}
	.st1{fill:#EAECF5;}
	.st2{fill:#8A567F;}
	.st3{fill:#A31231;}
</style>
<linearGradient id="SVGID_1_" gradientUnits="userSpaceOnUse" x1="-31.6769" y1="122.16" x2="275.0961" y2="122.16" gradientTransform="matrix(0.6431 0.7658 0.7658 -0.6431 -50.7202 106.6698)">
	<stop  offset="0" style="stop-color:#402082"/>
	<stop  offset="1" style="stop-color:#C30016"/>
</linearGradient>
<circle class="st0" cx="120" cy="120" r="120"/>
<path class="st1" d="M172.9,148.5c0,0-46.7-87-48.6-90.5c-4.2-7.7-11.7-4.6-11.7-4.6L74,74c0,0-6.2,3.1-7.9,9.6
	c-1.5,5.7,3,11.9,3,11.9s49,78.7,54.7,85.3c5.7,6.6,10,4,14.6,1.3c4.5-2.7,28.7-18.2,33.5-20.8C178.5,157.5,172.9,148.5,172.9,148.5
	z"/>
<path class="st2" d="M179.6,154.4c0,0-3.1-5.7-7.8-14.3l-3.4-6.4c-4.2-7.7-41.5-76.3-43.6-80.2c-4.7-8.5-13.2-5.1-13.2-5.1l-43.4,23
	c0,0-7,3.4-8.9,10.6c-1.7,6.4,3.4,13.2,3.4,13.2s53.2,85,59.6,92.4c6.4,7.3,11.1,4.6,16.2,1.6c5.1-3,34.5-23,40-25.9
	C183.9,160.3,179.6,154.4,179.6,154.4z M171.1,161.2c-4.8,2.9-28.2,18.2-32.7,20.8c-4.5,2.7-8.9,5.3-14.6-1.3
	C118.2,174.1,69,95.4,69,95.4s-4.5-6.1-3-11.9c1.7-6.5,7.9-9.6,7.9-9.6l1.8-0.9c0.7,1.5,2.3,3.8,5.5,2.6
	c4.7-1.7,24.3-13.6,24.3-13.6s2.5-1.4,0.6-5.3l6.3-3.4c0,0,6.7-3.1,10.9,4.6c1.9,3.5,44.8,83.4,44.8,83.4c1.6,3,3.2,5.9,4.9,8.8
	C174.6,152.8,176.5,158,171.1,161.2z"/>
<path class="st2" d="M92.7,123.3c-1.9,0-3.4-1.5-3.4-3.4c0-0.8,0.2-19.7,15-30.4c14.7-10.6,30.3-4.9,31-4.6c1.8,0.7,2.6,2.6,2,4.4
	c-0.7,1.8-2.6,2.6-4.4,2c-0.5-0.2-12.9-4.6-24.6,3.8c-12.1,8.7-12.2,24.7-12.2,24.9C96.2,121.8,94.6,123.3,92.7,123.3z"/>
<path class="st2" d="M103,130.1C102.9,130.1,102.9,130.1,103,130.1c-2-0.1-3.5-1.6-3.4-3.5c0-0.7,0.6-17,12.8-25.8
	c13.7-9.9,26.5-2.6,27-2.3c1.6,1,2.2,3,1.2,4.7c-1,1.6-3,2.2-4.7,1.2c-0.4-0.2-9.6-5.3-19.6,1.9c-9.5,6.9-10,20.4-10,20.5
	C106.3,128.6,104.8,130.1,103,130.1z"/>
<path class="st2" d="M114.9,133.9c-0.1,0-0.1,0-0.2,0c-1.9-0.1-3.3-1.7-3.2-3.6c0-0.5,0.8-11.8,8.7-17.2c9.3-6.5,17.9-1.8,18.3-1.6
	c1.6,0.9,2.2,3,1.3,4.6c-0.9,1.6-3,2.2-4.6,1.3c-0.2-0.1-5.3-2.8-11.1,1.2c-5.1,3.5-5.8,12-5.8,12.1
	C118.2,132.6,116.7,133.9,114.9,133.9z"/>
<path class="st2" d="M138.2,131.7c0.2,0.3,0.3,0.7,0.4,1c0.1,0.3,0.2,0.7,0.2,1.1c0,0.4,0,0.7,0,1.1c0,0.4-0.1,0.7-0.2,1.1
	c-0.1,0.3-0.3,0.7-0.4,1c-0.2,0.3-0.4,0.6-0.6,0.9c-0.2,0.3-0.5,0.5-0.8,0.7s-0.6,0.4-0.9,0.6c-0.3,0.2-0.7,0.3-1,0.4
	c-0.3,0.1-0.7,0.2-1.1,0.2c-0.4,0-0.7,0-1.1,0c-0.4,0-0.7-0.1-1.1-0.2c-0.3-0.1-0.7-0.3-1-0.4c-0.3-0.2-0.6-0.4-0.9-0.6
	c-0.3-0.2-0.5-0.5-0.7-0.8c-0.2-0.3-0.4-0.6-0.6-0.9c-0.2-0.3-0.3-0.7-0.4-1c-0.1-0.3-0.2-0.7-0.2-1.1c0-0.4,0-0.7,0-1.1
	c0-0.4,0.1-0.7,0.2-1.1c0.1-0.3,0.3-0.7,0.4-1c0.2-0.3,0.4-0.6,0.6-0.9c0.2-0.3,0.5-0.5,0.8-0.7c0.3-0.2,0.6-0.4,0.9-0.6
	c0.3-0.2,0.7-0.3,1-0.4c0.3-0.1,0.7-0.2,1.1-0.2c0.4,0,0.7,0,1.1,0c0.4,0,0.7,0.1,1.1,0.2c0.3,0.1,0.7,0.3,1,0.4
	c0.3,0.2,0.6,0.4,0.9,0.6c0.3,0.2,0.5,0.5,0.7,0.8C137.8,131,138,131.3,138.2,131.7z"/>
<path class="st3" d="M146.4,127.8c-0.2,0-0.4,0-0.6-0.1L85.3,99.2c-0.7-0.3-1.1-1.2-0.7-2c0.3-0.7,1.2-1.1,2-0.7l60.5,28.5
	c0.7,0.3,1.1,1.2,0.7,2C147.5,127.5,146.9,127.8,146.4,127.8z"/>
</svg>
