<svg xmlns="http://www.w3.org/2000/svg" viewBox="0 0 164.01 137.47"><defs><style>.cls-1{fill:#25144d;}</style></defs><title>quill</title><g id="Layer_2" data-name="Layer 2"><g id="Layer_1-2" data-name="Layer 1"><path class="cls-1" d="M161.39.38h0a106.54,106.54,0,0,0-26.59,11c-.51.29-1.2,6.07-1.7,6.37-.7.41-1.22-4.67-1.91-4.25a147,147,0,0,0-19.35,14.11c-.74.63-.67,8.57-1.39,9.22s-2.37-5.88-3.14-5.17c-2.72,2.55-5.29,5.15-7.69,7.77C90,50,82.83,62.85,80.17,76.6a1.6,1.6,0,0,0-3.16.3,51.24,51.24,0,0,0,2.06,15.88,31.91,31.91,0,0,0-5.62-2,1.62,1.62,0,0,0-1.56,2.69c2.25,2.51,4.48,4.11,7.8,7.41.42.42,17.68-54.89,54.79-77.57a176.58,176.58,0,0,0-28.72,31.8C91.52,75.82,82,98.48,80.62,101.65c-1.32,2.75-6.32,16.23-9.4,24.17-.75,1.93-.48,5.1,3.1.85,5.41-6.43,6.07-15.66,9.11-23.5l.43-.42a2,2,0,0,0,.32-.17c3.39-2.21,7.3-2.75,11.24-3.19,2-.23,2.06-3.45,0-3.22-1.23.14-2.46.3-3.68.5,4.5-4.26,10.75-6.29,15.63-10.1,1.63-1.27-.66-3.53-2.27-2.27-.13.09-.26.17-.38.27,1.48-1.36,2.94-2.75,4.34-4.21A146.08,146.08,0,0,0,126.65,57.3c.57-.89-5.31-2-4.75-2.91.28-.45,7-.67,7.28-1.12,8.06-13.08,15.33-26.66,24.53-38.91.46-.61-4.39,0-3.92-.58s6.34-2.55,6.86-3.2c2.18-2.7,4.47-5.32,6.9-7.84A1.6,1.6,0,0,0,161.39.38Z"/><path class="cls-1" d="M63.27,129.14l-2.42-1,2.2-4.25c.6-1.16-.41-2.86-1.81-2.36-3.14,1.09-8.81,4.27-12.76,3.4a17.22,17.22,0,0,1,5.38-5c1.25-.56,2.49-1.13,3.71-1.74,1.61-.8.48-3.58-1.24-2.94a25.53,25.53,0,0,0-3.9,1.85c-8.85,4.08-18.56,7.51-27.56,10.88-3.84,1.44-10.8,5.28-14.81,5.05-11.08-.61,2.68-10.72,5-12,1.83-1,4.2-3.36,2.38-2.38-4.69,2.49-15.26,6.9-17.12,12.08-1.46,4.09,1.61,6.69,5.48,6.66,3.66,0,7.68-2.16,11.06-3.3,4.45-1.51,9-2.91,13.26-4.78,5.09-2.2,10.35-4.07,15.54-6.06-.35.5-.7,1-1,1.56a1.64,1.64,0,0,0,.57,2.2c4,2.62,8.69.87,13-.91l-1.05,2a1.65,1.65,0,0,0,.58,2.2c2.48,1.53,4.43-.06,7.28.53C67.1,131.34,65.3,129.56,63.27,129.14Z"/><path class="cls-1" d="M68.44,127.71a1.61,1.61,0,0,0,0,3.21A1.61,1.61,0,0,0,68.44,127.71Z"/></g></g></svg>